<svg xmlns="http://www.w3.org/2000/svg" viewBox="0 0 732 311"><defs><style>.cls-1{fill:#bebebf;}.cls-2{fill:#d8e1ea;}.cls-3{fill:#939598;}.cls-4{fill:#808285;}.cls-5{fill:#6d6e71;}.cls-6{fill:#ececef;}.cls-7{fill:#231f20;}.cls-15,.cls-8{fill:#424aa0;}.cls-10,.cls-11,.cls-9{fill:#fff;}.cls-10{font-size:19.81px;}.cls-10,.cls-11,.cls-15{font-family:Gilroy-Heavy, Gilroy-Heavy;}.cls-11{font-size:33.89px;}.cls-12,.cls-13,.cls-14{fill:none;}.cls-13,.cls-14{stroke:#adadad;stroke-miterlimit:10;stroke-width:5px;}.cls-14{stroke-dasharray:12.57 12.57;}.cls-15{font-size:95px;}.cls-16{letter-spacing:-0.02em;}.cls-17{letter-spacing:-0.05em;}.cls-18{letter-spacing:-0.01em;}.cls-19{font-size:65px;}.cls-19,.cls-21{fill:#adadad;font-family:Gilroy-Bold, Gilroy-Bold;}.cls-20{letter-spacing:0.01em;}.cls-21{font-size:40px;}.cls-22{letter-spacing:-0.02em;}.cls-23{letter-spacing:0em;}.cls-24{letter-spacing:-0.03em;}.cls-25{letter-spacing:0em;}.cls-26{letter-spacing:-0.02em;}.cls-27{letter-spacing:0em;}.cls-28{letter-spacing:0em;}</style></defs><title>Citas</title><g id="Line"><g id="_Group_" data-name="&lt;Group&gt;"><g id="_Group_2" data-name="&lt;Group&gt;"><g id="_Group_3" data-name="&lt;Group&gt;"><g id="_Group_4" data-name="&lt;Group&gt;"><g id="_Group_5" data-name="&lt;Group&gt;"><g id="_Group_6" data-name="&lt;Group&gt;"><path id="_Compound_Path_" data-name="&lt;Compound Path&gt;" class="cls-1" d="M61,160.24H302.22V26.31a5.83,5.83,0,0,0-5.82-5.82H62.82a5.36,5.36,0,0,0-.7.05A6.53,6.53,0,0,0,61,24.2ZM68.63,31a.88.88,0,0,1,.88-.88h4.63V28.74H289.92V30.1a.89.89,0,0,1,.67.85V152.69a.88.88,0,0,1-.88.88H69.51a.88.88,0,0,1-.88-.88Z"/></g></g></g></g><g id="_Group_7" data-name="&lt;Group&gt;"><g id="_Group_8" data-name="&lt;Group&gt;"><g id="_Group_9" data-name="&lt;Group&gt;"><g id="_Group_10" data-name="&lt;Group&gt;"><path id="_Path_" data-name="&lt;Path&gt;" class="cls-2" d="M302.71,22.12a6.56,6.56,0,0,0-6.23-4.49H67.58a6.48,6.48,0,0,0-3.64,1.1H296.4A7.58,7.58,0,0,1,302.71,22.12Z"/></g></g></g></g><g id="_Group_11" data-name="&lt;Group&gt;"><g id="_Group_12" data-name="&lt;Group&gt;"><g id="_Group_13" data-name="&lt;Group&gt;"><g id="_Group_14" data-name="&lt;Group&gt;"><polygon id="_Path_2" data-name="&lt;Path&gt;" class="cls-2" points="288.82 148.05 74.14 148.05 74.14 31.83 70.39 31.83 70.39 151.81 288.82 151.81 288.82 148.05"/></g></g></g></g><g id="_Group_15" data-name="&lt;Group&gt;"><g id="_Group_16" data-name="&lt;Group&gt;"><g id="_Group_17" data-name="&lt;Group&gt;"><g id="_Group_18" data-name="&lt;Group&gt;"><rect id="_Path_3" data-name="&lt;Path&gt;" class="cls-3" x="61.71" y="162.35" width="240.51" height="1.9"/></g></g></g></g><g id="_Group_19" data-name="&lt;Group&gt;"><g id="_Group_20" data-name="&lt;Group&gt;"><g id="_Group_21" data-name="&lt;Group&gt;"><g id="_Group_22" data-name="&lt;Group&gt;"><path id="_Compound_Path_2" data-name="&lt;Compound Path&gt;" class="cls-3" d="M68.28,180.61H297.19a6.55,6.55,0,0,0,4.85-2.16,5.84,5.84,0,0,0,.18-1.4V166H61.71v8A6.57,6.57,0,0,0,68.28,180.61ZM172,170h15.28a3.3,3.3,0,0,1,0,6.59H172a3.3,3.3,0,0,1,0-6.59Z"/></g></g></g></g><g id="_Group_23" data-name="&lt;Group&gt;"><g id="_Group_24" data-name="&lt;Group&gt;"><g id="_Group_25" data-name="&lt;Group&gt;"><g id="_Group_26" data-name="&lt;Group&gt;"><path id="_Path_4" data-name="&lt;Path&gt;" class="cls-3" d="M172,174.79h15.28a1.53,1.53,0,0,0,0-3.06H172a1.53,1.53,0,1,0,0,3.06Z"/></g></g></g></g><g id="_Group_27" data-name="&lt;Group&gt;"><g id="_Group_28" data-name="&lt;Group&gt;"><g id="_Group_29" data-name="&lt;Group&gt;"><g id="_Group_30" data-name="&lt;Group&gt;"><path id="_Path_5" data-name="&lt;Path&gt;" class="cls-2" d="M288.26,202.32a5.4,5.4,0,0,0-.55,2.34v4.16h41.05V206.6c0-3.48-4.4-6.46-8-6.46H293.94A9.3,9.3,0,0,0,288.26,202.32Z"/></g></g></g></g><g id="_Group_31" data-name="&lt;Group&gt;"><g id="_Group_32" data-name="&lt;Group&gt;"><g id="_Group_33" data-name="&lt;Group&gt;"><g id="_Group_34" data-name="&lt;Group&gt;"><path id="_Path_6" data-name="&lt;Path&gt;" class="cls-2" d="M322.7,197.46H308.23v.91h12.53a11.08,11.08,0,0,1,6.5,2.34,7.55,7.55,0,0,1,3.27,5.89v2.22h.87v-4.16C331.4,200.68,326.67,197.46,322.7,197.46Z"/></g></g></g></g><g id="_Group_35" data-name="&lt;Group&gt;"><g id="_Group_36" data-name="&lt;Group&gt;"><g id="_Group_37" data-name="&lt;Group&gt;"><g id="_Group_38" data-name="&lt;Group&gt;"><path id="_Path_7" data-name="&lt;Path&gt;" class="cls-2" d="M306.47,198.37v-.91H296.41a9.43,9.43,0,0,0-4.22,1.09,8.81,8.81,0,0,1,1.75-.18Z"/></g></g></g></g><g id="_Group_39" data-name="&lt;Group&gt;"><g id="_Group_40" data-name="&lt;Group&gt;"><g id="_Group_41" data-name="&lt;Group&gt;"><g id="_Group_42" data-name="&lt;Group&gt;"><path id="_Path_8" data-name="&lt;Path&gt;" class="cls-4" d="M201.91,182.87H202c0-.54,0-1.1,0-1.67A13,13,0,0,1,201.91,182.87Z"/></g></g></g></g><g id="_Group_43" data-name="&lt;Group&gt;"><g id="_Group_44" data-name="&lt;Group&gt;"><g id="_Group_45" data-name="&lt;Group&gt;"><g id="_Group_46" data-name="&lt;Group&gt;"><path id="_Path_9" data-name="&lt;Path&gt;" class="cls-4" d="M153.48,207h55c-2.17-2.32-5.88-8.3-6.41-22.31h-.54C197.59,198.65,169.7,204.63,153.48,207Z"/></g></g></g></g><g id="_Group_47" data-name="&lt;Group&gt;"><g id="_Group_48" data-name="&lt;Group&gt;"><g id="_Group_49" data-name="&lt;Group&gt;"><g id="_Group_50" data-name="&lt;Group&gt;"><path id="_Path_10" data-name="&lt;Path&gt;" class="cls-3" d="M124.07,216.16V213.1a4.82,4.82,0,0,1,.19-1.31,4.71,4.71,0,0,0-1.87,3.51v3H229.51V217H125A.88.88,0,0,1,124.07,216.16Z"/></g></g></g></g><g id="_Group_51" data-name="&lt;Group&gt;"><g id="_Group_52" data-name="&lt;Group&gt;"><g id="_Group_53" data-name="&lt;Group&gt;"><g id="_Group_54" data-name="&lt;Group&gt;"><path id="_Path_11" data-name="&lt;Path&gt;" class="cls-3" d="M223.25,210.13h-94.6a5.92,5.92,0,0,0-1.31.15,3.86,3.86,0,0,0-1.5,2.82v2.18H229.51C229.49,212.43,226.1,210.13,223.25,210.13Z"/></g></g></g></g><g id="_Group_55" data-name="&lt;Group&gt;"><g id="_Group_56" data-name="&lt;Group&gt;"><g id="_Group_57" data-name="&lt;Group&gt;"><g id="_Group_58" data-name="&lt;Group&gt;"><path id="_Path_12" data-name="&lt;Path&gt;" class="cls-5" d="M152.11,184.64h-2.3c-.53,14-4.25,20-6.41,22.31h1.19C145.61,206.34,151.91,201.9,152.11,184.64Z"/></g></g></g></g><g id="_Group_59" data-name="&lt;Group&gt;"><g id="_Group_60" data-name="&lt;Group&gt;"><g id="_Group_61" data-name="&lt;Group&gt;"><g id="_Group_62" data-name="&lt;Group&gt;"><path id="_Path_13" data-name="&lt;Path&gt;" class="cls-5" d="M201.55,184.64H153.88c-.16,13.6-4,19.73-6.5,22.31h6.1C169.7,204.63,197.59,198.65,201.55,184.64Z"/></g></g></g></g><g id="_Group_63" data-name="&lt;Group&gt;"><g id="_Group_64" data-name="&lt;Group&gt;"><g id="_Group_65" data-name="&lt;Group&gt;"><g id="_Group_66" data-name="&lt;Group&gt;"><path id="_Path_14" data-name="&lt;Path&gt;" class="cls-5" d="M202,181.2H149.87c0,.57,0,1.13,0,1.67h52A13,13,0,0,0,202,181.2Z"/></g></g></g></g><g id="_Group_67" data-name="&lt;Group&gt;"><g id="_Group_68" data-name="&lt;Group&gt;"><g id="_Group_69" data-name="&lt;Group&gt;"><g id="_Group_70" data-name="&lt;Group&gt;"><path id="_Path_15" data-name="&lt;Path&gt;" class="cls-6" d="M82.18,40.16a1.76,1.76,0,1,0-1.76-1.76A1.76,1.76,0,0,0,82.18,40.16Z"/></g></g></g></g><g id="_Group_71" data-name="&lt;Group&gt;"><g id="_Group_72" data-name="&lt;Group&gt;"><g id="_Group_73" data-name="&lt;Group&gt;"><g id="_Group_74" data-name="&lt;Group&gt;"><path id="_Path_16" data-name="&lt;Path&gt;" class="cls-6" d="M94,40.16a1.76,1.76,0,1,0-1.76-1.76A1.76,1.76,0,0,0,94,40.16Z"/></g></g></g></g><g id="_Group_75" data-name="&lt;Group&gt;"><g id="_Group_76" data-name="&lt;Group&gt;"><g id="_Group_77" data-name="&lt;Group&gt;"><g id="_Group_78" data-name="&lt;Group&gt;"><path id="_Path_17" data-name="&lt;Path&gt;" class="cls-6" d="M88.08,40.16a1.76,1.76,0,1,0-1.76-1.76A1.76,1.76,0,0,0,88.08,40.16Z"/></g></g></g></g><g id="_Group_79" data-name="&lt;Group&gt;"><g id="_Group_80" data-name="&lt;Group&gt;"><g id="_Group_81" data-name="&lt;Group&gt;"><g id="_Group_82" data-name="&lt;Group&gt;"><path id="_Path_18" data-name="&lt;Path&gt;" class="cls-6" d="M285.85,113.79a1.38,1.38,0,0,0,1.38-1.38V50.84a1.38,1.38,0,0,0-2.76,0v61.57A1.38,1.38,0,0,0,285.85,113.79Z"/></g></g></g></g><g id="_Group_83" data-name="&lt;Group&gt;"><g id="_Group_84" data-name="&lt;Group&gt;"><g id="_Group_85" data-name="&lt;Group&gt;"><g id="_Group_86" data-name="&lt;Group&gt;"><rect id="_Path_19" data-name="&lt;Path&gt;" class="cls-6" x="249.41" y="69.56" width="32.92" height="1.26"/></g></g></g></g><g id="_Group_87" data-name="&lt;Group&gt;"><g id="_Group_88" data-name="&lt;Group&gt;"><g id="_Group_89" data-name="&lt;Group&gt;"><g id="_Group_90" data-name="&lt;Group&gt;"><rect id="_Path_20" data-name="&lt;Path&gt;" class="cls-6" x="249.41" y="74.41" width="32.92" height="1.26"/></g></g></g></g><g id="_Group_91" data-name="&lt;Group&gt;"><g id="_Group_92" data-name="&lt;Group&gt;"><g id="_Group_93" data-name="&lt;Group&gt;"><g id="_Group_94" data-name="&lt;Group&gt;"><rect id="_Path_21" data-name="&lt;Path&gt;" class="cls-6" x="249.41" y="79.25" width="32.92" height="1.26"/></g></g></g></g><g id="_Group_95" data-name="&lt;Group&gt;"><g id="_Group_96" data-name="&lt;Group&gt;"><g id="_Group_97" data-name="&lt;Group&gt;"><g id="_Group_98" data-name="&lt;Group&gt;"><rect id="_Path_22" data-name="&lt;Path&gt;" class="cls-6" x="249.41" y="84.1" width="32.92" height="1.26"/></g></g></g></g><g id="_Group_99" data-name="&lt;Group&gt;"><g id="_Group_100" data-name="&lt;Group&gt;"><g id="_Group_101" data-name="&lt;Group&gt;"><g id="_Group_102" data-name="&lt;Group&gt;"><rect id="_Path_23" data-name="&lt;Path&gt;" class="cls-6" x="249.41" y="88.94" width="32.92" height="1.26"/></g></g></g></g><g id="_Group_103" data-name="&lt;Group&gt;"><g id="_Group_104" data-name="&lt;Group&gt;"><g id="_Group_105" data-name="&lt;Group&gt;"><g id="_Group_106" data-name="&lt;Group&gt;"><rect id="_Path_24" data-name="&lt;Path&gt;" class="cls-6" x="249.41" y="93.79" width="32.92" height="1.26"/></g></g></g></g><g id="_Group_107" data-name="&lt;Group&gt;"><g id="_Group_108" data-name="&lt;Group&gt;"><g id="_Group_109" data-name="&lt;Group&gt;"><g id="_Group_110" data-name="&lt;Group&gt;"><rect id="_Path_25" data-name="&lt;Path&gt;" class="cls-6" x="249.41" y="98.63" width="32.92" height="1.26"/></g></g></g></g><g id="_Group_111" data-name="&lt;Group&gt;"><g id="_Group_112" data-name="&lt;Group&gt;"><g id="_Group_113" data-name="&lt;Group&gt;"><g id="_Group_114" data-name="&lt;Group&gt;"><rect id="_Path_26" data-name="&lt;Path&gt;" class="cls-6" x="249.41" y="103.48" width="32.92" height="1.26"/></g></g></g></g><g id="_Group_115" data-name="&lt;Group&gt;"><g id="_Group_116" data-name="&lt;Group&gt;"><g id="_Group_117" data-name="&lt;Group&gt;"><g id="_Group_118" data-name="&lt;Group&gt;"><rect id="_Path_27" data-name="&lt;Path&gt;" class="cls-6" x="249.41" y="108.32" width="32.92" height="1.26"/></g></g></g></g><g id="_Group_119" data-name="&lt;Group&gt;"><g id="_Group_120" data-name="&lt;Group&gt;"><g id="_Group_121" data-name="&lt;Group&gt;"><g id="_Group_122" data-name="&lt;Group&gt;"><rect id="_Path_28" data-name="&lt;Path&gt;" class="cls-6" x="249.41" y="113.16" width="32.92" height="1.26"/></g></g></g></g><g id="_Group_123" data-name="&lt;Group&gt;"><g id="_Group_124" data-name="&lt;Group&gt;"><g id="_Group_125" data-name="&lt;Group&gt;"><g id="_Group_126" data-name="&lt;Group&gt;"><rect id="_Path_29" data-name="&lt;Path&gt;" class="cls-6" x="265.87" y="54.99" width="15.44" height="4.97"/></g></g></g></g></g><g id="_Group_127" data-name="&lt;Group&gt;"><g id="_Group_128" data-name="&lt;Group&gt;"><g id="_Group_129" data-name="&lt;Group&gt;"><g id="_Group_130" data-name="&lt;Group&gt;"><g id="_Group_131" data-name="&lt;Group&gt;"><path id="_Path_30" data-name="&lt;Path&gt;" class="cls-7" d="M56.14,164.37H57V26.44a5.83,5.83,0,0,1,5.12-5.78,5.48,5.48,0,0,1,.7,0H296.42a5.83,5.83,0,0,1,5.82,5.82V164.37h.89a.89.89,0,0,1,.88.89V26.44a7.59,7.59,0,0,0-7.59-7.59H62.84a7.59,7.59,0,0,0-7.58,7.59V165.26A.88.88,0,0,1,56.14,164.37Z"/></g></g></g></g><g id="_Group_132" data-name="&lt;Group&gt;"><g id="_Group_133" data-name="&lt;Group&gt;"><g id="_Group_134" data-name="&lt;Group&gt;"><g id="_Group_135" data-name="&lt;Group&gt;"><path id="_Path_31" data-name="&lt;Path&gt;" class="cls-7" d="M253.11,183.14a.88.88,0,0,1,.89.88,6,6,0,0,0,.05.74h42.37a7.6,7.6,0,0,0,7.59-7.59V165.26a.89.89,0,0,0-.88-.89h-247a.88.88,0,0,0-.88.89v11.91a7.59,7.59,0,0,0,7.58,7.59h89.3v-.88A.88.88,0,0,1,153,183H62.84A5.83,5.83,0,0,1,57,177.17v-11H302.24v11a5.92,5.92,0,0,1-.17,1.41,5.83,5.83,0,0,1-5.65,4.42H206.24a.87.87,0,0,1,.88.88c0,.3,0,.59,0,.88h45.14c0-.24,0-.49,0-.74A.88.88,0,0,1,253.11,183.14Z"/></g></g></g></g><g id="_Group_136" data-name="&lt;Group&gt;"><g id="_Group_137" data-name="&lt;Group&gt;"><g id="_Group_138" data-name="&lt;Group&gt;"><g id="_Group_139" data-name="&lt;Group&gt;"><path id="_Compound_Path_3" data-name="&lt;Compound Path&gt;" class="cls-7" d="M69.54,153.7H289.73a.88.88,0,0,0,.88-.88V31.07a.88.88,0,0,0-.66-.85,1.46,1.46,0,0,0-.22,0H69.54a.88.88,0,0,0-.88.88V152.82A.88.88,0,0,0,69.54,153.7ZM70.42,32H288.85v120H70.42Z"/></g></g></g></g><g id="_Group_140" data-name="&lt;Group&gt;"><g id="_Group_141" data-name="&lt;Group&gt;"><g id="_Group_142" data-name="&lt;Group&gt;"><g id="_Group_143" data-name="&lt;Group&gt;"><path id="_Path_32" data-name="&lt;Path&gt;" class="cls-7" d="M206.24,183H153a.88.88,0,0,0-.89.88v.88c-.21,17.27-6.51,21.71-7.52,22.31h2.78c2.53-2.58,6.34-8.71,6.5-22.31h51.46c.16,13.6,4,19.73,6.5,22.31h2.79c-1-.62-7.31-5.07-7.52-22.31,0-.29,0-.58,0-.88A.87.87,0,0,0,206.24,183Z"/></g></g></g></g><g id="_Group_144" data-name="&lt;Group&gt;"><g id="_Group_145" data-name="&lt;Group&gt;"><g id="_Group_146" data-name="&lt;Group&gt;"><g id="_Group_147" data-name="&lt;Group&gt;"><path id="_Compound_Path_4" data-name="&lt;Compound Path&gt;" class="cls-7" d="M208.52,207.07H131.37c-2.93,0-6.26,2-7.08,4.85a4.42,4.42,0,0,0-.19,1.31v3.05a.87.87,0,0,0,.88.88H234.29a.88.88,0,0,0,.88-.88v-3.05c0-3.47-3.91-6.16-7.27-6.16H208.52Zm19.38,1.76c2.48,0,5.51,2,5.51,4.4v2.17H125.86v-2.17a3.89,3.89,0,0,1,1.5-2.83,6.49,6.49,0,0,1,4-1.57H227.9Z"/></g></g></g></g><g id="_Group_148" data-name="&lt;Group&gt;"><g id="_Group_149" data-name="&lt;Group&gt;"><g id="_Group_150" data-name="&lt;Group&gt;"><g id="_Group_151" data-name="&lt;Group&gt;"><path id="_Path_33" data-name="&lt;Path&gt;" class="cls-7" d="M285.08,210.09H286v-3.37a5.79,5.79,0,0,1,2.33-4.28,9.31,9.31,0,0,1,5.67-2.18h13.41a.88.88,0,0,1-.88-.88v-.88H294a9.6,9.6,0,0,0-1.75.17,11.51,11.51,0,0,0-4.75,2.16,7.54,7.54,0,0,0-3.26,5.89V211A.87.87,0,0,1,285.08,210.09Z"/></g></g></g></g><g id="_Group_152" data-name="&lt;Group&gt;"><g id="_Group_153" data-name="&lt;Group&gt;"><g id="_Group_154" data-name="&lt;Group&gt;"><g id="_Group_155" data-name="&lt;Group&gt;"><path id="_Path_34" data-name="&lt;Path&gt;" class="cls-7" d="M327.28,200.83a11,11,0,0,0-6.5-2.33H308.25v.88a.87.87,0,0,1-.88.88h13.41c3.6,0,8,3,8,6.46v3.37h.89a.88.88,0,0,1,.88.88v-4.25A7.55,7.55,0,0,0,327.28,200.83Z"/></g></g></g></g><g id="_Group_156" data-name="&lt;Group&gt;"><g id="_Group_157" data-name="&lt;Group&gt;"><g id="_Group_158" data-name="&lt;Group&gt;"><g id="_Group_159" data-name="&lt;Group&gt;"><path id="_Compound_Path_5" data-name="&lt;Compound Path&gt;" class="cls-7" d="M329.67,210.09H285.08a.87.87,0,0,0-.88.88v1.48c0,2.65,3,4.71,5.52,4.71H325c2.55,0,5.52-2.06,5.52-4.71V211A.88.88,0,0,0,329.67,210.09Zm-.89,2.36c0,1.56-2.1,3-3.75,3H289.72c-1.66,0-3.76-1.39-3.76-3v-.6h42.82Z"/></g></g></g></g><g id="_Group_160" data-name="&lt;Group&gt;"><g id="_Group_161" data-name="&lt;Group&gt;"><g id="_Group_162" data-name="&lt;Group&gt;"><g id="_Group_163" data-name="&lt;Group&gt;"><path id="_Path_35" data-name="&lt;Path&gt;" class="cls-7" d="M306.49,199.38a.88.88,0,0,0,1.76,0v-1.89a7.62,7.62,0,0,0-7.61-7.62H259.85a5.85,5.85,0,0,1-5.8-5.11A6,6,0,0,1,254,184a.89.89,0,0,0-1.77,0c0,.25,0,.5,0,.74a7.63,7.63,0,0,0,7.58,6.88h40.79a5.86,5.86,0,0,1,5.85,5.85v1.89Z"/></g></g></g></g><g id="_Group_164" data-name="&lt;Group&gt;"><g id="_Group_165" data-name="&lt;Group&gt;"><g id="_Group_166" data-name="&lt;Group&gt;"><g id="_Group_167" data-name="&lt;Group&gt;"><path id="_Compound_Path_6" data-name="&lt;Compound Path&gt;" class="cls-7" d="M172,176.68h15.27a3.3,3.3,0,0,0,0-6.59H172a3.3,3.3,0,1,0,0,6.59Zm0-4.82h15.27a1.53,1.53,0,1,1,0,3H172a1.53,1.53,0,1,1,0-3Z"/></g></g></g></g></g></g><g id="_Group_168" data-name="&lt;Group&gt;"><rect id="_Path_36" data-name="&lt;Path&gt;" class="cls-8" x="139.56" y="61.11" width="78.21" height="65.36"/><g id="_Group_169" data-name="&lt;Group&gt;"><g id="_Group_170" data-name="&lt;Group&gt;"><g id="_Group_171" data-name="&lt;Group&gt;"><path id="_Compound_Path_7" data-name="&lt;Compound Path&gt;" class="cls-7" d="M145.07,54.53a2.52,2.52,0,0,1-2.44-2.59V45.8a2.44,2.44,0,1,1,4.87,0v6.14A2.52,2.52,0,0,1,145.07,54.53Zm0-9.77a1,1,0,0,0-.89,1v6.14a.9.9,0,1,0,1.77,0V45.8A1,1,0,0,0,145.07,44.76Z"/></g><g id="_Group_172" data-name="&lt;Group&gt;"><path id="_Compound_Path_8" data-name="&lt;Compound Path&gt;" class="cls-7" d="M154.31,54.53a2.52,2.52,0,0,1-2.44-2.59V45.8a2.44,2.44,0,1,1,4.87,0v6.14A2.52,2.52,0,0,1,154.31,54.53Zm0-9.77a1,1,0,0,0-.89,1v6.14a.9.9,0,1,0,1.77,0V45.8A1,1,0,0,0,154.31,44.76Z"/></g><g id="_Group_173" data-name="&lt;Group&gt;"><path id="_Compound_Path_9" data-name="&lt;Compound Path&gt;" class="cls-7" d="M163.55,54.53a2.52,2.52,0,0,1-2.44-2.59V45.8a2.44,2.44,0,1,1,4.87,0v6.14A2.52,2.52,0,0,1,163.55,54.53Zm0-9.77a1,1,0,0,0-.89,1v6.14a.9.9,0,1,0,1.77,0V45.8A1,1,0,0,0,163.55,44.76Z"/></g><g id="_Group_174" data-name="&lt;Group&gt;"><path id="_Compound_Path_10" data-name="&lt;Compound Path&gt;" class="cls-7" d="M172.79,54.53a2.52,2.52,0,0,1-2.44-2.59V45.8a2.44,2.44,0,1,1,4.87,0v6.14A2.52,2.52,0,0,1,172.79,54.53Zm0-9.77a1,1,0,0,0-.89,1v6.14a.9.9,0,1,0,1.77,0V45.8A1,1,0,0,0,172.79,44.76Z"/></g><g id="_Group_175" data-name="&lt;Group&gt;"><path id="_Compound_Path_11" data-name="&lt;Compound Path&gt;" class="cls-7" d="M182,54.53a2.52,2.52,0,0,1-2.44-2.59V45.8a2.44,2.44,0,1,1,4.87,0v6.14A2.52,2.52,0,0,1,182,54.53Zm0-9.77a1,1,0,0,0-.89,1v6.14a.9.9,0,1,0,1.77,0V45.8A1,1,0,0,0,182,44.76Z"/></g><g id="_Group_176" data-name="&lt;Group&gt;"><path id="_Compound_Path_12" data-name="&lt;Compound Path&gt;" class="cls-7" d="M191.27,54.53a2.52,2.52,0,0,1-2.44-2.59V45.8a2.44,2.44,0,1,1,4.87,0v6.14A2.52,2.52,0,0,1,191.27,54.53Zm0-9.77a1,1,0,0,0-.89,1v6.14a.9.9,0,1,0,1.77,0V45.8A1,1,0,0,0,191.27,44.76Z"/></g><g id="_Group_177" data-name="&lt;Group&gt;"><path id="_Compound_Path_13" data-name="&lt;Compound Path&gt;" class="cls-7" d="M200.51,54.53a2.52,2.52,0,0,1-2.44-2.59V45.8a2.44,2.44,0,1,1,4.87,0v6.14A2.52,2.52,0,0,1,200.51,54.53Zm0-9.77a1,1,0,0,0-.89,1v6.14a.9.9,0,1,0,1.77,0V45.8A1,1,0,0,0,200.51,44.76Z"/></g><g id="_Group_178" data-name="&lt;Group&gt;"><path id="_Compound_Path_14" data-name="&lt;Compound Path&gt;" class="cls-7" d="M209.75,54.53a2.52,2.52,0,0,1-2.44-2.59V45.8a2.44,2.44,0,1,1,4.87,0v6.14A2.52,2.52,0,0,1,209.75,54.53Zm0-9.77a1,1,0,0,0-.89,1v6.14a.9.9,0,1,0,1.77,0V45.8A1,1,0,0,0,209.75,44.76Z"/></g></g><g id="_Group_179" data-name="&lt;Group&gt;"><path id="_Compound_Path_15" data-name="&lt;Compound Path&gt;" class="cls-7" d="M217.31,140H137.5a.77.77,0,0,1-.77-.77V48.87a.76.76,0,0,1,.77-.77h5.91a.77.77,0,0,1,.77.77v3.07a.9.9,0,1,0,1.77,0V48.87a.77.77,0,0,1,.78-.77h5.92a.77.77,0,0,1,.77.77v3.07a.9.9,0,1,0,1.77,0V48.87a.77.77,0,0,1,.78-.77h5.92a.77.77,0,0,1,.77.77v3.07a.9.9,0,1,0,1.77,0V48.87a.77.77,0,0,1,.78-.77h5.92a.77.77,0,0,1,.77.77v3.07a.9.9,0,1,0,1.77,0V48.87a.77.77,0,0,1,.78-.77h5.92a.77.77,0,0,1,.77.77v3.07a.9.9,0,1,0,1.77,0V48.87a.77.77,0,0,1,.78-.77h5.92a.77.77,0,0,1,.77.77v3.07a.9.9,0,1,0,1.77,0V48.87a.77.77,0,0,1,.78-.77h5.92a.77.77,0,0,1,.77.77v3.07a.9.9,0,1,0,1.77,0V48.87a.77.77,0,0,1,.78-.77h5.92a.77.77,0,0,1,.77.77v3.07a.9.9,0,1,0,1.77,0V48.87a.77.77,0,0,1,.78-.77h5.9a.76.76,0,0,1,.77.77v90.36A.77.77,0,0,1,217.31,140Zm-79-1.54h78.27V49.64h-4.36v2.3a2.44,2.44,0,1,1-4.87,0v-2.3h-4.37v2.3a2.44,2.44,0,1,1-4.87,0v-2.3H193.7v2.3a2.44,2.44,0,1,1-4.87,0v-2.3h-4.37v2.3a2.44,2.44,0,1,1-4.87,0v-2.3h-4.37v2.3a2.44,2.44,0,1,1-4.87,0v-2.3H166v2.3a2.44,2.44,0,1,1-4.87,0v-2.3h-4.37v2.3a2.44,2.44,0,1,1-4.87,0v-2.3H147.5v2.3a2.44,2.44,0,1,1-4.87,0v-2.3h-4.36Z"/></g><g id="_Group_180" data-name="&lt;Group&gt;"><g id="_Group_181" data-name="&lt;Group&gt;"><path id="_Compound_Path_16" data-name="&lt;Compound Path&gt;" class="cls-7" d="M222.29,135.77h-5a.77.77,0,0,1-.77-.78V48.87a.77.77,0,0,1,1.54,0l5,86.13a.72.72,0,0,1-.21.57A.73.73,0,0,1,222.29,135.77Zm-4.21-1.55h3.39L218.08,75.6Z"/></g><g id="_Group_182" data-name="&lt;Group&gt;"><path id="_Compound_Path_17" data-name="&lt;Compound Path&gt;" class="cls-7" d="M137.5,135.77h-5a.79.79,0,0,1-.77-.82l5-86.13a.78.78,0,0,1,.79-.72.77.77,0,0,1,.75.77V135A.77.77,0,0,1,137.5,135.77Zm-4.16-1.55h3.39V75.6Z"/></g></g><g id="_Group_183" data-name="&lt;Group&gt;"><path id="_Compound_Path_18" data-name="&lt;Compound Path&gt;" class="cls-7" d="M217.31,128.41H137.5a.76.76,0,0,1-.77-.77V61a.77.77,0,0,1,.77-.78h79.81a.77.77,0,0,1,.77.78v66.69A.76.76,0,0,1,217.31,128.41Zm-79-1.54h78.27V61.72H138.27Z"/></g><g id="_Group_184" data-name="&lt;Group&gt;"><g id="_Group_185" data-name="&lt;Group&gt;"><path id="_Path_37" data-name="&lt;Path&gt;" class="cls-9" d="M202.17,105.24H152.65a.77.77,0,1,1,0-1.54h49.52a.77.77,0,1,1,0,1.54Z"/></g></g></g></g><text class="cls-10" transform="translate(160.51 122.14)">DIA</text><text class="cls-11" transform="translate(155.82 98.68)">00</text><line class="cls-12" x1="30" y1="236" x2="519" y2="234"/><line class="cls-13" x1="21" y1="240.5" x2="723.5" y2="240.5"/><line class="cls-13" x1="372.5" y1="14" x2="372.5" y2="20"/><line class="cls-14" x1="372.5" y1="32.57" x2="372.5" y2="202.22"/><line class="cls-13" x1="372.5" y1="208.5" x2="372.5" y2="214.5"/><text class="cls-15" transform="translate(407.09 116.82)"><tspan class="cls-16">C</tspan><tspan x="66.31" y="0">I</tspan><tspan class="cls-17" x="94.81" y="0">T</tspan><tspan class="cls-18" x="142.31" y="0">A</tspan><tspan x="203.58" y="0">S</tspan></text><text class="cls-19" transform="translate(454.67 197.2)">EN LIN<tspan class="cls-20" x="187" y="0">E</tspan><tspan x="222.17" y="0">A</tspan></text><text class="cls-21" transform="translate(20.67 286.2)"><tspan class="cls-22">R</tspan><tspan class="cls-23" x="23.56" y="0">e</tspan><tspan x="46.64" y="0">ali</tspan><tspan class="cls-24" x="91.44" y="0">z</tspan><tspan x="109.16" y="0">a tu </tspan><tspan class="cls-25" x="192.68" y="0">c</tspan><tspan x="213.96" y="0">i</tspan><tspan class="cls-26" x="223.84" y="0">t</tspan><tspan x="238.32" y="0">a en lin</tspan><tspan class="cls-27" x="372.52" y="0">e</tspan><tspan x="395.6" y="0">a y no hag</tspan><tspan class="cls-23" x="591.63" y="0">a</tspan><tspan class="cls-28" x="616.51" y="0">s fila</tspan></text></g></svg>