<svg xmlns="http://www.w3.org/2000/svg" viewBox="0 0 330 277"><defs><style>.cls-1{opacity:0.41;}.cls-2,.cls-4{fill:#c9d7fd;}.cls-3{opacity:0.88;}.cls-4{opacity:0.31;}.cls-5,.cls-9{fill:#a79ad6;}.cls-11,.cls-6{fill:#2e3a61;}.cls-7{fill:#fff;}.cls-12,.cls-8{fill:#ecf0f5;}.cls-9{opacity:0.33;}.cls-10{fill:#e3a6b1;}.cls-11{opacity:0.29;}.cls-12{opacity:0.35;}</style></defs><title>Artboard 1</title><g id="OBJECTS"><g class="cls-1"><path class="cls-2" d="M325.55,175.61a91.36,91.36,0,0,0-.42-15.6c-2.75-24.3-15.22-47.22-33.58-63.39-6.54-5.77-14-10.94-18.25-18.56-7.18-12.82-6.64-27.56-15.54-40.23a75.39,75.39,0,0,0-36.57-27.64C177.5-4.95,116.33,19.7,121.84,72.34c0,.19,0,.47.06.81a19.16,19.16,0,0,1-18.77,20.39c-40.31,1-75,32-82.43,71.41-4.78,25.32,3,53.07,21.56,71,13.83,13.37,32.37,20.71,50.93,25.76,37.21,10.12,76.37,12.24,114.73,8.37,35.92-3.62,73.8-13.95,97-41.58A90.74,90.74,0,0,0,325.55,175.61Z"/></g><g class="cls-3"><path class="cls-2" d="M292.4,178.09a71.26,71.26,0,0,0-.33-12.22,79,79,0,0,0-26.3-49.66c-5.13-4.52-11-8.57-14.3-14.54-5.63-10-5.2-21.59-12.18-31.51A59,59,0,0,0,210.65,48.5C176.42,36.64,128.5,56,132.82,97.19c0,.15,0,.37.05.64a15,15,0,0,1-14.71,16c-31.58.75-58.76,25.1-64.58,55.94-3.74,19.83,2.39,41.57,16.9,55.6,10.83,10.48,25.36,16.23,39.9,20.18,29.14,7.93,59.82,9.59,89.87,6.56,28.14-2.84,57.81-10.92,76-32.57A71,71,0,0,0,292.4,178.09Z"/></g><circle class="cls-4" cx="307.04" cy="45.05" r="9.86" transform="translate(192.36 333.42) rotate(-76.66)"/><circle class="cls-4" cx="90.51" cy="33.62" r="11.43" transform="translate(2.74 73.85) rotate(-45)"/><circle class="cls-4" cx="22.05" cy="253.22" r="14.76"/><circle class="cls-5" cx="138.55" cy="84.39" r="52.33"/><path class="cls-6" d="M174.88,122.07a.47.47,0,0,1-.35-.14.5.5,0,0,1,0-.71,51.83,51.83,0,0,0-73.3-73.3.5.5,0,0,1-.71,0,.5.5,0,0,1,0-.7,52.83,52.83,0,0,1,74.72,74.71A.5.5,0,0,1,174.88,122.07Z"/><circle class="cls-7" cx="138.55" cy="84.39" r="39.82"/><path class="cls-6" d="M138.55,124.71a40.32,40.32,0,0,1,0-80.64.5.5,0,0,1,.5.5.51.51,0,0,1-.5.5,39.32,39.32,0,0,0,0,78.64.5.5,0,0,1,0,1Z"/><path class="cls-6" d="M148.86,92H138a4,4,0,0,1-4-4V73a3.5,3.5,0,1,1,7,0V85h7.86a3.5,3.5,0,0,1,0,7Z"/><path class="cls-6" d="M57.3,102.57l56.37,56.37a28.26,28.26,0,0,0,39.94,0l6.73-6.74a6.51,6.51,0,0,0,0-9.22l-23-23a6.5,6.5,0,0,0-9.21,0l-11.51,11.5a2.29,2.29,0,0,1-3.25,0l-27.9-27.89a2.28,2.28,0,0,1,0-3.22L96.81,89a6.51,6.51,0,0,0,0-9.22L73.19,56.19a6.52,6.52,0,0,0-9.14-.08l-6.4,6.18A28.25,28.25,0,0,0,57.3,102.57Z"/><path class="cls-8" d="M59.07,63.42,90.74,95.1,91.83,94l5-5a6.51,6.51,0,0,0,0-9.22L73.19,56.19a6.52,6.52,0,0,0-9.14-.08l-6.4,6.18Z"/><path class="cls-6" d="M90.74,95.81l-32-32L56.9,62.32l6.81-6.57a7.05,7.05,0,0,1,9.83.08L97.17,79.46a7,7,0,0,1,0,9.92ZM58.41,62.25l1,.82L90.74,94.39l5.72-5.72a6,6,0,0,0,0-8.5L72.83,56.54a6,6,0,0,0-8.43-.07Z"/><path class="cls-8" d="M123.5,126.78l31.68,31.67,1.08-1.09,5-5a6.53,6.53,0,0,0,0-9.22l-23.63-23.62a6.5,6.5,0,0,0-9.13-.08l-6.4,6.18Z"/><path class="cls-6" d="M155.18,159.16l-32-32-1.84-1.48,6.81-6.57a7.06,7.06,0,0,1,9.84.08l23.62,23.63a7,7,0,0,1,0,9.92ZM122.84,125.6l1,.82,31.32,31.32L160.9,152a6,6,0,0,0,0-8.51l-23.63-23.63a6,6,0,0,0-8.43-.07Z"/><line class="cls-8" x1="61.49" y1="59.69" x2="80.79" y2="78.99"/><path class="cls-6" d="M80.79,79.49a.5.5,0,0,1-.35-.15L61.14,60a.48.48,0,0,1,0-.7.5.5,0,0,1,.71,0l19.3,19.3a.5.5,0,0,1,0,.7A.51.51,0,0,1,80.79,79.49Z"/><line class="cls-8" x1="138.26" y1="136.46" x2="157.57" y2="155.76"/><path class="cls-6" d="M157.57,156.26a.54.54,0,0,1-.36-.14l-19.3-19.31a.5.5,0,0,1,0-.7.5.5,0,0,1,.71,0l19.3,19.3a.51.51,0,0,1,0,.71A.54.54,0,0,1,157.57,156.26Z"/><path class="cls-6" d="M242.26,254.92,168.36,244a15.29,15.29,0,0,1-12.89-17.37L182,47.44a15.3,15.3,0,0,1,17.37-12.89l73.9,10.93a15.3,15.3,0,0,1,12.89,17.37L259.63,242A15.29,15.29,0,0,1,242.26,254.92Z"/><rect class="cls-8" x="135.58" y="96.29" width="171.05" height="92.75" transform="translate(47.62 340.52) rotate(-81.59)"/><rect class="cls-5" x="226.26" y="18.04" width="12.84" height="92.75" transform="translate(134.92 285.16) rotate(-81.59)"/><path class="cls-8" d="M207,243.77a6.65,6.65,0,0,1-.88-.07,6,6,0,1,1,6.8-5A6,6,0,0,1,207,243.77Zm0-11a4.94,4.94,0,0,0-3,1,5,5,0,0,0-1,7,5,5,0,1,0,4.74-7.91A6.27,6.27,0,0,0,207,232.79Z"/><path class="cls-8" d="M220.3,49.66a1.32,1.32,0,0,1-.28,0,1.89,1.89,0,0,1-1.27-.76,1.92,1.92,0,0,1,.4-2.69,1.88,1.88,0,0,1,1.43-.36,1.92,1.92,0,0,1,1.26.76A1.88,1.88,0,0,1,222.2,48h0A1.92,1.92,0,0,1,220.3,49.66Zm0-2.85a.91.91,0,0,0-.55.18,1,1,0,0,0-.37.61.94.94,0,0,0,.18.69.86.86,0,0,0,.6.36.92.92,0,0,0,1.05-.78h0a.87.87,0,0,0-.17-.68.93.93,0,0,0-.61-.37Z"/><path class="cls-8" d="M250.1,54.07l-.28,0-23.41-3.46a2,2,0,0,1-1.27-.76,1.91,1.91,0,0,1-.35-1.43,1.87,1.87,0,0,1,.75-1.26,1.9,1.9,0,0,1,1.43-.36l23.41,3.46a1.84,1.84,0,0,1,1.26.76,1.88,1.88,0,0,1,.36,1.43,1.91,1.91,0,0,1-.75,1.26A1.93,1.93,0,0,1,250.1,54.07Zm-23.41-6.31a.93.93,0,0,0-.92.79.95.95,0,0,0,.79,1.05L250,53.06a.92.92,0,0,0,1-.78.9.9,0,0,0-.17-.69.88.88,0,0,0-.61-.36l-23.4-3.46Z"/><path class="cls-2" d="M254.85,182.29l-64-9.47a1.89,1.89,0,0,0-2.16,1.61L186.22,191a1.92,1.92,0,0,0,1.61,2.17l54.72,8.09,5.63,7.78,1-6.8,2.64.39a1.91,1.91,0,0,0,2.17-1.6l2.45-16.61A1.89,1.89,0,0,0,254.85,182.29Z"/><path class="cls-6" d="M242.55,201.79h-.08l-54.71-8.09a2.4,2.4,0,0,1-2-2.73l2.45-16.61a2.41,2.41,0,0,1,2.74-2l14.79,2.19a.5.5,0,0,1-.15,1l-14.79-2.19a1.42,1.42,0,0,0-1.6,1.19l-2.45,16.6a1.35,1.35,0,0,0,.26,1.05,1.37,1.37,0,0,0,.92.55l54.72,8.1a.5.5,0,0,1-.07,1Z"/><path class="cls-2" d="M265,113.48,201,104a1.91,1.91,0,0,0-2.17,1.61l-2.45,16.6A1.91,1.91,0,0,0,198,124.4l54.71,8.09,5.64,7.77,1-6.79,2.64.39a1.89,1.89,0,0,0,2.16-1.61l2.46-16.6A1.92,1.92,0,0,0,265,113.48Z"/><path class="cls-6" d="M258.68,141.55l-6.24-8.6-54.51-8.06a2.41,2.41,0,0,1-2-2.73.5.5,0,0,1,1,.14,1.45,1.45,0,0,0,.26,1,1.41,1.41,0,0,0,.93.55L253,132l5,6.95.89-6.08,3.14.47a1.4,1.4,0,0,0,1.6-1.19l1.63-11a.51.51,0,0,1,.57-.43.51.51,0,0,1,.42.57l-1.63,11.05a2.42,2.42,0,0,1-2.74,2l-2.14-.32Z"/><path class="cls-5" d="M184,134.88l64,9.47a1.91,1.91,0,0,1,1.61,2.16l-2.46,16.61a1.89,1.89,0,0,1-2.16,1.6l-54.72-8.09-7.65,5.81,1-6.79-2.64-.39a1.91,1.91,0,0,1-1.61-2.17l2.45-16.6A1.91,1.91,0,0,1,184,134.88Z"/><path class="cls-6" d="M245.28,165.24a2.17,2.17,0,0,1-.36,0l-34.15-5.05a.5.5,0,0,1-.42-.57.49.49,0,0,1,.56-.42l34.16,5a1.4,1.4,0,0,0,1.6-1.19l2.45-16.6a1.4,1.4,0,0,0-1.18-1.6.51.51,0,0,1-.42-.57.5.5,0,0,1,.56-.42,2.4,2.4,0,0,1,2,2.73l-2.45,16.61a2.4,2.4,0,0,1-2.38,2.05Z"/><rect class="cls-7" x="201.87" y="173.11" width="15.74" height="92.75" transform="translate(-38.07 394.86) rotate(-81.59)"/><path class="cls-2" d="M178.56,214.74a5.58,5.58,0,1,1-4.7-6.34A5.58,5.58,0,0,1,178.56,214.74Z"/><path class="cls-9" d="M246.23,229.86a5.84,5.84,0,0,1-.73-.05L186,221a4.91,4.91,0,0,1-3.27-2,5,5,0,0,1,4.72-7.88L247,220a5,5,0,0,1-.72,9.9Zm-.59-1a4,4,0,1,0,1.17-7.87l-59.46-8.79a4,4,0,0,0-3.78,6.3,3.93,3.93,0,0,0,2.61,1.56Z"/><path class="cls-7" d="M193.45,60.41a1.33,1.33,0,0,1-.28,0,2,2,0,0,1-1.65-2.22,2,2,0,0,1,2.22-1.65,2,2,0,0,1,1.65,2.22h0A2,2,0,0,1,193.45,60.41Zm0-2.92a.93.93,0,0,0-.57.19,1,1,0,0,0-.38.63,1,1,0,0,0,.18.71,1,1,0,0,0,.63.38,1,1,0,0,0,1.09-.81h0a1,1,0,0,0-.81-1.09Z"/><path class="cls-7" d="M198.87,61.21a1.36,1.36,0,0,1-.29,0,2,2,0,1,1,.57-3.87,2,2,0,0,1,1.29.77,1.93,1.93,0,0,1,.36,1.45,2,2,0,0,1-1.93,1.68Zm0-2.92a1,1,0,0,0-.94.82.92.92,0,0,0,.18.71,1,1,0,0,0,.62.38,1,1,0,0,0,.72-.18,1,1,0,0,0,.37-.63h0a.9.9,0,0,0-.18-.71.93.93,0,0,0-.63-.38Z"/><path class="cls-7" d="M204.17,62l-.28,0a2,2,0,1,1,.28,0Zm0-2.92a1,1,0,0,0-.57.19,1,1,0,0,0-.37.63.93.93,0,0,0,.17.71,1,1,0,0,0,1.72-.43.94.94,0,0,0-.81-1.08Z"/><path class="cls-6" d="M278.86,78.23h-.07L193.86,65.66a.5.5,0,0,1,.15-1l84.92,12.57a.49.49,0,0,1,.42.56A.5.5,0,0,1,278.86,78.23Z"/><path class="cls-7" d="M243.46,186.11h-.08l-45.31-6.7a.49.49,0,0,1-.42-.56.5.5,0,0,1,.56-.43l45.32,6.71a.5.5,0,0,1,.42.56A.5.5,0,0,1,243.46,186.11Z"/><path class="cls-7" d="M216.63,187.67h-.08l-19.28-2.85a.5.5,0,0,1,.14-1l19.29,2.85a.51.51,0,0,1,.42.57A.5.5,0,0,1,216.63,187.67Z"/><path class="cls-7" d="M210.13,191.88h-.07l-13.54-2a.5.5,0,0,1,.15-1l13.53,2a.5.5,0,0,1-.07,1Z"/><path class="cls-7" d="M242.66,191.52h-.08l-19.93-2.95a.5.5,0,0,1,.15-1l19.93,3a.5.5,0,0,1-.07,1Z"/><path class="cls-7" d="M237.92,148.51h-.07l-45.32-6.7a.51.51,0,0,1-.42-.57.49.49,0,0,1,.57-.42l45.32,6.7a.5.5,0,0,1-.08,1Z"/><path class="cls-7" d="M211.1,150.06H211l-19.29-2.86a.5.5,0,1,1,.15-1l19.29,2.85a.5.5,0,0,1-.07,1Z"/><path class="cls-7" d="M231.14,158.2h-.08L192,152.12a.5.5,0,1,1,.15-1l39.11,6.06a.51.51,0,0,1,.42.57A.5.5,0,0,1,231.14,158.2Z"/><path class="cls-7" d="M237.12,153.91h-.07L217.12,151a.49.49,0,0,1-.42-.57.5.5,0,0,1,.56-.42l19.94,2.95a.5.5,0,0,1,.42.57A.51.51,0,0,1,237.12,153.91Z"/><path class="cls-5" d="M192.23,72.46l64,9.47a1.91,1.91,0,0,1,1.61,2.16l-2.46,16.61a1.89,1.89,0,0,1-2.16,1.6L198.5,94.21,190.85,100l1-6.79-2.65-.39a1.91,1.91,0,0,1-1.6-2.17l2.45-16.6A1.91,1.91,0,0,1,192.23,72.46Z"/><path class="cls-6" d="M255.38,101.2h-.07a.5.5,0,0,1-.42-.57L257.34,84a1.37,1.37,0,0,0-.26-1,1.41,1.41,0,0,0-.92-.55l-39.74-5.88A.5.5,0,0,1,216,76a.51.51,0,0,1,.57-.42l39.73,5.88a2.35,2.35,0,0,1,1.58.95,2.32,2.32,0,0,1,.45,1.78l-2.45,16.61A.51.51,0,0,1,255.38,101.2Z"/><path class="cls-7" d="M246.14,86.09h-.07l-45.32-6.7a.5.5,0,1,1,.15-1l45.31,6.7a.5.5,0,0,1-.07,1Z"/><path class="cls-7" d="M219.31,87.64h-.07L200,84.79a.51.51,0,0,1-.42-.57.5.5,0,0,1,.57-.42l19.29,2.85a.5.5,0,0,1,.42.57A.51.51,0,0,1,219.31,87.64Z"/><path class="cls-7" d="M239.35,95.78h-.07l-39.11-6.06a.52.52,0,0,1-.42-.58.5.5,0,0,1,.57-.41l39.11,6.06a.52.52,0,0,1,.42.58A.51.51,0,0,1,239.35,95.78Z"/><path class="cls-7" d="M245.34,91.49h-.07l-19.93-2.95a.5.5,0,1,1,.14-1l19.93,3a.5.5,0,0,1,.43.57A.51.51,0,0,1,245.34,91.49Z"/><path class="cls-7" d="M253.67,118h-.07l-45.32-6.7a.51.51,0,0,1-.42-.57.5.5,0,0,1,.57-.42l45.31,6.7a.5.5,0,0,1-.07,1Z"/><path class="cls-7" d="M226.84,119.5h-.07l-19.29-2.86a.5.5,0,0,1-.42-.56.51.51,0,0,1,.57-.43l19.29,2.86a.5.5,0,0,1,.42.56A.51.51,0,0,1,226.84,119.5Z"/><path class="cls-7" d="M220.35,123.71h-.08l-13.53-2a.5.5,0,0,1-.43-.56.51.51,0,0,1,.57-.43l13.54,2a.5.5,0,0,1,.42.56A.5.5,0,0,1,220.35,123.71Z"/><path class="cls-7" d="M252.87,123.35h-.07l-19.93-2.95a.5.5,0,1,1,.14-1l19.93,3a.5.5,0,0,1,.43.56A.51.51,0,0,1,252.87,123.35Z"/><path class="cls-10" d="M161.53,239.55,58.87,251.12a3.59,3.59,0,0,1-4-3.17l-7.41-65.76a.2.2,0,0,1,.17-.21l109.39-12.33a.19.19,0,0,1,.21.17l7.42,65.79A3.56,3.56,0,0,1,161.53,239.55Z"/><path class="cls-6" d="M58.47,251.64A4.1,4.1,0,0,1,54.4,248L47,182.25a.69.69,0,0,1,.6-.77L157,169.16a.68.68,0,0,1,.76.6l7.41,65.79a4.07,4.07,0,0,1-3.58,4.5L58.93,251.62A3.54,3.54,0,0,1,58.47,251.64ZM48,182.44,55.4,247.9a3.08,3.08,0,0,0,3.42,2.72l102.65-11.56.06.49-.06-.49a3.07,3.07,0,0,0,2.71-3.39l-7.38-65.48Z"/><path class="cls-11" d="M156.72,239.55,63.89,251.12c-2,.22,28.77-39.2,28.55-41.17L47.49,182.19a.2.2,0,0,1,.17-.21l109.39-12.33a.19.19,0,0,1,.21.17l-37.42,37C120.06,208.82,158.68,239.33,156.72,239.55Z"/><path class="cls-10" d="M47.66,182,92.9,137.24A8.22,8.22,0,0,1,103,136.09l53.77,33.39a.11.11,0,0,1-.05.21L47.47,182"/><path class="cls-6" d="M47.53,182.5l-.09-.74-.13-.14.11-.1v0h0l45.12-44.62a8.69,8.69,0,0,1,10.72-1.22L157,169.06a.62.62,0,0,1-.25,1.13Zm51.15-47.15a7.7,7.7,0,0,0-5.43,2.25L49,181.32l106.53-12-52.83-32.81A7.68,7.68,0,0,0,98.68,135.35Z"/><path class="cls-11" d="M47.66,182,92.9,137.24A8.22,8.22,0,0,1,103,136.09l53.77,33.39a.11.11,0,0,1-.05.21L47.47,182"/><path class="cls-10" d="M97.9,203.05l-34,47.31,92.83-10.45L113,201.34A10.27,10.27,0,0,0,97.9,203.05Z"/><path class="cls-6" d="M62.83,251l34.66-48.23.41.29-.41-.29A10.77,10.77,0,0,1,113.37,201l44.52,39.31Zm43.41-51.72a7.88,7.88,0,0,0-1.09.07,9.72,9.72,0,0,0-6.84,4L65,249.74l90.58-10.21-42.83-37.81A9.81,9.81,0,0,0,106.24,199.27Z"/><path class="cls-7" d="M53.18,149.57l71.5-8.06c4.69-.53,8.86,2.34,9.32,6.41l4.59,40.79L118.71,207l-26.27,3-26-16.24L62,154.2Z"/><path class="cls-6" d="M92.32,210.46,66,194l-4.45-39.49-6.8-5.63L124.63,141a9.67,9.67,0,0,1,6.58,1.56,7.43,7.43,0,0,1,3.29,5.29l4.62,41-20.19,18.55ZM67,193.42l25.6,16,25.94-2.92,19.58-18L133.5,148a6.38,6.38,0,0,0-2.86-4.57,8.63,8.63,0,0,0-5.9-1.4l-69.88,7.87,7.64,4Z"/><path class="cls-11" d="M97.9,199l-34,51.39,92.83-10.45L113,197.26A10.27,10.27,0,0,0,97.9,199Z"/><path class="cls-10" d="M97.9,203.05l-34,47.31,92.83-10.45L113,201.34A10.27,10.27,0,0,0,97.9,203.05Z"/><path class="cls-6" d="M62.83,251l34.66-48.23.41.29-.41-.29A10.77,10.77,0,0,1,113.37,201l44.52,39.31Zm43.41-51.72a7.88,7.88,0,0,0-1.09.07,9.72,9.72,0,0,0-6.84,4L65,249.74l90.58-10.21-42.83-37.81A9.81,9.81,0,0,0,106.24,199.27Z"/><path class="cls-12" d="M101.2,213.52l-25,34.75,68.17-7.68-32.08-28.32A7.54,7.54,0,0,0,101.2,213.52Z"/><line class="cls-10" x1="47.7" y1="182.07" x2="92.44" y2="209.95"/><rect class="cls-6" x="69.57" y="169.65" width="1" height="52.71" transform="translate(-133.34 151.81) rotate(-58.07)"/><line class="cls-10" x1="157.25" y1="169.73" x2="119.84" y2="206.86"/><rect class="cls-6" x="112.19" y="187.79" width="52.71" height="1" transform="translate(-92.44 152.32) rotate(-44.8)"/><path class="cls-8" d="M64,172.41l-12.48,1.4-2-17.8a6,6,0,0,1,5.28-6.63l.57-.06A6,6,0,0,1,62,154.61Z"/><path class="cls-6" d="M51.09,174.37,49,156.07a6.49,6.49,0,0,1,5.73-7.18l.56-.07a6.49,6.49,0,0,1,7.18,5.73l2.06,18.3Zm5-24.59a4.21,4.21,0,0,0-.62,0l-.57.06A5.51,5.51,0,0,0,50,156L52,173.26,63.46,172l-2-17.31a5.49,5.49,0,0,0-5.45-4.88Z"/><path class="cls-6" d="M72.48,163.14a.5.5,0,0,1,0-1l51.8-5.83a.49.49,0,0,1,.56.44.5.5,0,0,1-.44.55l-51.81,5.84Z"/><path class="cls-6" d="M74.47,180.75a.51.51,0,0,1-.5-.44.51.51,0,0,1,.44-.56l51.81-5.83a.49.49,0,0,1,.55.44.5.5,0,0,1-.44.55l-51.8,5.84Z"/><path class="cls-6" d="M73.46,171.84a.5.5,0,0,1,0-1l22.39-2.53a.51.51,0,0,1,.55.45.5.5,0,0,1-.44.55l-22.39,2.52Z"/><path class="cls-6" d="M101.71,168.66a.5.5,0,0,1,0-1L125.21,165a.51.51,0,0,1,.56.44.5.5,0,0,1-.44.55l-23.56,2.66Z"/><path class="cls-6" d="M75.59,190.74a.5.5,0,0,1,0-1l22.38-2.52a.5.5,0,1,1,.12,1l-22.39,2.53Z"/></g></svg>