<svg xmlns="http://www.w3.org/2000/svg" viewBox="0 0 732 311"><defs><style>.cls-1,.cls-2,.cls-3{fill:none;}.cls-2,.cls-3{stroke:#adadad;stroke-miterlimit:10;stroke-width:5px;}.cls-3{stroke-dasharray:12.57 12.57;}.cls-4{font-size:88.12px;}.cls-22,.cls-33,.cls-4{fill:#424aa0;}.cls-33,.cls-4{font-family:Gilroy-Heavy, Gilroy-Heavy;}.cls-5{letter-spacing:-0.02em;}.cls-6{letter-spacing:-0.01em;}.cls-7{font-size:65px;}.cls-10,.cls-7{fill:#adadad;font-family:Gilroy-Bold, Gilroy-Bold;}.cls-8{letter-spacing:-0.02em;}.cls-9{letter-spacing:-0.01em;}.cls-10{font-size:40px;}.cls-11{letter-spacing:-0.01em;}.cls-12{letter-spacing:0em;}.cls-13{letter-spacing:-0.02em;}.cls-14{letter-spacing:0em;}.cls-15{letter-spacing:-0.02em;}.cls-16{letter-spacing:-0.01em;}.cls-17{fill:#ececec;}.cls-18{fill:#f5f5f5;}.cls-19{fill:#e1e1e1;}.cls-20{fill:#fff;}.cls-21{fill:#1a2e35;}.cls-23{opacity:0.3;}.cls-24{fill:#fafafa;}.cls-25{fill:#ff735d;}.cls-26{fill:#ffd15f;}.cls-27{fill:#22af5b;}.cls-28{fill:#ffbf9d;}.cls-29{fill:#375a64;}.cls-30{fill:#ff9a6c;}.cls-31{opacity:0.6;}.cls-32{opacity:0.5;}.cls-33{font-size:14.93px;}.cls-34{letter-spacing:-0.01em;}.cls-35{letter-spacing:-0.01em;}.cls-36{letter-spacing:-0.02em;}.cls-37{letter-spacing:-0.02em;}</style></defs><title>documentos</title><g id="Line"><line class="cls-1" x1="30" y1="236" x2="519" y2="234"/><line class="cls-2" x1="21" y1="240.5" x2="723.5" y2="240.5"/><line class="cls-2" x1="240.5" y1="26" x2="240.5" y2="32"/><line class="cls-3" x1="240.5" y1="44.57" x2="240.5" y2="214.22"/><line class="cls-2" x1="240.5" y1="220.5" x2="240.5" y2="226.5"/><text class="cls-4" transform="translate(251.09 109.97)"><tspan class="cls-5">C</tspan><tspan x="61.51" y="0">ENT</tspan><tspan class="cls-6" x="217.47" y="0">R</tspan><tspan x="271.67" y="0">O DE</tspan></text><text class="cls-7" transform="translate(333.67 190.2)">Documen<tspan class="cls-8" x="287.95" y="0">t</tspan><tspan class="cls-9" x="311.48" y="0">o</tspan><tspan x="349.37" y="0">s</tspan></text><text class="cls-10" transform="translate(20.67 286.2)"><tspan class="cls-11">C</tspan><tspan x="28.84" y="0">on</tspan><tspan class="cls-12" x="75.68" y="0">s</tspan><tspan x="94.08" y="0">ul</tspan><tspan class="cls-13" x="127.04" y="0">t</tspan><tspan x="141.52" y="0">a t</tspan><tspan class="cls-14" x="191.96" y="0">u</tspan><tspan x="214.88" y="0">s documen</tspan><tspan class="cls-15" x="417.2" y="0">t</tspan><tspan class="cls-16" x="431.68" y="0">o</tspan><tspan x="455" y="0">s en lín</tspan><tspan class="cls-14" x="582.76" y="0">e</tspan><tspan x="605.84" y="0">a</tspan></text><path class="cls-17" d="M184,8.79l-2.7,28.34a1.82,1.82,0,0,0,1.44,2L228.13,46a1.83,1.83,0,0,0,2-1.64l3.31-21.89A1.85,1.85,0,0,0,232,20.34l-27.95-4a1.66,1.66,0,0,1-1.12-.73l-4.05-6.06a1.62,1.62,0,0,0-1.11-.73L186,7A1.84,1.84,0,0,0,184,8.79Z"/><rect class="cls-18" x="181.84" y="13.35" width="50.16" height="33.41" transform="translate(6.81 -30.59) rotate(8.59)"/><path class="cls-17" d="M180.22,12.15l-1.42,35a1.16,1.16,0,0,0,.93,1.23l48.33,7.31a1.17,1.17,0,0,0,1.27-1L237,20.68a1.2,1.2,0,0,0-.9-1.49L181.52,11A1.19,1.19,0,0,0,180.22,12.15Z"/><path class="cls-17" d="M104.13,185.62,98,205.31a1.35,1.35,0,0,0,.77,1.68l32.72,12.33a1.36,1.36,0,0,0,1.72-.84l5.65-15a1.35,1.35,0,0,0-.74-1.77l-20.18-7.44a1.29,1.29,0,0,1-.73-.7l-2.12-5a1.27,1.27,0,0,0-.72-.7l-8.48-3.2A1.37,1.37,0,0,0,104.13,185.62Z"/><rect class="cls-18" x="98.95" y="192.39" width="38.21" height="24.19" transform="translate(79.68 -28.49) rotate(20.64)"/><path class="cls-17" d="M100.84,187.39,94.67,212a.86.86,0,0,0,.51,1L130,226.19a.86.86,0,0,0,1.08-.48l10.65-22.94a.87.87,0,0,0-.45-1.2L102,186.75A.87.87,0,0,0,100.84,187.39Z"/><path class="cls-17" d="M15.21,20.87l1.38,22.31a1.51,1.51,0,0,0,1.5,1.41H58.25a1.51,1.51,0,0,0,1.51-1.5V25.72a1.5,1.5,0,0,0-1.52-1.51l-24.7.16a1.5,1.5,0,0,1-1.06-.44l-4.3-4.22a1.49,1.49,0,0,0-1.05-.44H16.72A1.52,1.52,0,0,0,15.21,20.87Z"/><rect class="cls-18" x="15.88" y="21.57" width="43.88" height="26.22"/><path class="cls-17" d="M12.39,23.93l3.35,27.34a1,1,0,0,0,1,.85H59.46a1,1,0,0,0,1-.9l2.15-27.34a1,1,0,0,0-1-1H13.35A1,1,0,0,0,12.39,23.93Z"/><path class="cls-17" d="M19.89,147.74s-3.25-.23-2.95,7.07A85,85,0,0,0,18,166s-.09,1.62-1.35,1.3-3.61-1.89-4.77-.71-.78,3.09.82,5.3,4.94,7.17,5.24,7.62.41,1.26-.48,1.19-6.89-2.12-7.68.79,4.68,8.31,5.26,8.92.62,1,.38,1.34-2.18-.5-3.91-1-3.83-.8-4.15.92,2.1,6.72,11.12,12l4.35,2.17,4.11-2.62c8.45-6.15,10.35-11.38,9.86-13.05s-2.54-1.18-4.21-.5-3.53,1.74-3.8,1.4-.28-.72.24-1.38,5.43-6.59,4.35-9.4-6.84-.18-7.72,0-.84-.66-.59-1.13,3.07-5.75,4.44-8.1,1.62-4.27.29-5.36-3.46.75-4.68,1.19-1.47-1.16-1.47-1.16a85.07,85.07,0,0,0-.08-11.24c-.43-7.29-3.72-6.7-3.72-6.7"/><path class="cls-19" d="M20.15,154.28s0,.05,0,.15,0,.26,0,.45c0,.4.07,1,.12,1.72.1,1.5.23,3.67.37,6.34.3,5.36.65,12.76,1,20.94s.68,15.59.95,20.94c.14,2.68.25,4.84.32,6.35,0,.74.07,1.32.09,1.72l0,.45v.15s0-.05,0-.15,0-.25,0-.45c0-.4-.07-1-.12-1.72-.1-1.5-.23-3.66-.38-6.34-.29-5.36-.64-12.76-1-20.94s-.69-15.58-1-20.94c-.14-2.67-.25-4.84-.33-6.34,0-.75-.06-1.33-.08-1.73l0-.45Z"/><path class="cls-19" d="M15.07,168.91l.27.23.69.66c.57.57,1.34,1.37,2.17,2.28l2.13,2.32.64.7c.16.17.24.26.23.27s-.1-.07-.27-.22-.4-.38-.69-.67c-.57-.57-1.33-1.39-2.16-2.29l-2.14-2.31-.65-.7C15.14,169,15.06,168.92,15.07,168.91Z"/><path class="cls-19" d="M21.63,175.23s1.56-1.7,3.55-3.72,3.63-3.63,3.66-3.59-1.55,1.69-3.54,3.71S21.66,175.26,21.63,175.23Z"/><path class="cls-19" d="M21.61,187.81a1.81,1.81,0,0,1,.31-.19l.85-.48c.71-.4,1.7-1,2.77-1.62s2-1.28,2.7-1.73l.81-.54a1.37,1.37,0,0,1,.31-.19,1.54,1.54,0,0,1-.27.24l-.78.58c-.67.49-1.61,1.13-2.69,1.79s-2.07,1.2-2.8,1.58l-.87.43A1.59,1.59,0,0,1,21.61,187.81Z"/><path class="cls-19" d="M14.42,183.41a1.43,1.43,0,0,1,.3.14l.79.44c.66.37,1.57.9,2.56,1.49s1.9,1.14,2.54,1.54c.33.2.59.37.76.49s.28.18.27.19a1.21,1.21,0,0,1-.3-.14l-.79-.44c-.66-.37-1.57-.9-2.56-1.49s-1.9-1.14-2.54-1.54c-.33-.2-.59-.37-.76-.49S14.41,183.42,14.42,183.41Z"/><path class="cls-19" d="M13,194.52a1.63,1.63,0,0,1,.38.18l1,.56c.85.47,2,1.14,3.31,1.89s2.44,1.43,3.28,1.94l1,.6a2.26,2.26,0,0,1,.35.24,1.63,1.63,0,0,1-.38-.18l-1-.56L17.6,197.3l-3.27-1.94-1-.6Z"/><path class="cls-19" d="M22.11,199.74a2.63,2.63,0,0,1,.38-.25l1.06-.65c.89-.54,2.12-1.29,3.45-2.16s2.52-1.69,3.38-2.28l1-.71.38-.24a1.92,1.92,0,0,1-.34.29c-.23.19-.57.44-1,.75-.83.62-2,1.46-3.35,2.33s-2.58,1.61-3.48,2.12c-.46.26-.83.47-1.09.6A2.13,2.13,0,0,1,22.11,199.74Z"/><polygon class="cls-19" points="28.64 207.23 16.63 207.23 20.55 236.92 24.72 236.92 28.64 207.23"/><path class="cls-18" d="M17.25,210.88a.28.28,0,0,0,.06.11,1.08,1.08,0,0,0,.29.21,1.47,1.47,0,0,0,1.27-.16,10.29,10.29,0,0,1,1.56-1,3.43,3.43,0,0,1,2.21.05,9.84,9.84,0,0,1,2.06,1,13.48,13.48,0,0,0,1.67.9,4.62,4.62,0,0,0,1.23.36,1.55,1.55,0,0,0,.35,0c.08,0,.12,0,.12,0a6.21,6.21,0,0,1-1.64-.49,18.85,18.85,0,0,1-1.64-.93,9.25,9.25,0,0,0-2.09-1,3.52,3.52,0,0,0-2.33,0,2.85,2.85,0,0,0-.88.54,8.59,8.59,0,0,1-.69.53,1.4,1.4,0,0,1-1.17.2A1,1,0,0,1,17.25,210.88Z"/><path class="cls-18" d="M17.69,216.35s.09-.12.28-.32a2.74,2.74,0,0,1,1-.61,4.42,4.42,0,0,1,1.67-.25,15.36,15.36,0,0,1,2.09.29,7.09,7.09,0,0,0,2.14.08,5.73,5.73,0,0,0,1.69-.48,4.94,4.94,0,0,0,1-.6,1.34,1.34,0,0,0,.32-.29,9.84,9.84,0,0,1-1.39.77,6.3,6.3,0,0,1-1.65.42,7.15,7.15,0,0,1-2.09-.1,15.24,15.24,0,0,0-2.11-.27,4.43,4.43,0,0,0-1.73.3,2.66,2.66,0,0,0-1,.69l-.18.27C17.7,216.31,17.68,216.35,17.69,216.35Z"/><path class="cls-18" d="M27.28,219.28a1.07,1.07,0,0,0-.33-.18,3.81,3.81,0,0,0-1-.21,6.16,6.16,0,0,0-1.5.09c-.56.09-1.16.24-1.79.38a7.73,7.73,0,0,1-1.79.2,3.87,3.87,0,0,1-1.42-.31,3.23,3.23,0,0,1-1.08-.8,1,1,0,0,0,.2.31,2.67,2.67,0,0,0,.82.62,3.87,3.87,0,0,0,1.47.36,7.52,7.52,0,0,0,1.84-.19c.63-.14,1.23-.3,1.78-.4a6.6,6.6,0,0,1,1.46-.12A5.16,5.16,0,0,1,27.28,219.28Z"/><path class="cls-18" d="M18.75,223.39a2,2,0,0,1,1.17-.12,5.9,5.9,0,0,1,1.22.46,4.64,4.64,0,0,0,4.45-.23,4.84,4.84,0,0,0,.72-.55c.15-.16.22-.24.21-.25a10.75,10.75,0,0,1-1,.68,4.91,4.91,0,0,1-2.79.59c-1.14-.06-2-.74-2.8-.83a1.77,1.77,0,0,0-.91.08A.67.67,0,0,0,18.75,223.39Z"/><path class="cls-18" d="M19.42,229.09a2.34,2.34,0,0,0,1-.2c.6-.2,1.35-.66,2.23-1a3.54,3.54,0,0,1,1.27-.27,2.27,2.27,0,0,1,1,.24,2.15,2.15,0,0,1,.74.64.58.58,0,0,0-.11-.26,1.73,1.73,0,0,0-.57-.51,2.33,2.33,0,0,0-1.09-.29,3.45,3.45,0,0,0-1.34.27c-.91.36-1.63.83-2.21,1.06S19.41,229.06,19.42,229.09Z"/><path class="cls-18" d="M20,231.74a2.89,2.89,0,0,0,.76.25,14.55,14.55,0,0,0,1.9.32,13.21,13.21,0,0,0,1.93.05,3,3,0,0,0,.79-.09c0-.06-1.22,0-2.7-.16S20,231.68,20,231.74Z"/><rect class="cls-20" x="43.06" y="31.04" width="170.34" height="149.8"/><path class="cls-21" d="M213.4,180.84c0-1,0-59.64-.11-149.8l.11.11-170.32,0h0l.13-.13c0,54.44,0,105.7,0,149.8l-.12-.12,170.34.12L43.06,181h-.12v-.12c0-44.1,0-95.36,0-149.8V30.9h.15l170.32,0h.11V31C213.45,121.2,213.4,179.89,213.4,180.84Z"/><path class="cls-22" d="M79.66,69.35V96.22h32.65V69.35A2.31,2.31,0,0,0,110,67H82A2.31,2.31,0,0,0,79.66,69.35Z"/><path class="cls-22" d="M73.1,115.33l7.29-20.07,31.92,1-4.76,18.29a1.62,1.62,0,0,1-1.6,1.22l-8.26-.18-1.36,1.93a1.84,1.84,0,0,1-1.57.77l-20-.84A1.8,1.8,0,0,1,73.1,115.33Z"/><polygon class="cls-18" points="81.41 71.76 81.41 74.51 81.41 92.79 110.11 94.37 109.98 71.76 81.41 71.76"/><path class="cls-21" d="M81.41,71.76h.51l1.54,0,5.84,0L110,71.64h.12v.12c0,6.55.09,14,.14,21.9v.85h-.14L81.4,92.89h-.1v-.1c0-6.38,0-11.63,0-15.31,0-1.82,0-3.25,0-4.24l0-1.11c0-.25,0-.37,0-.37s0,.14,0,.39l0,1.11c0,1,0,2.41,0,4.22,0,3.68,0,8.93,0,15.31l-.1-.11,28.71,1.55-.15.14v-.71c0-7.88-.08-15.34-.11-21.9l.12.12-20.6-.06-5.87,0-1.56,0h-.54Z"/><path class="cls-17" d="M82.91,77c0-.7,0-3.71,0-3.71,8,0,17,0,25,0,.23,4,.27,9.33.5,13.3"/><path class="cls-19" d="M108.44,86.61a1.08,1.08,0,0,1,0-.25l-.05-.73c0-.64-.1-1.57-.15-2.75-.11-2.35-.17-5.68-.38-9.57l.12.12h-7.71c-7.2,0-13.55,0-17.32-.07L83,73.3c0,1.15,0,2.07,0,2.73l0,.73c0,.16,0,.25,0,.25a.81.81,0,0,1,0-.26l0-.72c0-.66,0-1.58,0-2.73v-.08h.08c3.77,0,10.12,0,17.32,0h7.83v.12c.19,3.9.22,7.23.29,9.58,0,1.15,0,2.08.07,2.74l0,.74A1,1,0,0,1,108.44,86.61Z"/><polygon class="cls-20" points="77.02 77.1 82.94 94.37 110.11 94.37 106.05 77 77.02 77.1"/><path class="cls-21" d="M77,77.1h2.11l6-.06,21-.13h.1l0,.1,3.9,16.65.17.71,0,.16h-.17l-27.17,0h-.08l0-.07c-1.79-5.28-3.25-9.62-4.27-12.64L77.41,78.3l-.3-.9L77,77.1l.12.32.32.91c.29.81.7,2,1.22,3.47,1,3,2.54,7.29,4.36,12.53l-.1-.07,27.17,0-.13.17-.17-.71c-1.37-5.89-2.69-11.53-3.88-16.66l.12.1H77Z"/><g class="cls-23"><path d="M110.07,94.73a.71.71,0,0,0-.67,0,107,107,0,0,0-30.07,13.09l-3.81,4.41a2.93,2.93,0,0,0,2.41.95l12.8.84c3,.19,6,.39,8.94.38,1.77,0,3.71-.15,5-1.37a7,7,0,0,0,1.57-2.67,66.46,66.46,0,0,0,4-14.93A.7.7,0,0,0,110.07,94.73Z"/></g><polygon class="cls-18" points="82.94 95.73 75.35 112.15 103.86 112.72 110.11 94.37 82.94 95.73"/><path class="cls-21" d="M82.94,95.73h.12l.38,0,1.47-.09,5.56-.32,19.63-1h.18l-.06.17c-1.88,5.55-4,11.78-6.24,18.36l0,.09h-.1l-28.51-.6h-.16l.07-.15,5.59-12,1.55-3.27L82.8,96c.09-.19.14-.28.14-.28s0,.11-.13.31l-.38.87-1.51,3.31c-1.31,2.86-3.18,7-5.48,12l-.09-.15,28.5.54h0l-.13.09L110,94.33l.12.16-19.58.93L85,95.66l-1.49.06h-.52Z"/><polygon class="cls-24" points="82.81 94.37 74.58 103.44 102.9 103.65 109.98 94.37 82.81 94.37"/><path class="cls-21" d="M82.81,94.37s0,0,.13,0h.38l1.5,0,5.62,0L110,94.24h.26l-.16.2L103,103.73l0,.06H102l-27.46-.25h-.21l.14-.16,6.08-6.62L82.23,95l.43-.46c.1-.1.15-.15.15-.14s0,.06-.14.17l-.42.48-1.62,1.83-6,6.65-.07-.16,27.46.17h.86l-.11,0,7.09-9.28.1.2-19.49,0-5.64,0-1.51,0h-.53Z"/><polyline class="cls-18" points="81.92 86.46 79.49 78.88 104.73 78.88 108.27 92.74"/><path class="cls-21" d="M108.27,92.74a1.1,1.1,0,0,1-.09-.26q-.08-.28-.21-.75l-.76-2.84-2.6-10,.12.09H95.28L79.49,79l.09-.13,1.74,5.56.46,1.51.11.4c0,.09,0,.14,0,.14l-.06-.13-.14-.39-.51-1.5c-.43-1.33-1-3.21-1.82-5.53l0-.13h.14l15.79,0h9.55l0,.09c1,4.07,1.89,7.53,2.5,10,.3,1.21.53,2.17.7,2.86.07.32.13.57.17.76A1.14,1.14,0,0,1,108.27,92.74Z"/><path class="cls-20" d="M96.9,85a3.89,3.89,0,0,0-1.28-.8,3.1,3.1,0,0,0-2.73.82c-.76.63-1.37,1.44-2.18,2l8.85.15Z"/><path class="cls-20" d="M101.54,82.38c-.32-.47-1.37-1.06-2.06-.62h0a1.36,1.36,0,0,0-.88,1A1.62,1.62,0,0,0,101.43,84,1.37,1.37,0,0,0,101.54,82.38Z"/><polygon class="cls-24" points="82.81 94.37 74.32 86.46 102.12 86.69 110.11 94.37 82.81 94.37"/><path class="cls-21" d="M82.81,94.37h.53l1.52,0,5.68,0,19.57-.05-.09.22-8-7.68.09,0h-.51l-27.29-.26.06-.16,6.18,5.81,1.68,1.59.43.42c.1.1.15.15.14.16l-.15-.13-.45-.4-1.7-1.55-6.26-5.76-.18-.17h.25l27.29.19h.57l0,0,8,7.68.23.22h-.32l-19.62,0-5.66,0-1.5,0h-.52Z"/><path class="cls-21" d="M99.82,89.5c0,.07-4.08.13-9.11.13s-9.11-.06-9.11-.13,4.08-.13,9.11-.13S99.82,89.43,99.82,89.5Z"/><path class="cls-21" d="M101.84,91.38c0,.07-4.08.13-9.11.13s-9.12-.06-9.12-.13,4.08-.13,9.12-.13S101.84,91.31,101.84,91.38Z"/><path class="cls-21" d="M103.65,93.19c0,.07-4.08.13-9.11.13s-9.11-.06-9.11-.13,4.07-.13,9.11-.13S103.65,93.12,103.65,93.19Z"/><path class="cls-21" d="M101.38,100.45c0,.08-4.21.14-9.41.14s-9.4-.06-9.4-.14,4.21-.13,9.4-.13S101.38,100.38,101.38,100.45Z"/><path class="cls-21" d="M103.52,98.31c0,.08-4.21.14-9.41.14s-9.4-.06-9.4-.14,4.21-.13,9.4-.13S103.52,98.24,103.52,98.31Z"/><path class="cls-21" d="M213.9,46.4c0,.07-37.83.13-84.47.13S45,46.47,45,46.4s37.81-.13,84.47-.13S213.9,46.33,213.9,46.4Z"/><path class="cls-25" d="M54.65,39.39a1.75,1.75,0,1,1-1.75-1.75A1.75,1.75,0,0,1,54.65,39.39Z"/><path class="cls-26" d="M60.39,39.39a1.75,1.75,0,1,1-1.75-1.75A1.75,1.75,0,0,1,60.39,39.39Z"/><path class="cls-27" d="M66.13,39.39a1.75,1.75,0,1,1-1.75-1.75A1.75,1.75,0,0,1,66.13,39.39Z"/><path class="cls-19" d="M205.48,59.62a1.17,1.17,0,0,0,.28,0,1,1,0,0,0,.6-.56,1.52,1.52,0,0,0,.07-.62v-.77c0-.55,0-1.19,0-1.91s0-1.53,0-2.4c0-.22,0-.45,0-.67a.91.91,0,0,0-.28-.57.86.86,0,0,0-.61-.25h-.75l-7,0-40.28,0a.84.84,0,0,0-.84.78v5.78a1,1,0,0,0,.11.62.82.82,0,0,0,.46.38.81.81,0,0,0,.31.05h13.14l18.11,0,12.21,0,3.32,0h1.16l-.3,0h-.86l-3.32,0-12.21,0-18.11,0H157.54a1.12,1.12,0,0,1-.4-.07,1.06,1.06,0,0,1-.6-.5,1.36,1.36,0,0,1-.14-.75V57c0-1,0-1.92,0-2.89,0-.49,0-1,0-1.47a1.12,1.12,0,0,1,1.11-1l40.28,0,7,0h.76a1,1,0,0,1,1,1c0,.24,0,.46,0,.68,0,.87,0,1.68,0,2.4s0,1.36,0,1.91c0,.28,0,.54,0,.77a1.63,1.63,0,0,1-.08.64,1,1,0,0,1-.64.56A.71.71,0,0,1,205.48,59.62Z"/><path class="cls-19" d="M159.64,56.69l.13-.28a1.26,1.26,0,0,0,.83.29c.43,0,.62-.16.62-.38,0-.62-1.52-.23-1.52-1.16,0-.39.3-.72,1-.72a1.53,1.53,0,0,1,.81.22l-.12.29a1.32,1.32,0,0,0-.69-.21c-.43,0-.61.18-.61.4,0,.62,1.52.23,1.52,1.15,0,.39-.31.72-1,.72A1.45,1.45,0,0,1,159.64,56.69Z"/><path class="cls-19" d="M163.75,56.14h-1.54a.64.64,0,0,0,.69.56.73.73,0,0,0,.55-.23l.19.22a1,1,0,0,1-1.77-.66.93.93,0,0,1,.95-1,.92.92,0,0,1,.94,1A.34.34,0,0,1,163.75,56.14Zm-1.54-.24h1.22a.61.61,0,0,0-1.22,0Z"/><path class="cls-19" d="M165.69,55.83V57h-.33v-.25a.69.69,0,0,1-.62.27c-.43,0-.7-.23-.7-.56s.19-.55.76-.55h.55v-.07c0-.29-.17-.46-.51-.46a1,1,0,0,0-.61.2l-.14-.26a1.32,1.32,0,0,1,.79-.24C165.4,55.06,165.69,55.31,165.69,55.83Zm-.34.57v-.27h-.53c-.34,0-.44.14-.44.3s.16.31.42.31A.56.56,0,0,0,165.35,56.4Z"/><path class="cls-19" d="M167.35,55.06v.33h-.08a.57.57,0,0,0-.6.64V57h-.34v-1.9h.33v.32A.73.73,0,0,1,167.35,55.06Z"/><path class="cls-19" d="M167.58,56a1,1,0,0,1,1-1,.83.83,0,0,1,.77.41l-.26.16a.61.61,0,0,0-.52-.27.67.67,0,0,0,0,1.34.61.61,0,0,0,.52-.27l.26.16a.83.83,0,0,1-.77.41A1,1,0,0,1,167.58,56Z"/><path class="cls-19" d="M171.59,55.89V57h-.35v-1c0-.38-.18-.56-.51-.56a.56.56,0,0,0-.6.63v1h-.35V54.32h.35v1a.8.8,0,0,1,.67-.29A.74.74,0,0,1,171.59,55.89Z"/><path class="cls-19" d="M172.06,56.75a.24.24,0,0,1,.25-.24.23.23,0,0,1,.23.24.23.23,0,0,1-.23.25A.24.24,0,0,1,172.06,56.75Z"/><path class="cls-19" d="M172.88,56.75a.24.24,0,0,1,.48,0,.24.24,0,1,1-.48,0Z"/><path class="cls-19" d="M173.69,56.75a.24.24,0,0,1,.25-.24.23.23,0,0,1,.23.24.23.23,0,0,1-.23.25A.24.24,0,0,1,173.69,56.75Z"/><path class="cls-21" d="M69.51,107.31a1.85,1.85,0,0,1-.15-.33c-.09-.22-.22-.54-.37-1-.3-.83-.72-2-1.15-3.58a36.48,36.48,0,0,1-1.38-12.3,27,27,0,0,1,1.4-6.7,22.82,22.82,0,0,1,2.48-5,18.72,18.72,0,0,1,2.38-2.92c.31-.32.58-.54.75-.7a1.55,1.55,0,0,1,.28-.22,2.07,2.07,0,0,1-.24.26c-.16.18-.42.4-.71.73a20.75,20.75,0,0,0-2.3,3,23.23,23.23,0,0,0-2.41,5,27,27,0,0,0-1.36,6.63A37.77,37.77,0,0,0,68,102.39c.4,1.53.78,2.76,1.06,3.6l.32,1C69.48,107.18,69.51,107.3,69.51,107.31Z"/><path class="cls-22" d="M148.59,72.4V99.27h32.65V72.4a2.31,2.31,0,0,0-2.31-2.31h-28A2.31,2.31,0,0,0,148.59,72.4Z"/><g class="cls-23"><path d="M148.59,72.4V99.27h32.65V72.4a2.31,2.31,0,0,0-2.31-2.31h-28A2.31,2.31,0,0,0,148.59,72.4Z"/></g><polyline class="cls-18" points="150.12 84.68 150.34 74.82 178.91 74.82 178.91 80.44"/><path class="cls-21" d="M178.91,80.44s0-.13,0-.38,0-.64,0-1.11c0-1,0-2.39,0-4.13l.08.09-16.4,0-12.17,0,.11-.11c-.09,3-.16,5.41-.21,7.16,0,.84-.05,1.51-.07,2l0,.52c0,.12,0,.18,0,.18s0-.06,0-.18V84c0-.48,0-1.15,0-2,0-1.75.06-4.21.11-7.17v-.1h.11l12.17,0,16.4,0H179v.09c0,1.74,0,3.14,0,4.13l0,1.11A1.88,1.88,0,0,1,178.91,80.44Z"/><rect class="cls-18" x="152.2" y="72.15" width="24.97" height="2.67"/><path class="cls-21" d="M152.2,72.15h.48l1.41,0,5.28,0,17.79,0h.14v2.8l-.14.13h-15l-10-.06h-.06v-.05c0-.86,0-1.53,0-2l0-.51c0-.11,0-.16,0-.16s0,.07,0,.18v.52c0,.46,0,1.12,0,2l-.05-.06,10-.06h15c-.06.06.14-.13-.13.14V72.15l.13.13-17.69,0-5.31,0-1.45,0h-.51Z"/><path class="cls-21" d="M180.07,106c0,.08-6.24.14-13.94.14s-13.93-.06-13.93-.14,6.24-.13,13.93-.13S180.07,105.92,180.07,106Z"/><path class="cls-22" d="M146.08,79.83l2.51,19.44h32.65V80.44H166.41l-2.87-2.53H147.76A1.69,1.69,0,0,0,146.08,79.83Z"/><path class="cls-20" d="M172.26,88.06c0,.07-3.58.13-8,.13s-8-.06-8-.13,3.58-.14,8-.14S172.26,88,172.26,88.06Z"/><path class="cls-20" d="M172.26,90c0,.07-3.58.13-8,.13s-8-.06-8-.13,3.58-.13,8-.13S172.26,89.9,172.26,90Z"/><path class="cls-22" d="M74.58,130.76v26.87h32.65V130.76a2.31,2.31,0,0,0-2.31-2.32h-28A2.31,2.31,0,0,0,74.58,130.76Z"/><g class="cls-23"><path d="M74.58,130.76v26.87h32.65V130.76a2.31,2.31,0,0,0-2.31-2.32h-28A2.31,2.31,0,0,0,74.58,130.76Z"/></g><polyline class="cls-18" points="76.11 143.04 76.33 133.17 104.9 133.17 104.9 138.8"/><path class="cls-21" d="M104.9,138.8a2.79,2.79,0,0,1,0-.38l0-1.11c0-1,0-2.39,0-4.14l.09.09-16.4.05-12.18,0,.12-.11c-.09,3-.16,5.42-.21,7.17,0,.84,0,1.51-.07,2l0,.53c0,.11,0,.18,0,.18a.54.54,0,0,1,0-.18v-.53c0-.48,0-1.15,0-2,0-1.74.07-4.2.11-7.16v-.11h.1l12.18,0,16.4,0H105v.09c0,1.75,0,3.15,0,4.14,0,.46,0,.83,0,1.11A1.88,1.88,0,0,1,104.9,138.8Z"/><rect class="cls-18" x="78.19" y="130.51" width="24.97" height="2.67"/><path class="cls-21" d="M78.19,130.51s0,0,.11,0h.36l1.42,0,5.28,0,17.79-.06h.14v2.8l-.14.14h-8l-7,0-10-.05h-.06v-.06c0-.86,0-1.52,0-2v-.5c0-.11,0-.17,0-.16s0,.06,0,.18v.51c0,.47,0,1.13,0,2l0,0,10-.06,7,0h8l-.13.13v-2.66l.13.13-17.69-.06-5.31,0-1.45,0h-.51Z"/><path class="cls-21" d="M106.06,164.35c0,.07-6.24.13-13.94.13s-13.93-.06-13.93-.13,6.23-.13,13.93-.13S106.06,164.28,106.06,164.35Z"/><path class="cls-22" d="M72.06,138.19l2.52,19.44h32.65V138.8H92.4l-2.88-2.53H73.75A1.7,1.7,0,0,0,72.06,138.19Z"/><path class="cls-20" d="M98.24,146.41c0,.08-3.57.14-8,.14s-8-.06-8-.14,3.58-.13,8-.13S98.24,146.34,98.24,146.41Z"/><path class="cls-20" d="M98.24,148.33c0,.07-3.57.13-8,.13s-8-.06-8-.13,3.58-.14,8-.14S98.24,148.25,98.24,148.33Z"/><path class="cls-22" d="M152.65,130.78v26.86H185.3V130.78a2.31,2.31,0,0,0-2.31-2.32H155A2.31,2.31,0,0,0,152.65,130.78Z"/><g class="cls-23"><path d="M152.65,130.78v26.86H185.3V130.78a2.31,2.31,0,0,0-2.31-2.32H155A2.31,2.31,0,0,0,152.65,130.78Z"/></g><polyline class="cls-18" points="154.18 143.05 154.4 133.19 182.97 133.19 182.97 138.82"/><path class="cls-21" d="M183,138.82a2.87,2.87,0,0,1,0-.39q0-.41,0-1.11c0-1,0-2.39,0-4.13l.09.09-16.4,0-12.17,0,.11-.11c-.09,3-.16,5.42-.21,7.16,0,.84-.05,1.51-.07,2l0,.52c0,.12,0,.18,0,.18s0-.06,0-.18v-.52c0-.49,0-1.16,0-2,0-1.75.07-4.21.11-7.16v-.11h.11l12.17,0,16.4,0h.09v.09c0,1.74,0,3.14,0,4.13,0,.47,0,.84,0,1.11A1.93,1.93,0,0,1,183,138.82Z"/><rect class="cls-18" x="156.26" y="130.52" width="24.97" height="2.67"/><path class="cls-21" d="M156.26,130.52h1.89l5.28,0,17.79-.06h.14v2.8c-.27.27-.08.07-.14.13h-8l-7,0-10-.05h-.06v-.06c0-.86,0-1.53,0-2l0-.5c0-.12,0-.17,0-.17s0,.07,0,.19v.51c0,.47,0,1.12,0,2l-.05-.06,10,0,7,0h8l-.13.13v-2.67l.13.14-17.69-.06-5.31,0-1.45,0h-.51Z"/><path class="cls-21" d="M184.13,164.37c0,.07-6.24.13-13.94.13s-13.93-.06-13.93-.13,6.23-.14,13.93-.14S184.13,164.29,184.13,164.37Z"/><path class="cls-22" d="M150.13,138.2l2.52,19.44H185.3V138.82H170.47l-2.88-2.53H151.82A1.7,1.7,0,0,0,150.13,138.2Z"/><path class="cls-20" d="M176.32,146.43c0,.07-3.58.13-8,.13s-8-.06-8-.13,3.58-.13,8-.13S176.32,146.36,176.32,146.43Z"/><path class="cls-20" d="M176.32,148.34c0,.08-3.58.14-8,.14s-8-.06-8-.14,3.58-.13,8-.13S176.32,148.27,176.32,148.34Z"/><path class="cls-21" d="M64.41,87.66a3.33,3.33,0,0,1,0-.55,14.42,14.42,0,0,1,.1-1.5A19.47,19.47,0,0,1,65.7,80.8a18.9,18.9,0,0,1,2.41-4.34,13.12,13.12,0,0,1,1-1.17c.24-.26.38-.4.39-.38s-.48.62-1.19,1.66A21.75,21.75,0,0,0,66,80.9a22,22,0,0,0-1.27,4.74C64.49,86.88,64.46,87.67,64.41,87.66Z"/><path class="cls-21" d="M66.05,85.66s-.12.27-.39.64l-.49.66-.29.38-.16.2-.08.1,0,0,0,0v0h0s-.38,0-.2,0h0a4.49,4.49,0,0,1-.94-1.58c-.14-.45-.16-.74-.12-.75a7.63,7.63,0,0,0,1.26,2.15h-.19l0,0,0,0,.08-.1.16-.2.3-.37.53-.61C65.82,85.84,66,85.64,66.05,85.66Z"/><path class="cls-19" d="M173.22,109.63c0,.07-3.91.13-8.74.13s-8.73-.06-8.73-.13,3.91-.13,8.73-.13S173.22,109.55,173.22,109.63Z"/><path class="cls-19" d="M177.71,167.46c0,.07-3.91.13-8.73.13s-8.74-.06-8.74-.13,3.91-.14,8.74-.14S177.71,167.38,177.71,167.46Z"/><path class="cls-19" d="M96,168.39c0,.07-3.91.13-8.74.13s-8.74-.06-8.74-.13,3.91-.14,8.74-.14S96,168.31,96,168.39Z"/><path class="cls-28" d="M27.3,127.64c-.51,2.27-3.08,3.45-4.66,5.15s-3.91,3.09-6.14,2.43a5.45,5.45,0,0,1-3.19-3.09c-1.48-3.23-.78-7,.33-10.41s2.6-6.72,2.67-10.27l7.45,2.5,1.83-2.27S27.67,126,27.3,127.64Z"/><path class="cls-28" d="M56.31,108.38s4.51,18.05,8.81,20.7c5.45,3.34,8.63-.64,8.63-.64l8.52-15.6-5.81-1.45-5.67,7.13-4-10.8Z"/><path class="cls-28" d="M49.77,183.41c0,.61.71,9.53.71,9.53a34.55,34.55,0,0,0-1.43,8.63c-.2,8.33-.12,26.25-.12,26.25h8.89v-1s4.68-31.28,4.52-34.34l-.62-11.63-11.95,2.57"/><path class="cls-28" d="M42.54,169.55l-14.79,2.5s1.49,4,1.59,4.45a23.34,23.34,0,0,1,.75,8.69c-.64,4.47-1.21,9.9-.92,12.45s3,29.44,3,29.44l8.81.27,2.14-49.5Z"/><path class="cls-28" d="M36.35,62.87l-.08,26.64,11.43.54L48,83.57s4.06.81,5.1-3c.67-2.41.51-21,.51-21Z"/><path class="cls-21" d="M55.14,61.47C53.34,62,53,64.93,53,64.93l-2.82,6.23c-1.44-1.12-3.37-1.06-3.74,1.47-.26,1.82,2,2.19,2,2.19A32.81,32.81,0,0,1,44.25,81c-2.08,2.32-3.24,2.55-5.5,2.59H36.26s-1.22-4-3.48-13.86c-2.51-11,10.48-9.56,12.89-12.37C49.59,52.83,60.81,59.85,55.14,61.47Z"/><path class="cls-21" d="M33,70.8c-2.11-1.42-2.3-5.37-1.07-7.74a7.63,7.63,0,0,1,6.48-4,3.11,3.11,0,0,0,1.06-.11,3,3,0,0,0,1.14-1.08C42.51,55.38,44.36,53,47.86,53a4.05,4.05,0,0,1,2.21.54,3.51,3.51,0,0,1,1.32,1.76,7.31,7.31,0,0,1,2-.74,2.55,2.55,0,0,1,2.06.5,1.55,1.55,0,0,1,.32,2,2.51,2.51,0,0,1,2.49,2.07c.19,1.17-1.49,2-1.66,2.09a2.32,2.32,0,0,1-1.28,3.08,2.63,2.63,0,0,1-2.16-.17"/><path class="cls-29" d="M41.36,73.36a3.93,3.93,0,0,1-.07,2,4,4,0,0,1-.8,1.86c-.08,0,.29-.86.52-1.92S41.27,73.36,41.36,73.36Z"/><path class="cls-29" d="M42.74,72.05a4.86,4.86,0,0,1-.11,2,4.76,4.76,0,0,1-.6,1.85,10.67,10.67,0,0,1,.32-1.9A11.21,11.21,0,0,1,42.74,72.05Z"/><path class="cls-29" d="M46.7,67.66s-.3.27-.71.75a7.29,7.29,0,0,0-1.23,2.13,16.28,16.28,0,0,0-.68,2.39,4.11,4.11,0,0,1-.29,1,3.9,3.9,0,0,1,.09-1,11.32,11.32,0,0,1,.61-2.46,6.32,6.32,0,0,1,1.35-2.16A2.13,2.13,0,0,1,46.7,67.66Z"/><path class="cls-29" d="M48.3,64.66a1.53,1.53,0,0,1,.22.72,4.88,4.88,0,0,1-.1,1.82,4.79,4.79,0,0,1-.77,1.65c-.28.38-.51.56-.54.53a9.41,9.41,0,0,0,1-2.25A10.44,10.44,0,0,0,48.3,64.66Z"/><path class="cls-29" d="M34.66,71.31c0,.07-.39,0-.78-.27s-.68-.45-.64-.52.39,0,.78.27S34.7,71.25,34.66,71.31Z"/><path class="cls-29" d="M40.18,68.47c.08,0,0,.58-.33,1.16s-.82.89-.87.83.31-.44.63-1S40.1,68.45,40.18,68.47Z"/><path class="cls-29" d="M41.88,67.56a2.33,2.33,0,0,1-.51,1.38c-.46.7-1,1.07-1.08,1s.41-.51.84-1.17A12.21,12.21,0,0,1,41.88,67.56Z"/><path class="cls-29" d="M50.32,56.41s-.22-.17-.63-.4a4.16,4.16,0,0,0-1.92-.5,5.18,5.18,0,0,0-2.8.76,7,7,0,0,0-2.4,2.66,12.14,12.14,0,0,0-1,2.5l0,.17-.16-.08a5.61,5.61,0,0,0-2.55-.65,5.79,5.79,0,0,0-2.07.31,8.18,8.18,0,0,0-1.7.85,2,2,0,0,1,.39-.34A5.08,5.08,0,0,1,36.72,61a6,6,0,0,1,2.14-.38,5.77,5.77,0,0,1,2.67.64l-.2.09a11.62,11.62,0,0,1,1-2.56A7,7,0,0,1,44.83,56a5.22,5.22,0,0,1,3-.73,4.17,4.17,0,0,1,2,.6,3.51,3.51,0,0,1,.44.35A.67.67,0,0,1,50.32,56.41Z"/><path class="cls-29" d="M56.32,57.86s.32-.09.66.29a1.15,1.15,0,0,1,.26.84,1.28,1.28,0,0,1-.66.94,1.87,1.87,0,0,1-1.39.2,4,4,0,0,1-1.43-.7,13.83,13.83,0,0,0-1.4-1,5.84,5.84,0,0,0-1.69-.59,7.2,7.2,0,0,0-3.45.23,9.57,9.57,0,0,0-2.54,1.3,24,24,0,0,0-2,1.72,2.26,2.26,0,0,1,.45-.56,10.93,10.93,0,0,1,1.46-1.33,9.29,9.29,0,0,1,2.58-1.38,7.33,7.33,0,0,1,3.58-.27,6,6,0,0,1,1.77.63,14,14,0,0,1,1.42,1,3.91,3.91,0,0,0,1.33.68,1.68,1.68,0,0,0,1.24-.13,1.15,1.15,0,0,0,.6-.79,1,1,0,0,0-.19-.75A1,1,0,0,0,56.32,57.86Z"/><path class="cls-21" d="M26.47,147.73s-.42,11,0,14.32-.19,23.51-.19,23.51,15.49,4.51,19.67-.84c0,0-1.69-24.51-1.86-25.18s-1.53-17.37-1.53-17.37Z"/><path class="cls-21" d="M61.8,142.17c.91,2.84,2.84,13.53,2.84,13.53V184s-13.42,4.85-18.77,2.45L42.56,158V143.3l11-4.3Z"/><path class="cls-29" d="M53.28,161.86a2.93,2.93,0,0,1-.62,0l-1.7-.12-5.58-.51-5.59-.51-1.69-.16a2.69,2.69,0,0,1-.62-.09,3.89,3.89,0,0,1,.63,0l1.7.08c1.43.08,3.41.23,5.59.44s4.15.42,5.58.58l1.68.2A3.36,3.36,0,0,1,53.28,161.86Z"/><path class="cls-29" d="M43.23,161c.06,0,.71,5.7,1.44,12.74s1.27,12.77,1.2,12.78-.71-5.7-1.45-12.75S43.16,161,43.23,161Z"/><path class="cls-29" d="M43.42,160.81a8.83,8.83,0,0,1-1.57,1.4,8.19,8.19,0,0,1-1.73,1.2,9.3,9.3,0,0,1,1.57-1.4A9.6,9.6,0,0,1,43.42,160.81Z"/><path class="cls-29" d="M64.24,153.85a4.65,4.65,0,0,1-1.07-.57,15.14,15.14,0,0,1-2.3-1.82A15,15,0,0,1,59,149.22a4.23,4.23,0,0,1-.61-1.05,8,8,0,0,1,.75,1,20.37,20.37,0,0,0,1.93,2.16,21.77,21.77,0,0,0,2.22,1.85A6.87,6.87,0,0,1,64.24,153.85Z"/><path class="cls-29" d="M42.71,158.26a1.85,1.85,0,0,1-.23-.36c-.13-.24-.3-.6-.5-1.06a18.33,18.33,0,0,1-1.08-3.7,17.64,17.64,0,0,1-.23-3.85c0-.5.07-.89.11-1.17a1.31,1.31,0,0,1,.09-.42s0,.61,0,1.59a20.94,20.94,0,0,0,.3,3.81,21.71,21.71,0,0,0,1,3.68C42.49,157.69,42.75,158.25,42.71,158.26Z"/><path class="cls-29" d="M59,119c-.13-.41-1.63-9-1.63-9l11-.27S63.57,90.89,60.94,89.5c-4.08-2.16-13-2.42-13-2.42H36.37s-12.75,3.53-15.06,7.33l-8.14,15.65L23.76,114l1.83-2.27,1.83,16S26.33,142,26.33,144.2s.14,3.53.14,3.53,24-6.51,29.81-4.61S63,146.8,63,146.8s.53-6.4-.83-8.84Z"/><path class="cls-21" d="M25.85,114s-.15-.76-.39-2a38.22,38.22,0,0,0-1.28-4.69,40.49,40.49,0,0,0-1.9-4.47l-.67-1.32a2.72,2.72,0,0,1-.23-.5,1.92,1.92,0,0,1,.32.45c.18.3.44.73.74,1.28a31.75,31.75,0,0,1,2,4.48,29.12,29.12,0,0,1,1.22,4.74c.1.62.17,1.12.2,1.47A2.11,2.11,0,0,1,25.85,114Z"/><path class="cls-21" d="M48.52,120s0,.08-.07.24l-.22.66c-.09.29-.22.64-.38,1s-.33.86-.56,1.36c-.43,1-1,2.16-1.68,3.43a45.68,45.68,0,0,1-2.47,4,42.18,42.18,0,0,1-2.89,3.68c-1,1.08-1.85,2-2.65,2.76-.38.38-.76.7-1.08,1s-.61.52-.84.71l-.55.44-.2.14s0-.07.17-.18l.51-.47c.23-.2.51-.45.82-.75s.67-.62,1-1c.78-.76,1.66-1.7,2.6-2.78s1.91-2.32,2.86-3.67,1.76-2.7,2.47-3.94,1.27-2.41,1.72-3.4c.23-.48.42-.94.59-1.33s.31-.74.42-1l.27-.65A.7.7,0,0,1,48.52,120Z"/><path class="cls-21" d="M57.5,96.93s-.13.75-.26,2a40.6,40.6,0,0,0-.14,4.82c0,1.88.16,3.58.26,4.82,0,.57.09,1.06.12,1.45a2,2,0,0,1,0,.54,2.15,2.15,0,0,1-.11-.52c-.06-.35-.13-.84-.2-1.46-.15-1.23-.3-2.94-.34-4.83a31.06,31.06,0,0,1,.22-4.84,12,12,0,0,1,.27-1.45A2.09,2.09,0,0,1,57.5,96.93Z"/><g class="cls-23"><path d="M22.86,104.11s.68,6.56.9,9.84l1.83-2.27S23.79,104.93,22.86,104.11Z"/></g><g class="cls-23"><path d="M39.79,127.28A37.1,37.1,0,0,0,36.53,134,29.57,29.57,0,0,0,45,122.66,11.24,11.24,0,0,0,39.79,127.28Z"/></g><path class="cls-22" d="M15.58,140.68a.87.87,0,0,1-1.08-.75l-2.3-21.69a2.68,2.68,0,0,1,2-2.88l11.45-3.08L27.54,129l-.85,8.79Z"/><g class="cls-23"><path d="M26.69,137.77c-.7-1.37-.43-3-.27-4.53.74-7.1-2.33-14-.79-21,0,0,1.57,13.28,1.91,16.7Z"/></g><path class="cls-21" d="M25.75,114.24a1.4,1.4,0,0,1-.33.11l-1,.28-3.58,1-2.48.65L17,116.6a4.2,4.2,0,0,0-1.37.51,3.48,3.48,0,0,0-1.07,1.09,2.51,2.51,0,0,0-.41,1.49c.06,1.13.13,2.29.2,3.48.25,4.76.47,9.06.64,12.22.06,1.54.12,2.79.16,3.7l0,1a1.88,1.88,0,0,1,0,.35,2,2,0,0,1,0-.35c0-.26-.05-.59-.08-1-.07-.91-.15-2.17-.25-3.7-.19-3.16-.44-7.46-.72-12.22C14,122,14,120.83,13.9,119.7a2.76,2.76,0,0,1,.46-1.64,3.86,3.86,0,0,1,1.15-1.16,3.57,3.57,0,0,1,.71-.34c.26-.08.49-.13.73-.19l1.39-.35,2.48-.62,3.6-.87,1-.23A1.56,1.56,0,0,1,25.75,114.24Z"/><path class="cls-20" d="M26.93,123.21a4.7,4.7,0,0,1-1.12.42c-.71.23-1.69.51-2.78.78s-2.1.49-2.83.62a5.24,5.24,0,0,1-1.19.16,5.45,5.45,0,0,1,1.15-.34l2.8-.7,2.8-.7A7,7,0,0,1,26.93,123.21Z"/><path class="cls-20" d="M27.13,125.1a9,9,0,0,1-2.37.83,8.71,8.71,0,0,1-2.49.4,16.75,16.75,0,0,1,2.42-.66A19.07,19.07,0,0,1,27.13,125.1Z"/><path class="cls-30" d="M72.84,125.53a22.78,22.78,0,0,0-.79-3.56c-.66-1.9-1.41-3.37-1.33-3.41a4.49,4.49,0,0,1,.56.93,17.25,17.25,0,0,1,1,2.4,10.81,10.81,0,0,1,.55,2.55A3.27,3.27,0,0,1,72.84,125.53Z"/><path class="cls-28" d="M76.46,111.39s-1.11-6.89-.54-8l4.53-5.63a2.56,2.56,0,0,1,.45,2,11.21,11.21,0,0,1-1.33,2.27s2.57-.07,3.31.85a4.66,4.66,0,0,1,.49,1.88,1.09,1.09,0,0,1-.24.79l-.65.79c1.26,5.33-.34,6.61-.34,6.61Z"/><path class="cls-30" d="M81.57,102.26s-.13.15-.34.35a2.33,2.33,0,0,0-.63.87,6,6,0,0,0-.31,1.08,4.28,4.28,0,0,1-.06.46s-.14-.17-.13-.48a3.63,3.63,0,0,1,.25-1.16,2,2,0,0,1,.77-.92C81.37,102.29,81.55,102.23,81.57,102.26Z"/><path class="cls-28" d="M75.76,104.68c0-.19-.16,0-.33.06a1.4,1.4,0,0,0-.44.58,4.13,4.13,0,0,0-.06,2.39,8.92,8.92,0,0,0,1.4,2.61"/><path class="cls-30" d="M79.75,102c.06.06-.47.53-.92,1.2a2.6,2.6,0,0,0-.37,1c0,.26,0,.43-.07.44s-.12-.16-.12-.46a2,2,0,0,1,.33-1.08,3.85,3.85,0,0,1,.75-.82C79.57,102.05,79.72,102,79.75,102Z"/><path class="cls-30" d="M76.33,109.26a3.3,3.3,0,0,1-.22-.82c-.11-.51-.26-1.21-.36-2a7.12,7.12,0,0,1,.07-2.89c.08,0,0,1.29.2,2.86A16.29,16.29,0,0,1,76.33,109.26Z"/><path class="cls-30" d="M82.9,103s.18.26.33.74a6.61,6.61,0,0,1,.19.86,1.81,1.81,0,0,1-.12,1.11,1.29,1.29,0,0,1-.38.48,1.47,1.47,0,0,1-.28.14.35.35,0,0,1-.18,0,.25.25,0,0,1-.18-.13,3.71,3.71,0,0,1-.23-.88,1.75,1.75,0,0,1,0-.81,5.16,5.16,0,0,1,.19.78,4.66,4.66,0,0,0,.25.78s0,0,.08,0a.58.58,0,0,0,.19-.1.94.94,0,0,0,.29-.38,1.73,1.73,0,0,0,.13-1c0-.31-.09-.6-.14-.84A4.73,4.73,0,0,1,82.9,103Z"/><path class="cls-25" d="M48.89,227v10.19l20.44-.31c-.15-2.06-11.32-6-11.32-6l.23-3.91Z"/><g class="cls-31"><path class="cls-20" d="M52.21,230a.89.89,0,0,0-.56,1,.8.8,0,0,0,1,.6.93.93,0,0,0,.59-1.08.82.82,0,0,0-1-.51"/></g><path class="cls-21" d="M48.89,237.17l0-1.75,19.59.36s.91.4.82,1.08Z"/><path class="cls-21" d="M58,231.08c0,.11-.5.16-1,.51s-.75.8-.84.76.05-.66.64-1.07S58,231,58,231.08Z"/><path class="cls-21" d="M60.7,232c0,.1-.4.28-.73.74s-.43.92-.53.92-.17-.6.25-1.15S60.7,231.93,60.7,232Z"/><path class="cls-21" d="M61.91,234.62c-.09,0-.23-.5,0-1.08s.71-.82.75-.74-.24.41-.44.89S62,234.61,61.91,234.62Z"/><path class="cls-21" d="M57.81,228.19c0,.09-.5-.05-1.06,0s-1,.25-1.06.16.37-.48,1-.52S57.86,228.1,57.81,228.19Z"/><path class="cls-21" d="M57.92,231.07a1.44,1.44,0,0,0,0-.63A3.4,3.4,0,0,0,56.62,228a.72.72,0,0,0-.69-.12.8.8,0,0,0-.41.67,2.71,2.71,0,0,0,1.81,2.39,2.58,2.58,0,0,0,2.77-.83,1.81,1.81,0,0,0,.37-.63.71.71,0,0,0,0-.41.47.47,0,0,0-.28-.29.92.92,0,0,0-.64.06,4.17,4.17,0,0,0-.47.28,4,4,0,0,0-1.18,1.16,1.54,1.54,0,0,0-.28.54,5.85,5.85,0,0,1,1.56-1.52c.28-.15.64-.38.93-.28a.28.28,0,0,1,.11.38,1.53,1.53,0,0,1-.32.52,2.32,2.32,0,0,1-2.48.72,2.46,2.46,0,0,1-1.63-2.07.54.54,0,0,1,.24-.44.48.48,0,0,1,.46.09,2.93,2.93,0,0,1,.77.76,3.63,3.63,0,0,1,.59,1.49C57.91,230.84,57.9,231.07,57.92,231.07Z"/><polygon class="cls-25" points="40.99 226.81 41.41 229.97 41.13 237.13 31.81 237.35 31.48 229.97 31.87 226.81 40.99 226.81"/><path class="cls-21" d="M36.52,236.59c-.06,0,.08-2.19.3-4.89s.45-4.89.5-4.89-.07,2.18-.3,4.88S36.58,236.59,36.52,236.59Z"/><polygon class="cls-21" points="41.12 235.94 31.8 236.13 31.81 237.35 41.13 237.13 41.12 235.94"/><path class="cls-21" d="M31.77,231.82a1.6,1.6,0,0,1,.24-.37,6.82,6.82,0,0,1,.83-.89,6.29,6.29,0,0,1,1.51-1,4.85,4.85,0,0,1,2.17-.5,4.93,4.93,0,0,1,3.63,1.57,4.14,4.14,0,0,1,.68,1c.12.26.17.41.15.42a9.59,9.59,0,0,0-1-1.3,5,5,0,0,0-3.49-1.43A5.72,5.72,0,0,0,33,230.71C32.19,231.35,31.81,231.86,31.77,231.82Z"/><path class="cls-22" d="M207.37,224.2c-1.22-.06-1.58-1.78-1.12-2.91s1.35-2.14,1.36-3.36c0-1.06-.66-2-.72-3.08-.12-1.9,1.72-3.46,1.8-5.36.06-1.49-1-2.91-.72-4.37s1.91-2.61,2.29-4.16-.75-3.4-.31-5.05,2.36-2.83,2.09-4.51a15.56,15.56,0,0,0-.57-1.57,4.1,4.1,0,0,1,1.16-3.55,13.57,13.57,0,0,0,2.34-3.07c.78-1.82.24-4.05,1.17-5.81.77-1.46,2.48-2.45,2.69-4.09.87,1.48,0,3.36.22,5.06a16.63,16.63,0,0,0,1.06,3.17,8.26,8.26,0,0,1-.65,6.61c-.74,1.31-1.89,2.54-1.83,4,.07,1.82,1.89,3.14,2.21,4.94.46,2.56-2.27,4.87-1.89,7.45.09.67.4,1.3.46,2,.19,2.28-2.4,3.89-2.79,6.15-.29,1.66.67,3.37.27,5-.31,1.27-1.4,2.4-1.13,3.67a9.14,9.14,0,0,0,.7,1.53,2.93,2.93,0,0,1-.46,3,2.53,2.53,0,0,1-2.94.6"/><g class="cls-32"><path class="cls-20" d="M215.46,222.92a9.14,9.14,0,0,1-.7-1.53c-.27-1.27.82-2.4,1.13-3.67.4-1.64-.56-3.35-.27-5,.39-2.26,3-3.87,2.79-6.15-.06-.67-.37-1.3-.46-2-.38-2.58,2.35-4.89,1.89-7.45-.32-1.8-2.14-3.12-2.21-4.94-.06-1.51,1.09-2.74,1.83-4a8.26,8.26,0,0,0,.65-6.61,16.63,16.63,0,0,1-1.06-3.17c-.2-1.7.65-3.58-.22-5.06-.21,1.64-1.92,2.63-2.69,4.09-.93,1.76-.39,4-1.17,5.81a13.57,13.57,0,0,1-2.34,3.07,4.1,4.1,0,0,0-1.16,3.55,15.56,15.56,0,0,1,.57,1.57c.27,1.68-1.65,2.88-2.09,4.51s.71,3.39.31,5.05-2,2.58-2.29,4.16.78,2.88.72,4.37c-.08,1.9-1.92,3.46-1.8,5.36.06,1.06.73,2,.72,3.08,0,1.22-.91,2.22-1.36,3.36s-.1,2.85,1.12,2.91l4.69,2.35A2.53,2.53,0,0,0,215,226,2.93,2.93,0,0,0,215.46,222.92Z"/></g><path class="cls-22" d="M213.87,221.81a3.32,3.32,0,0,1-.47-1.81c.12-.69,1.3-1.31,1.6-2.49.38-1.53-.31-4.25,0-5.79.4-2.11,2.58-3.49,2.49-5.58,0-.61.06-2.25,0-2.86-.24-2.35,1.83-3.93,1.53-6.27-.21-1.63-1.9-3.54-1.9-5.22,0-1.38,1-2.59,1.64-3.84a8.63,8.63,0,0,0,.75-6.13,14.65,14.65,0,0,1-.78-2.85c-.11-1.56.66-3.34,0-4.65-.23,1.53-1.68,2.55-2.36,4-.83,1.68-.44,3.69-1.15,5.42a14.71,14.71,0,0,1-2,3,4.41,4.41,0,0,0-1.07,3.34c.1.49.36.91.42,1.42.18,1.52-1.46,2.75-1.87,4.28s.48,3.08.09,4.63-1.78,3.42-2.05,4.89,1,2.26.89,3.63c-.13,1.76-1.89,3.89-1.86,5.64,0,1,.83,1.28.79,2.25a20,20,0,0,1-1.4,4.43,3,3,0,0,0,.29,3l5.24,2.6C214.94,225.68,214.84,223.41,213.87,221.81Z"/><path class="cls-20" d="M217.39,182.28a1.09,1.09,0,0,0,0,.12v.34c0,.3,0,.74-.05,1.31a6.56,6.56,0,0,1-.48,2,10,10,0,0,1-1.57,2.25,4.28,4.28,0,0,0-.75,1.36,4.65,4.65,0,0,0-.19,1.68c.06,1.18.42,2.41.6,3.75a5.9,5.9,0,0,1-.07,2.09,4.2,4.2,0,0,1-.41,1,8,8,0,0,0-.55.92,3.4,3.4,0,0,0,0,2.12c.08.37.16.74.21,1.13a4.66,4.66,0,0,1,0,1.18,9.46,9.46,0,0,1-.72,2.2,17.56,17.56,0,0,0-.81,2.06,5.12,5.12,0,0,0-.18,2.09,9.66,9.66,0,0,1,.07,2.08,6.39,6.39,0,0,1-.66,1.87,7,7,0,0,0-.66,1.69,18.83,18.83,0,0,0,.08,3.3,8.82,8.82,0,0,1-.6,2.68,9.1,9.1,0,0,0-.51,2,2.7,2.7,0,0,0,.13,1.27c.11.28.19.41.18.42a2.14,2.14,0,0,1-.22-.4,2.76,2.76,0,0,1-.17-1.3,9.05,9.05,0,0,1,.48-2,8.86,8.86,0,0,0,.56-2.64c0-.51-.07-1-.12-1.58a5.72,5.72,0,0,1,0-1.75c.22-1.21,1.11-2.25,1.3-3.56a10,10,0,0,0-.08-2,5.52,5.52,0,0,1,.18-2.17c.4-1.42,1.27-2.72,1.52-4.23a4.28,4.28,0,0,0,0-1.13,10.78,10.78,0,0,0-.2-1.11,3.61,3.61,0,0,1,.05-2.25,9.33,9.33,0,0,1,.56-.94,3.4,3.4,0,0,0,.39-.95,5.45,5.45,0,0,0,.07-2c-.16-1.32-.52-2.56-.57-3.77a4.76,4.76,0,0,1,.21-1.74,4.33,4.33,0,0,1,.78-1.4,10.61,10.61,0,0,0,1.59-2.21,6.91,6.91,0,0,0,.5-2c.06-.56.07-1,.09-1.3l0-.34C217.38,182.32,217.38,182.28,217.39,182.28Z"/><path class="cls-22" d="M199.89,224.8c-1.7.25-2.67-2-2.35-3.73s1.28-3.33,1-5c-.28-1.47-1.47-2.61-1.85-4.06-.68-2.61,1.44-5.26,1-7.93-.32-2.08-2.14-3.75-2.2-5.86s1.94-4.13,2-6.39-2-4.5-1.8-6.9,2.5-4.58,1.66-6.82a20.93,20.93,0,0,0-1.23-2c-.82-1.64-.23-3.63.64-5.23s2-3.11,2.41-4.9c.58-2.75-.78-5.68,0-8.37.66-2.24,2.77-4.08,2.62-6.41,1.61,1.81.94,4.65,1.68,6.95a24,24,0,0,0,2.34,4.11,11.66,11.66,0,0,1,.91,9.33c-.68,2-1.93,4-1.44,6.11.6,2.51,3.49,3.84,4.43,6.24,1.34,3.43-1.82,7.38-.59,10.85.32.9.91,1.68,1.18,2.59.89,3.11-2.25,6.06-2.18,9.29.05,2.38,1.85,4.49,1.75,6.87-.08,1.83-1.28,3.7-.56,5.39a12.23,12.23,0,0,0,1.39,1.93,4.13,4.13,0,0,1,.19,4.32,3.58,3.58,0,0,1-3.91,1.64"/><g class="cls-32"><path class="cls-20" d="M210.75,220.81a12.23,12.23,0,0,1-1.39-1.93c-.72-1.69.48-3.56.56-5.39.1-2.38-1.7-4.49-1.75-6.87-.07-3.23,3.07-6.18,2.18-9.29-.27-.91-.86-1.69-1.18-2.59-1.23-3.47,1.93-7.42.59-10.85-.94-2.4-3.83-3.73-4.43-6.24-.49-2.07.76-4.1,1.44-6.11a11.66,11.66,0,0,0-.91-9.33,24,24,0,0,1-2.34-4.11c-.74-2.3-.07-5.14-1.68-6.95.15,2.33-2,4.17-2.62,6.41-.8,2.69.56,5.62,0,8.37-.38,1.79-1.54,3.29-2.41,4.9s-1.46,3.59-.64,5.23a20.93,20.93,0,0,1,1.23,2c.84,2.24-1.51,4.44-1.66,6.82s1.91,4.51,1.8,6.9-2.09,4.14-2,6.39,1.88,3.78,2.2,5.86c.41,2.67-1.71,5.32-1,7.93.38,1.45,1.57,2.59,1.85,4.06.31,1.7-.65,3.34-1,5s.65,4,2.35,3.73l7.14,2a3.58,3.58,0,0,0,3.91-1.64A4.13,4.13,0,0,0,210.75,220.81Z"/></g><path class="cls-22" d="M208.24,219.7a4.65,4.65,0,0,1-1.14-2.37c0-1,1.44-2.17,1.53-3.89.1-2.23-1.59-5.8-1.61-8,0-3,2.61-5.54,1.91-8.41-.2-.84-.53-3.14-.78-4-1-3.2,1.46-6,.41-9.11-.74-2.2-3.61-4.39-4.07-6.7-.38-1.92.66-3.87,1.23-5.79a12.17,12.17,0,0,0-.65-8.69,20.33,20.33,0,0,1-1.85-3.74c-.58-2.12,0-4.8-1.3-6.42.09,2.17-1.64,4-2.2,6.11-.68,2.55.4,5.23-.1,7.83a21.06,21.06,0,0,1-2,4.69c-.73,1.54-1.23,3.42-.58,4.92a18,18,0,0,1,1,1.84c.66,2.06-1.27,4.21-1.42,6.45s1.5,4.13,1.4,6.38-1.54,5.24-1.51,7.35,2,2.85,2.22,4.78c.31,2.48-1.55,5.91-1,8.32.29,1.34,1.5,1.55,1.71,2.91.24,1.57-.45,4.92-.73,6.52a4.29,4.29,0,0,0,1.23,4.1l8,2.16C210.79,224.78,210,221.66,208.24,219.7Z"/><path class="cls-20" d="M202.29,164a21,21,0,0,1,.41,2.46,9,9,0,0,1-.11,2.92,7.37,7.37,0,0,1-.62,1.73c-.29.58-.63,1.17-.95,1.81a6.07,6.07,0,0,0-.67,2.11,6.5,6.5,0,0,0,.2,2.38c.4,1.63,1.24,3.24,1.85,5.05a8.12,8.12,0,0,1,.47,2.89,5.61,5.61,0,0,1-.29,1.5,12.84,12.84,0,0,0-.51,1.43,4.77,4.77,0,0,0,.54,3c.2.49.42,1,.58,1.51a6,6,0,0,1,.28,1.63,13.29,13.29,0,0,1-.39,3.23,25,25,0,0,0-.56,3.08,7.61,7.61,0,0,0,0,1.51,8.09,8.09,0,0,0,.32,1.46,13.47,13.47,0,0,1,.67,2.84,8.86,8.86,0,0,1-.41,2.76,10.58,10.58,0,0,0-.44,2.55,8,8,0,0,0,.42,2.36,19.87,19.87,0,0,1,.6,2.18,8,8,0,0,1,.1,2c0,.65-.12,1.26-.19,1.82a12.67,12.67,0,0,0-.16,2.9,4,4,0,0,0,.54,1.74c.23.35.38.51.37.52a3.31,3.31,0,0,1-.4-.5,3.82,3.82,0,0,1-.59-1.75,13.11,13.11,0,0,1,.12-2.92c.07-.57.14-1.17.18-1.81a7.75,7.75,0,0,0-.12-2,20.19,20.19,0,0,0-.6-2.16,8.18,8.18,0,0,1-.45-2.41,10.21,10.21,0,0,1,.45-2.59,8.73,8.73,0,0,0,.38-2.7,12.73,12.73,0,0,0-.67-2.81,9.06,9.06,0,0,1-.32-1.48,8,8,0,0,1,0-1.55,26,26,0,0,1,.55-3.11,12.59,12.59,0,0,0,.39-3.18,6,6,0,0,0-.27-1.58c-.16-.5-.37-1-.58-1.49a10,10,0,0,1-.52-1.51,3.56,3.56,0,0,1,0-1.59,13.66,13.66,0,0,1,.53-1.45,5.64,5.64,0,0,0,.28-1.44,7.84,7.84,0,0,0-.46-2.82c-.59-1.79-1.43-3.41-1.83-5.07a6.58,6.58,0,0,1-.19-2.44,6,6,0,0,1,.7-2.16c.32-.64.67-1.23,1-1.8a7.79,7.79,0,0,0,.63-1.69,9.47,9.47,0,0,0,.14-2.89c-.07-.8-.18-1.41-.24-1.83l-.07-.48A.91.91,0,0,1,202.29,164Z"/><path class="cls-22" d="M198.82,225.92c-1,.48-2-.7-2.12-1.78s.12-2.24-.4-3.19-1.38-1.29-1.89-2.08c-.91-1.43-.15-3.43-.91-4.94-.6-1.18-2-1.84-2.45-3.08s.36-2.85,0-4.22-2.05-2.32-2.41-3.78.61-3.23-.33-4.4a13.09,13.09,0,0,0-1.12-1,3.64,3.64,0,0,1-.63-3.25,12.05,12.05,0,0,0,.49-3.4c-.18-1.76-1.56-3.25-1.6-5,0-1.47.87-3,.32-4.34,1.32.77,1.47,2.59,2.36,3.83a13.92,13.92,0,0,0,2.19,2,7.36,7.36,0,0,1,2.35,5.41c0,1.34-.38,2.8.32,3.94.84,1.38,2.83,1.62,3.85,2.88,1.47,1.79.34,4.76,1.75,6.61.36.47.87.82,1.2,1.32,1.14,1.69-.17,4.06.5,6,.49,1.41,2,2.33,2.37,3.77.31,1.12,0,2.46.71,3.34a8.88,8.88,0,0,0,1.2.89,2.57,2.57,0,0,1,.95,2.54,2.25,2.25,0,0,1-2,1.74"/><g class="cls-32"><path class="cls-20" d="M204.55,221.44a8.88,8.88,0,0,1-1.2-.89c-.76-.88-.4-2.22-.71-3.34-.4-1.44-1.88-2.36-2.37-3.77-.67-1.92.64-4.29-.5-6-.33-.5-.84-.85-1.2-1.32-1.41-1.85-.28-4.82-1.75-6.61-1-1.26-3-1.5-3.85-2.88-.7-1.14-.34-2.6-.32-3.94a7.36,7.36,0,0,0-2.35-5.41,13.92,13.92,0,0,1-2.19-2c-.89-1.24-1-3.06-2.36-3.83.55,1.36-.36,2.87-.32,4.34,0,1.76,1.42,3.25,1.6,5a12.05,12.05,0,0,1-.49,3.4,3.64,3.64,0,0,0,.63,3.25,13.09,13.09,0,0,1,1.12,1c.94,1.17,0,2.94.33,4.4s2,2.33,2.41,3.78-.45,2.88,0,4.22,1.85,1.9,2.45,3.08c.76,1.51,0,3.51.91,4.94.51.79,1.45,1.25,1.89,2.08s.26,2.12.4,3.19,1.15,2.26,2.13,1.78l4.65-.2a2.25,2.25,0,0,0,2-1.74A2.57,2.57,0,0,0,204.55,221.44Z"/></g><path class="cls-22" d="M202.84,221.26a3,3,0,0,1-1.15-1.2c-.2-.6.45-1.58.17-2.62-.37-1.36-2.07-3.17-2.52-4.5-.59-1.8.5-3.82-.47-5.4-.29-.46-.93-1.78-1.24-2.22-1.2-1.73-.27-3.84-1.52-5.53-.86-1.17-3-1.93-3.73-3.23-.59-1.07-.35-2.44-.38-3.69a7.63,7.63,0,0,0-2.06-5.08,13.09,13.09,0,0,1-1.84-1.88c-.75-1.16-.93-2.87-2-3.6.48,1.29-.21,2.71-.13,4.09.08,1.66,1.25,3,1.45,4.7a12.77,12.77,0,0,1-.3,3.2,3.94,3.94,0,0,0,.61,3c.29.34.68.55.94.92.8,1.1.06,2.76.4,4.13s1.7,2.19,2.07,3.55.09,3.43.52,4.69,1.73,1.33,2.25,2.43c.67,1.42.22,3.84,1,5.18.43.74,1.19.64,1.58,1.41a17.89,17.89,0,0,1,.83,4,2.7,2.7,0,0,0,1.53,2.22l5.18-.25C205.34,223.8,204.28,222.08,202.84,221.26Z"/><path class="cls-20" d="M188.51,189.06s0,0,.05.08l.15.26c.13.24.32.58.53,1a6,6,0,0,1,.51,1.78,9.71,9.71,0,0,1-.25,2.42,3.56,3.56,0,0,0,0,1.38,4.21,4.21,0,0,0,.57,1.38c.56.89,1.37,1.69,2.09,2.66a5,5,0,0,1,.84,1.65,3.46,3.46,0,0,1,.12,1,7.72,7.72,0,0,0,0,1,3.06,3.06,0,0,0,.89,1.66,10.12,10.12,0,0,1,.65.79,3.9,3.9,0,0,1,.48.93,7.67,7.67,0,0,1,.39,2,15,15,0,0,0,.27,1.95,4.67,4.67,0,0,0,.76,1.7,8.18,8.18,0,0,1,1,1.58,5.38,5.38,0,0,1,.29,1.74,7.35,7.35,0,0,0,.22,1.6,16.1,16.1,0,0,0,1.49,2.52,7.83,7.83,0,0,1,.69,2.34,7.91,7.91,0,0,0,.46,1.77,2.55,2.55,0,0,0,.65.93c.2.17.32.24.31.25a2.06,2.06,0,0,1-.34-.22,2.59,2.59,0,0,1-.7-.93,7.9,7.9,0,0,1-.5-1.77,7.9,7.9,0,0,0-.7-2.3,14.7,14.7,0,0,1-1.52-2.54c-.35-1-.11-2.23-.53-3.32a8.37,8.37,0,0,0-.94-1.54,5,5,0,0,1-.8-1.76,35.69,35.69,0,0,0-.64-4,4.09,4.09,0,0,0-.46-.88c-.2-.27-.42-.52-.64-.77a3.21,3.21,0,0,1-.93-1.78,7.68,7.68,0,0,1,0-1,3.44,3.44,0,0,0-.11-.91,5,5,0,0,0-.81-1.59c-.7-.95-1.51-1.76-2.07-2.68a4.18,4.18,0,0,1-.59-1.44,3.82,3.82,0,0,1,0-1.43,9.3,9.3,0,0,0,.28-2.39,5.74,5.74,0,0,0-.47-1.75c-.19-.47-.37-.82-.48-1.06l-.14-.27C188.52,189.09,188.5,189.06,188.51,189.06Z"/><polygon class="cls-29" points="191.38 221.82 193.4 225.92 217.97 225.92 220.74 221.82 191.38 221.82"/><polygon class="cls-29" points="193.99 224.51 197.66 237.2 214.21 237.22 217.55 224.53 193.99 224.51"/><path class="cls-21" d="M217.86,225.89c0,.06-5.49.1-12.25.1s-12.24,0-12.24-.1,5.48-.11,12.24-.11S217.86,225.83,217.86,225.89Z"/><path class="cls-21" d="M277.83,237.22c0,.07-45.48.13-101.58.13s-101.6-.06-101.6-.13,45.48-.14,101.6-.14S277.83,237.14,277.83,237.22Z"/><text class="cls-33" transform="translate(97.01 43.76)">A<tspan class="cls-34" x="9.85" y="0">r</tspan><tspan class="cls-35" x="15.52" y="0">c</tspan><tspan x="23.28" y="0">hi</tspan><tspan class="cls-36" x="35.82" y="0">v</tspan><tspan class="cls-37" x="43.96" y="0">o</tspan><tspan x="52.3" y="0">s</tspan></text></g></svg>