<svg xmlns="http://www.w3.org/2000/svg" xmlns:xlink="http://www.w3.org/1999/xlink" viewBox="0 0 188.32 134.24"><defs><style>.cls-1{isolation:isolate;}.cls-2{fill:#ffde17;}.cls-3{fill:#414042;}.cls-4{fill:#d1d1cf;}.cls-5{fill:#b71e50;}.cls-6{fill:#2a2a2d;}.cls-7{fill:#a7a8aa;}.cls-8{fill:#da1c5c;}.cls-9{fill:#4099d4;}.cls-10{fill:#f9f9f9;}.cls-11{fill:#1b75bc;}.cls-12{fill:#e6e7e8;}.cls-13{fill:#991b45;}.cls-14{fill:#f0efee;}.cls-15{fill:#04070d;}.cls-16{fill:#eeb211;}.cls-17,.cls-26,.cls-31,.cls-33{opacity:0.6;}.cls-17,.cls-24,.cls-26,.cls-31,.cls-33{mix-blend-mode:screen;}.cls-17{fill:url(#_ÂÁ_Ï_ÌÌ_È_ËÂÌÚ_549);}.cls-18{fill:#26231f;}.cls-19{fill:#3f3932;}.cls-20{fill:#d8d8d8;}.cls-21{fill:#a8a8a8;}.cls-22{fill:#bebebe;}.cls-23{fill:#db9200;}.cls-24,.cls-27{opacity:0.2;}.cls-24{fill:url(#_ÂÁ_Ï_ÌÌ_È_ËÂÌÚ_1268);}.cls-25{fill:#ffc712;}.cls-26{fill:url(#_ÂÁ_Ï_ÌÌ_È_ËÂÌÚ_549-2);}.cls-27{fill:#bc972a;}.cls-27,.cls-39,.cls-41,.cls-47,.cls-50,.cls-70,.cls-72,.cls-73{mix-blend-mode:multiply;}.cls-28{fill:#282523;}.cls-29{fill:#35312d;}.cls-30{fill:#cd9305;}.cls-32{fill:url(#_ÂÁ_Ï_ÌÌ_È_ËÂÌÚ_550);}.cls-33{fill:url(#_ÂÁ_Ï_ÌÌ_È_ËÂÌÚ_549-3);}.cls-34{fill:#cb5e12;}.cls-35{fill:#911;}.cls-36{fill:#f0fdff;}.cls-37{fill:#4c4742;}.cls-38{fill:#fff;}.cls-39{fill:#989a9d;}.cls-40{fill:#7db138;}.cls-42,.cls-47{fill:none;stroke:#a6a8ab;stroke-linejoin:round;}.cls-42{stroke-width:0.74px;}.cls-43{fill:#0b0d10;}.cls-44{fill:#17191c;}.cls-45{fill:#25282a;}.cls-46{fill:#3a3d40;}.cls-47{stroke-width:2.11px;}.cls-48{fill:#383b3e;}.cls-49,.cls-50{fill:#79cfe1;}.cls-51{fill:#d0d2d3;}.cls-52{fill:#bbbdbf;}.cls-53{fill:#faaf40;}.cls-54{fill:#a6a8ab;}.cls-55{fill:#373a3c;}.cls-56{fill:#808184;}.cls-57{fill:#6b9b30;}.cls-58{fill:url(#linear-gradient);}.cls-59{fill:url(#linear-gradient-2);}.cls-60{fill:url(#linear-gradient-3);}.cls-61{fill:#070707;}.cls-62{fill:#0c0c0c;}.cls-63{fill:#4e97ad;}.cls-64{fill:url(#linear-gradient-4);}.cls-65{fill:url(#linear-gradient-5);}.cls-66{fill:#02598a;}.cls-67{fill:url(#linear-gradient-6);}.cls-68{fill:#e3feff;}.cls-69{fill:url(#linear-gradient-7);}.cls-70{opacity:0.56;fill:url(#linear-gradient-8);}.cls-71{fill:url(#linear-gradient-9);}.cls-72{fill:url(#linear-gradient-10);}.cls-73{fill:url(#linear-gradient-11);}</style><linearGradient id="_ÂÁ_Ï_ÌÌ_È_ËÂÌÚ_549" x1="163.37" y1="67.45" x2="165.34" y2="67.45" gradientUnits="userSpaceOnUse"><stop offset="0" stop-color="#846918"/><stop offset="0.14" stop-color="#9e7d1c"/><stop offset="0.41" stop-color="#c89d21"/><stop offset="0.65" stop-color="#e6b526"/><stop offset="0.85" stop-color="#f8c328"/><stop offset="1" stop-color="#ffc829"/></linearGradient><linearGradient id="_ÂÁ_Ï_ÌÌ_È_ËÂÌÚ_1268" x1="121.04" y1="85.81" x2="119.49" y2="88.49" gradientUnits="userSpaceOnUse"><stop offset="0" stop-color="#ffc829"/><stop offset="0.24" stop-color="#ca9b1b"/><stop offset="0.49" stop-color="#9d740f"/><stop offset="0.7" stop-color="#7c5807"/><stop offset="0.88" stop-color="#684702"/><stop offset="1" stop-color="#614100"/></linearGradient><linearGradient id="_ÂÁ_Ï_ÌÌ_È_ËÂÌÚ_549-2" x1="161.87" y1="82.24" x2="176.32" y2="96.31" xlink:href="#_ÂÁ_Ï_ÌÌ_È_ËÂÌÚ_549"/><linearGradient id="_ÂÁ_Ï_ÌÌ_È_ËÂÌÚ_550" x1="169.83" y1="83.39" x2="181.55" y2="83.39" gradientUnits="userSpaceOnUse"><stop offset="0" stop-color="#cd9305"/><stop offset="0.03" stop-color="#cf9608"/><stop offset="0.43" stop-color="#e9b423"/><stop offset="0.76" stop-color="#f9c633"/><stop offset="1" stop-color="#ffcd39"/></linearGradient><linearGradient id="_ÂÁ_Ï_ÌÌ_È_ËÂÌÚ_549-3" x1="135.64" y1="81.89" x2="140.69" y2="81.89" xlink:href="#_ÂÁ_Ï_ÌÌ_È_ËÂÌÚ_549"/><linearGradient id="linear-gradient" x1="87.59" y1="89.06" x2="87.59" y2="154.09" gradientUnits="userSpaceOnUse"><stop offset="0" stop-color="#fff"/><stop offset="1" stop-color="#9ce0f5"/></linearGradient><linearGradient id="linear-gradient-2" x1="74.2" y1="47.73" x2="74.2" y2="63.99" gradientUnits="userSpaceOnUse"><stop offset="0.01" stop-color="#ffddc9"/><stop offset="1" stop-color="#ffb3a9"/></linearGradient><linearGradient id="linear-gradient-3" x1="-868.97" y1="47.73" x2="-868.97" y2="63.99" gradientTransform="matrix(-1, 0, 0, 1, -763.16, 0)" xlink:href="#linear-gradient-2"/><linearGradient id="linear-gradient-4" x1="90.02" y1="93.45" x2="90.02" y2="67.58" xlink:href="#linear-gradient-2"/><linearGradient id="linear-gradient-5" x1="90.01" y1="75.31" x2="90.01" y2="41.08" xlink:href="#linear-gradient-2"/><linearGradient id="linear-gradient-6" x1="90.01" y1="54.73" x2="90.01" y2="40.55" gradientUnits="userSpaceOnUse"><stop offset="0" stop-color="#1d249f"/><stop offset="1" stop-color="#1d244c"/></linearGradient><linearGradient id="linear-gradient-7" x1="80.32" y1="98.34" x2="68.73" y2="113.51" gradientUnits="userSpaceOnUse"><stop offset="0.01" stop-color="#ffddc9"/><stop offset="0.9" stop-color="#ffaa9f"/><stop offset="1" stop-color="#ffa49a"/></linearGradient><linearGradient id="linear-gradient-8" x1="69.84" y1="136.4" x2="72.93" y2="119.07" gradientUnits="userSpaceOnUse"><stop offset="0" stop-color="#fff"/><stop offset="1" stop-color="#4cbfd3"/></linearGradient><linearGradient id="linear-gradient-9" x1="49.45" y1="152.54" x2="70.22" y2="111.48" xlink:href="#linear-gradient"/><linearGradient id="linear-gradient-10" x1="77.85" y1="96.57" x2="80.46" y2="96.99" xlink:href="#linear-gradient-2"/><linearGradient id="linear-gradient-11" x1="105.16" y1="109.33" x2="105.16" y2="127.13" xlink:href="#linear-gradient"/></defs><title>Portal_Registro</title><g class="cls-1"><g id="Design"><path class="cls-2" d="M127.28,33.27A1.59,1.59,0,0,0,129,34.66h0a1.59,1.59,0,0,0,1.39-1.74l-.52-4.7a1.57,1.57,0,0,0-1.74-1.39h0a1.57,1.57,0,0,0-1.39,1.74Z"/><path class="cls-3" d="M86.19,26.28l7.25.28L93.12,17a3.85,3.85,0,0,1,3.81-3.83H97L97,26.7H95.83v3.49H82.35v-.11A3.84,3.84,0,0,1,86.19,26.28Z"/><path class="cls-4" d="M97.94,22.61a.57.57,0,0,0,.58.57h3.28a.57.57,0,0,0,.57-.57h0a.58.58,0,0,0-.57-.57H98.52a.58.58,0,0,0-.58.57Z"/><path class="cls-5" d="M56.15,35.14l10.33-1.43,1.14,8.21A10.19,10.19,0,0,0,63.86,37c-2.09-1.28-5.59-1.58-7.71-1.63Z"/><rect class="cls-6" x="109.9" y="33.24" width="16.54" height="8.43"/><path class="cls-3" d="M112.64,26.84,117,27l-.29-8.59a3.84,3.84,0,0,1,3.81-3.83h.11l-.06,12.56,1.7.06v3.53H108.79v-.1A3.84,3.84,0,0,1,112.64,26.84Z"/><polygon class="cls-2" points="119.48 40.76 94.29 42.35 119.37 45.12 119.48 40.76"/><rect class="cls-7" x="118.27" y="34.22" width="1.86" height="2.9"/><path class="cls-8" d="M61.28,28.19v6.74l6.43,4.23a3.75,3.75,0,0,0,3.73,3.78h40.73c0-4.48,3.11-8.1,7-8.1s6.95,3.62,6.95,8.1h.59a3.75,3.75,0,0,0,3.73-3.78L125.84,6.28a3.72,3.72,0,0,0-.58-2A3.65,3.65,0,0,0,124,3a3.61,3.61,0,0,0-1.85-.5h-1.43L71.44,1.43A3.72,3.72,0,0,0,68.06,3.6h.17c2.27,0,5.09-.08,6.7,1.81,1,1.2.9,3,.9,4.51,0,2.24-.3,4.47-.43,6.71-.19,3.29-.47,6.65-3.48,8.58-2.57,1.64-6.69,1.76-9.65,1.19ZM98.73,7.75a4,4,0,0,1,3.8-4.15H115.4a4,4,0,0,1,3.8,4.15V26.59a4,4,0,0,1-3.8,4.15h-6.85l-2.21,8c-2.09,0-6.61,1-6.61-1.26l-1-11.71ZM75.08,26.59l2.63-19.3a3.8,3.8,0,0,1,3.8-3.79L92,3.82a3.78,3.78,0,0,1,3.79,3.79V35.14A3.78,3.78,0,0,1,92,38.93H81.51a3.76,3.76,0,0,1-2.78-1.21c-.63-.67-1.86.1-1.86-.89Z"/><path class="cls-9" d="M74.05,7c.75,3,0,6.55-.23,9.59-.16,2.72-.24,6.05-3.06,7.41a14,14,0,0,1-8.1.83l5-19.66a1.55,1.55,0,0,1,0-.22.74.74,0,0,0,.51.19C69.88,5.17,73.51,4.88,74.05,7Z"/><path class="cls-10" d="M68.06,3.6A4,4,0,0,0,67.72,5Z"/><path class="cls-10" d="M62.33,24.79l.33.07-.39,1.53-.36-.07Z"/><path class="cls-10" d="M70.76,24c2.82-1.36,2.9-4.69,3.06-7.41.18-3,1-6.6.23-9.59-.54-2.15-4.17-1.86-5.82-1.86A.74.74,0,0,1,67.72,5a4,4,0,0,1,.34-1.38h.17c2.27,0,5.09-.08,6.7,1.81,1,1.2.9,3,.9,4.51,0,2.24-.3,4.47-.43,6.71-.19,3.29-.47,6.65-3.48,8.58-2.57,1.64-6.69,1.76-9.65,1.19l.39-1.53A14,14,0,0,0,70.76,24Z"/><path class="cls-11" d="M65.08,15.41l6.75,7.9a4.56,4.56,0,0,1-1.07.72,8.79,8.79,0,0,1-1.56.58l-5-5.83Z"/><path class="cls-11" d="M62.66,24.86l1.4-5.46,4.58,5.35A15.09,15.09,0,0,1,62.66,24.86Z"/><path class="cls-11" d="M66,12l.39-1.52L73.63,19a10.9,10.9,0,0,1-.3,1.63Z"/><path class="cls-11" d="M67.71,5.2a1.55,1.55,0,0,1,0-.22.74.74,0,0,0,.51.19c1.65,0,5.28-.29,5.82,1.86.62,2.48.18,5.35-.09,8l-6.75-7.9Z"/><path class="cls-2" d="M61.28,28.29c-.87,0-1.58,1.46-1.58,3.27s.71,3.26,1.58,3.26Z"/><path class="cls-3" d="M61.28,28.19c-.15,0-.25-.08-.36.26a13.33,13.33,0,0,0-.24,3.13,13.38,13.38,0,0,0,.24,3.06c0,.16.11.18.16.2a.36.36,0,0,0,.2.08Z"/><path class="cls-2" d="M64.23,31.45a1.37,1.37,0,0,0,1.37,1.37h5.26a1.37,1.37,0,0,0,1.38-1.37h0a1.38,1.38,0,0,0-1.38-1.37H65.6a1.37,1.37,0,0,0-1.37,1.37Z"/><rect class="cls-12" x="82.35" y="30.18" width="13.49" height="0.56"/><path class="cls-13" d="M82.35,30.74H95.83v4.4a3.76,3.76,0,0,1-.75,2.26,4.54,4.54,0,0,0-2.35-.61c-1.84,0-3.34,1-3.34,2.11v0H81.78C81.8,37.75,82.35,30.74,82.35,30.74Z"/><path class="cls-3" d="M78.41,37.26l.1-.78,11.27,1.43a3.89,3.89,0,0,1,3-1.12,4.54,4.54,0,0,1,2.35.61,3.77,3.77,0,0,1-3,1.53H89.39v0a1.94,1.94,0,0,1,0-.24Z"/><rect class="cls-7" x="79.86" y="34.94" width="1.07" height="4.35" transform="matrix(0.13, -0.99, 0.99, 0.13, 33.39, 112.16)"/><circle class="cls-3" cx="119.2" cy="42.94" r="6.24" transform="translate(33.91 136.63) rotate(-67.5)"/><path class="cls-14" d="M116.12,42.94A3.08,3.08,0,1,1,119.2,46,3.07,3.07,0,0,1,116.12,42.94Z"/><circle class="cls-3" cx="60.49" cy="42.94" r="6.24" transform="translate(-12.64 55.35) rotate(-45)"/><path class="cls-14" d="M57.41,42.94A3.08,3.08,0,1,1,60.49,46,3.07,3.07,0,0,1,57.41,42.94Z"/><polygon class="cls-12" points="63.36 36.3 60.3 42.15 61.24 42.65 64.25 36.89 63.36 36.3"/><path class="cls-7" d="M60.1,42.05,62.23,38l1.34.71-2.12,4.06L61,42.54h0c-.23.43-.53.72-.68.65s-.08-.49.15-.93Z"/><path class="cls-3" d="M60.55,42.85c.05-.08.05-.17,0-.19s-.12,0-.17.1,0,.17,0,.19S60.51,42.93,60.55,42.85Z"/><path class="cls-3" d="M78.78,17.75a4.17,4.17,0,0,0,0,1.17c0,.21.69.41.83.49a12,12,0,0,1,1.58.95,2.27,2.27,0,0,1,1.26,2c0,.2-.34.2-.32,0,.13-1.3-1.47-2-2.43-2.59-.33-.18-1-.32-1.17-.67a2.53,2.53,0,0,1-.06-1.39c0-.2.34-.2.31,0Z"/><path class="cls-4" d="M76.14,18.84a3.92,3.92,0,0,0,1.21-1.28,2.76,2.76,0,0,1,1.51-1.08c1.55-.37,3,1.23,4.18,1.9a.55.55,0,0,1,.23.62c-.53,1.87-2.83-2.31-4.69-1.09-.91.61-1.28,1.92-2.37,2.25-.09,0-.18.07-.26,0Z"/><path class="cls-15" d="M118.68,42.94a.52.52,0,0,1,.52-.52.52.52,0,1,1,0,1A.51.51,0,0,1,118.68,42.94Z"/><path class="cls-3" d="M60,42.94a.52.52,0,1,1,.52.51A.52.52,0,0,1,60,42.94Z"/><path class="cls-8" d="M80.68,16.68a1,1,0,0,1,.57.15L84.7,19a1,1,0,1,1-1,1.62l-3.46-2.21a.9.9,0,0,1-.4-.54A2.32,2.32,0,0,0,80.68,16.68Z"/><path class="cls-3" d="M83.85,20.75l1-1.58a.92.92,0,0,1,.28.54l-.68,1.06A.91.91,0,0,1,83.85,20.75Z"/><rect class="cls-3" x="82.76" y="19.29" width="1.93" height="0.52" transform="translate(22.17 79.58) rotate(-57.43)"/><rect class="cls-3" x="81.9" y="18.75" width="1.93" height="0.52" transform="translate(22.24 78.6) rotate(-57.43)"/><rect class="cls-3" x="81.04" y="18.2" width="1.93" height="0.52" transform="translate(22.31 77.63) rotate(-57.43)"/><path class="cls-3" d="M80.53,16.7a1,1,0,0,1,.48,0l-1,1.57a1,1,0,0,1-.25-.52A12.34,12.34,0,0,1,80.53,16.7Z"/><rect class="cls-3" x="80.19" y="17.65" width="1.93" height="0.52" transform="translate(22.37 76.66) rotate(-57.43)"/><path class="cls-3" d="M71.44,1.43l49.24,1.08h1.43A3.61,3.61,0,0,1,124,3a3.65,3.65,0,0,1,1.3,1.26,3.72,3.72,0,0,1,.58,2l.72,5.23H119.2V7.75a4,4,0,0,0-3.8-4.15H102.53a4,4,0,0,0-3.8,4.15v3.76h-2.9V7.61A3.78,3.78,0,0,0,92,3.82L81.51,3.5a3.8,3.8,0,0,0-3.8,3.79l-.57,4.22H75.78c0-.53,0-1.07,0-1.6,0-1.47.13-3.31-.9-4.51-1.61-1.89-4.43-1.81-6.7-1.81h-.17A3.72,3.72,0,0,1,71.44,1.43Z"/><g id="_5" data-name="5"><g id="_6" data-name="6"><path class="cls-16" d="M164.38,65.91c.18-.24.45-.5.74-.43a.5.5,0,0,1,.27.18,9.42,9.42,0,0,1,.29,1.79,6.41,6.41,0,0,1-.26,2.17,1,1,0,0,1-.57.56,1.12,1.12,0,0,1-1.22-.75,2.5,2.5,0,0,1-.16-1.74A7.48,7.48,0,0,1,164.38,65.91Z"/><path class="cls-17" d="M165.34,65.62a.4.4,0,0,0-.22-.14c-.29-.07-.56.19-.74.43a7.48,7.48,0,0,0-.91,1.78,2.5,2.5,0,0,0,.16,1.74A8.59,8.59,0,0,0,165.34,65.62Z"/><polygon class="cls-18" points="159.02 95.03 145.1 103.06 141.89 98.22 143.52 94.69 148.38 91.39 159.02 95.03"/><path class="cls-18" d="M105.28,66.5l-4.86,3.3-.15.32a6.51,6.51,0,0,0,.4,6.2l1.21,1.91,14-8.09Z"/><g id="Axonometric_Cylinder" data-name="Axonometric Cylinder"><path class="cls-18" d="M154.53,97a3.4,3.4,0,0,0-3.48-.33L148,98.46l7,11.92,3.06-1.76a3.47,3.47,0,0,0,1.39-3.15A10.76,10.76,0,0,0,154.53,97Z"/><path id="Cylinder_face" data-name="Cylinder face" class="cls-19" d="M156.36,107.24c0,3.11-2.19,4.38-4.89,2.82a10.82,10.82,0,0,1-4.88-8.46c0-3.11,2.19-4.38,4.88-2.82A10.79,10.79,0,0,1,156.36,107.24Z"/></g><g class="cls-1"><path class="cls-20" d="M151.46,108.44a7.42,7.42,0,0,1-3.42-5.79c0-2.17,1.45-3.1,3.31-2.07a7.42,7.42,0,0,1,3.42,5.79C154.8,108.54,153.32,109.47,151.46,108.44Z"/><path class="cls-21" d="M151.46,107.89a6.37,6.37,0,0,1-3-5c0-1.87,1.25-2.66,2.85-1.78a6.41,6.41,0,0,1,2.94,5C154.33,108,153.05,108.78,151.46,107.89Z"/><path class="cls-20" d="M151.6,106.33a3.59,3.59,0,0,1-1.66-2.82c0-1.05.7-1.5,1.6-1a3.59,3.59,0,0,1,1.66,2.81C153.22,106.38,152.5,106.83,151.6,106.33Z"/><path class="cls-22" d="M153.37,103.47a4.39,4.39,0,0,0-1.58-1.69c-1.18-.65-2.12-.06-2.1,1.31a4.68,4.68,0,0,0,2.17,3.67c1.13.62,2,.11,2.09-1.15v-.16A4.33,4.33,0,0,0,153.37,103.47Zm-.17,2a1,1,0,0,1-1.6.88,3.59,3.59,0,0,1-1.66-2.82c0-1.05.7-1.5,1.6-1a3.31,3.31,0,0,1,1.22,1.29,4.22,4.22,0,0,1,.32.76,2.51,2.51,0,0,1,.12.76A.57.57,0,0,1,153.2,105.45Z"/></g><g id="Axonometric_Cylinder-2" data-name="Axonometric Cylinder"><path class="cls-18" d="M111.72,72.3a3.4,3.4,0,0,0-3.48-.32l-3.06,1.76,7,11.93,3.06-1.77a3.46,3.46,0,0,0,1.4-3.14A10.79,10.79,0,0,0,111.72,72.3Z"/><path id="Cylinder_face-2" data-name="Cylinder face" class="cls-19" d="M113.55,82.52c0,3.12-2.19,4.38-4.88,2.82a10.78,10.78,0,0,1-4.89-8.46c0-3.11,2.19-4.37,4.89-2.81A10.79,10.79,0,0,1,113.55,82.52Z"/></g><g class="cls-1"><path class="cls-20" d="M108.66,83.73a7.44,7.44,0,0,1-3.43-5.8c0-2.17,1.45-3.09,3.31-2.06A7.38,7.38,0,0,1,112,81.66C112,83.83,110.51,84.76,108.66,83.73Z"/><path class="cls-21" d="M108.65,83.18a6.36,6.36,0,0,1-2.94-5c0-1.87,1.24-2.67,2.84-1.78a6.38,6.38,0,0,1,2.94,5C111.52,83.26,110.25,84.06,108.65,83.18Z"/><path class="cls-20" d="M108.79,81.61a3.59,3.59,0,0,1-1.66-2.81c0-1.06.7-1.51,1.6-1a3.6,3.6,0,0,1,1.67,2.82C110.41,81.66,109.69,82.11,108.79,81.61Z"/><path class="cls-22" d="M110.56,78.75A4.28,4.28,0,0,0,109,77.07c-1.18-.65-2.12-.07-2.1,1.31A4.73,4.73,0,0,0,109.05,82c1.13.63,2,.11,2.09-1.14v-.17A4.37,4.37,0,0,0,110.56,78.75Zm-.16,2c-.05,1-.74,1.36-1.61.88a3.59,3.59,0,0,1-1.66-2.81c0-1.06.7-1.51,1.6-1a3.65,3.65,0,0,1,1.54,2,3,3,0,0,1,.13.77Z"/></g><path class="cls-23" d="M184.56,85.26a26.54,26.54,0,0,0-6.85-6.64c-6.72-4.48-9.53-7-15.63-12.17-2.12-1.8-6-5.47-8.19-7.13-.95-.71-14-8.49-19.55-10.68,0,.09-12.85.92-12.85.92l-4.58-1.38a2.37,2.37,0,0,0-2,.34c-2.79,1.54-14.3,8.24-17.21,9.94a3.82,3.82,0,0,0-1.24,1.16,3.28,3.28,0,0,0-.39.77,11.62,11.62,0,0,0-.58,2.45v8.37A3.86,3.86,0,0,0,96,73.1c.55,1,4.65,4.22,5.88,5.14,0-4.94,1.61-8,6.37-5.27,4.51,2.6,6.38,7.73,6.38,12.72l30.46,17.37c.05-4.86,1.66-7.86,6.37-5.14,4.4,2.54,6.28,7.48,6.37,12.36a6.45,6.45,0,0,0,1.41.71,11.52,11.52,0,0,0,5.07,1.29c6.06,0,10.82-2.47,15.23-5.35,3.23-2.1,5.73-4.25,6.95-6.17a5.12,5.12,0,0,0,.74-2.84C187.19,95.28,187.17,89.28,184.56,85.26Z"/><path class="cls-24" d="M102.22,74.94a14.73,14.73,0,0,0-.33,3.3c-1.23-.92-5.33-4.19-5.88-5.14a3.86,3.86,0,0,1-.49-1.89v-.14Zm12,7a19.43,19.43,0,0,1,.38,3.8l30.46,17.37a14.19,14.19,0,0,1,.34-3.17Z"/><path class="cls-16" d="M179.41,101.41c6.91-4.29,7.55-8.5,7.51-8.85a17.78,17.78,0,0,0-2.36-7.3,26.54,26.54,0,0,0-6.85-6.64c-6.72-4.48-9.53-7-15.63-12.17-2.12-1.8-6-5.48-8.19-7.13-.95-.71-17.69-10.19-19.55-10.68-2.23.7-11.9,5.81-18.14,9.83a.56.56,0,0,0,.1,1c5.54,2.15,17.49,9.05,19.46,11.44,2.42,2.94,10.64,15.93,10.64,15.93,2.83,2.88,9.33,8.54,12.27,11.31,3.29,3.29,3.09,4.52,3.38,7.07a1,1,0,0,0,.79.86C167.59,106.85,172.92,105.67,179.41,101.41Z"/><path class="cls-25" d="M134.34,48.64c-2.23.7-11.9,5.81-18.14,9.83a.57.57,0,0,0,.1,1,159.06,159.06,0,0,1,17.81,10.05c.41.29,6.67-2.19,11.65-5.05,4.4-2.53,7.63-5.46,7.47-5.57C150.36,57,136.66,48.89,134.34,48.64Z"/><path class="cls-26" d="M162.64,99.66c12.35.94,23.71-9.5,22.39-13.6-.15-.27-.3-.54-.47-.8a26.54,26.54,0,0,0-6.85-6.64c-3.11-2.08-5.39-3.73-7.54-5.42-8.53,11.41-23.77,13.63-23.77,13.63,2.14,2.18,8.83,8.19,12,11A7.22,7.22,0,0,0,162.64,99.66Z"/><path class="cls-27" d="M113,64.53c-.05,0-.1,0-.13.07-.95,2-.7,9.24-.92,11.76l.19.29c.22-2.46.1-10.15.93-12A.09.09,0,0,0,113,64.53Z"/><path class="cls-27" d="M148.56,91.61l-4.88-7.38-.18.1,4.87,7.37v5.2h.21V91.66A.08.08,0,0,0,148.56,91.61Z"/><path class="cls-27" d="M128.27,75.92l-.2-.11c-.39,4.11-.74,9.52-.75,15.68l-12.75-7.37a2,2,0,0,0,0,.25l12.78,7.38L145.14,102c0-.07,0-.15,0-.22L127.53,91.6C127.53,85.45,127.88,80,128.27,75.92Z"/><path class="cls-28" d="M151.79,85.76C158,84.08,163.92,80.27,169,75.45a1.35,1.35,0,0,0-.05-2L153.34,60c-3.58,3.26-9.44,6.5-16.86,9.73C140.18,76,144.54,82,147.9,85A3.7,3.7,0,0,0,151.79,85.76Z"/><path class="cls-29" d="M148.82,83.32a4.36,4.36,0,0,1-.51,0,4.6,4.6,0,0,1-2.88-1.93,127.07,127.07,0,0,1-7.67-10.45.59.59,0,0,1,.28-.83C145,67,150,64.14,153.27,61.35a.7.7,0,0,1,.9,0l12.17,10.58a1,1,0,0,1,.33.71.91.91,0,0,1-.29.7C161,78.47,155.75,81.59,150,83.17a4.66,4.66,0,0,1-1.18.15Z"/><path class="cls-28" d="M135.89,72.39a9.69,9.69,0,0,0-3.21-3c-5-2.91-11.17-6.59-15.27-8.58a2.14,2.14,0,0,0-1.41-.16c-2.66.61-9.2,3.87-7.88,4.63,4.16,2.4,31.4,18,35.56,20.23.26.14.59-.14.44-.39C142.93,83.1,138.18,75.87,135.89,72.39Z"/><path class="cls-29" d="M114.09,61.66c-2.42,1-5.43,2.65-5.45,3.25L112.26,67A18.72,18.72,0,0,1,114.09,61.66Z"/><path class="cls-29" d="M112.7,67.23c3.91,2.25,9.72,5.56,15.28,8.73a36.62,36.62,0,0,1,1.8-8c-4.35-2.54-9.22-5.38-12.59-7a1.44,1.44,0,0,0-1-.1,14.91,14.91,0,0,0-1.42.48A19.15,19.15,0,0,0,112.7,67.23Z"/><path class="cls-29" d="M135.65,72.55a9.3,9.3,0,0,0-3.11-2.94l-2.34-1.37a36.05,36.05,0,0,0-1.77,8c6.87,3.92,13.27,7.54,15.11,8.55h.06C142.39,82.73,137.72,75.69,135.65,72.55Z"/><path class="cls-30" d="M172.67,99.8c.29,1,1.28,3.22,1.92,3.09,2.86-.61,8.56-4.78,9.39-6.38.3-.56-.79-4.05-1.13-4.13a23.94,23.94,0,0,1-5.13,4.36C175.15,98.34,172.54,99.38,172.67,99.8Z"/><path class="cls-29" d="M177.72,96.74c-1.45.91-2.94,1.6-3.92,2.1-.76.38-1.21.62-1.13,1a7.28,7.28,0,0,0,1.56,3c2.87-.64,8.53-4.78,9.35-6.37.24-.46-.46-2.94-.9-3.82A24,24,0,0,1,177.72,96.74Z"/><path class="cls-16" d="M154.26,86.63c3.33,4.76,9.59,8.21,14.76,10.07C164.09,94.85,158,90.41,154.26,86.63Z"/><g class="cls-31"><path class="cls-32" d="M169.83,77.46c3.88,2.64,9.72,7.7,11.72,11.87C180.82,86.25,175.83,80.64,169.83,77.46Z"/></g><path class="cls-16" d="M132.07,81.86l-2.64-1.52a.57.57,0,0,1-.27-.43v-.37c0-.15.12-.2.27-.12L132.07,81a.54.54,0,0,1,.27.42v.38C132.34,81.9,132.22,82,132.07,81.86Z"/><path class="cls-16" d="M116.3,72.75l-2.64-1.52a.57.57,0,0,1-.27-.43v-.37c0-.15.12-.2.27-.12l2.64,1.53a.58.58,0,0,1,.27.42v.38C116.57,72.79,116.44,72.84,116.3,72.75Z"/><path class="cls-16" d="M135.8,82.31a2,2,0,0,0,.67,2.34,1.67,1.67,0,0,0,.43.1c1.44.15,3.4.18,4.1-.62a.56.56,0,0,0,.09-.68c-.13-.43-.62-2.26-1-2.46A14.29,14.29,0,0,0,135.8,82.31Z"/><path class="cls-33" d="M140.69,82.17a2.76,2.76,0,0,0-.6-1.18,14.29,14.29,0,0,0-4.29,1.32.91.91,0,0,0-.16.4A10.07,10.07,0,0,0,140.69,82.17Z"/><path class="cls-28" d="M142.6,83.53c-.13,0-1.37-.31-1.58-.34-.73-.1-1.75,1.2-1.45,1.56.08.1,3.24.3,3.34.31C143.41,85.1,143.28,83.61,142.6,83.53Z"/><path class="cls-34" d="M98.32,70.78l-.93-.53a.54.54,0,0,1-.24-.39v-.11c0-.13.11-.18.24-.1l.93.53a.52.52,0,0,1,.25.39v.11C98.57,70.82,98.46,70.86,98.32,70.78Z"/><path class="cls-34" d="M144,97.15l-.93-.54a.5.5,0,0,1-.25-.39v-.1c0-.14.11-.19.25-.11l.93.54a.52.52,0,0,1,.24.39V97C144.23,97.18,144.12,97.23,144,97.15Z"/><path class="cls-35" d="M95.68,61.8A7.12,7.12,0,0,0,95.54,67c.7.16,1-2.87,1-4.07a.88.88,0,0,0-.37-.75Z"/><path class="cls-36" d="M170.18,100.55c1.12-.14,2.44,3,1.22,3.69s-4.32,1.46-8.56,1c-1.82-.59-2.23-4.24-.31-4.42A35.9,35.9,0,0,0,170.18,100.55Z"/><path class="cls-34" d="M162.53,100.81c-2.93-.16-1.7,4.2.31,4.42C162.19,104.42,161.64,101.63,162.53,100.81Z"/><path class="cls-36" d="M184.34,91.13a7.39,7.39,0,0,0,.84,3.59c.38.16,1.59-2.09,1.58-3.24a10.07,10.07,0,0,0-1.13-4.13A39.25,39.25,0,0,1,184.34,91.13Z"/><path class="cls-37" d="M178.13,98.48a.86.86,0,0,0,1.24.46,1.14,1.14,0,0,0,.41-1.42.86.86,0,0,0-1.23-.46A1.14,1.14,0,0,0,178.13,98.48Z"/><polygon class="cls-38" points="183.15 100.81 176.9 105 176.9 107.25 183.15 103.06 183.15 100.81"/></g><path class="cls-28" d="M120.7,50.44l-16.84,9.73c-1,.72,1.48.3,4.42-.14,2.53-.38,5.29-.89,5.29-.89a10.44,10.44,0,0,0,2.36-1.07,170,170,0,0,1,16-8.78l-9.51.68A3.55,3.55,0,0,0,120.7,50.44Z"/><path class="cls-25" d="M101.87,60.89l19.62-11.33-4.58-1.38a2.37,2.37,0,0,0-2,.34c-2.79,1.54-14.3,8.24-17.21,9.94a3.82,3.82,0,0,0-1.24,1.16l-.06.1A35.05,35.05,0,0,0,101.87,60.89Z"/><path class="cls-29" d="M163.72,111.07a14.67,14.67,0,0,0,6.42-.63c.47-.18.33-.75.29-1.26a.41.41,0,0,0-.43-.39,15.59,15.59,0,0,1-6.17-.78.47.47,0,0,0-.62.45v2A.62.62,0,0,0,163.72,111.07Z"/><path class="cls-29" d="M187.1,94.41a15,15,0,0,1-.42,2.56,3.85,3.85,0,0,0-.1.83v1.57c0,.16.07.15.11.09a5.07,5.07,0,0,0,.54-1.43s0-.07,0-.11C187.22,97.05,187.21,95.82,187.1,94.41Z"/></g><path class="cls-39" d="M8.45,80.14s.62-3.56,3.44-3.88L28.35,82.1,78,55.38l1.61-.93s1.62-.61,1.62,2.35L81,73.5l1.07.38s2.38,1.1-3,3.73L27.16,108.09c-5.86,3.57-13.69.66-19.32-2.07-4.44-1.45-2.95-2.77-2.95-2.77L8,102.32Z"/><path class="cls-40" d="M81.24,71.5V54.56c0-3-1.61-2.35-1.61-2.35L78,53.14h0L28.38,79.86s-2.93.88-3.19,5.62l-1.81,20.57s-.36,2.35,3.81-.2L79.11,75.37A3.62,3.62,0,0,0,81.24,71.5Z"/><g class="cls-41"><line class="cls-42" x1="24.01" y1="101.22" x2="81.24" y2="68.36"/><line class="cls-42" x1="33.01" y1="92.08" x2="33.01" y2="102.43"/><line class="cls-42" x1="39.63" y1="88.22" x2="39.63" y2="98.57"/><line class="cls-42" x1="46.91" y1="83.99" x2="46.91" y2="94.34"/><line class="cls-42" x1="55.02" y1="79.17" x2="55.02" y2="89.53"/><line class="cls-42" x1="62.59" y1="74.76" x2="62.59" y2="85.11"/></g><path class="cls-43" d="M36.13,104.49l-2.9-.78a1.39,1.39,0,0,1-.67-.74c-.39-1.67-.69-2.53,0-4.3,1.05-2.65,3.32-4.24,5.06-3.54s2.29,3.4,1.24,6.05a5.73,5.73,0,0,1-2.75,3.31"/><path class="cls-43" d="M72,83.35l-2.9-.78a1.43,1.43,0,0,1-.68-.74c-.39-1.68-.68-2.53,0-4.3,1.06-2.66,3.32-4.24,5.06-3.55s2.3,3.4,1.25,6A5.79,5.79,0,0,1,72,83.35"/><path class="cls-43" d="M62.6,89l-2.91-.78a1.39,1.39,0,0,1-.67-.74c-.39-1.67-.69-2.53,0-4.3,1.05-2.65,3.32-4.24,5.06-3.54s2.29,3.4,1.24,6.05A5.75,5.75,0,0,1,62.6,89"/><path class="cls-38" d="M78.39,72.5c0-3.27-3.71-2.15-3.71-2.15L62.59,77C57.78,79.54,58,85.71,58,85.71l-15,8.63c-1.06-4.87-6.34-2.26-6.34-2.26A10.57,10.57,0,0,0,31.18,99l-7.52,4-.28,3.15s-.36,2.35,3.81-.2L79.11,75.37a3.62,3.62,0,0,0,2.13-3.87V71Z"/><path class="cls-40" d="M9.3,103.8s9.49,5.27,14.91,3.29l4.17-27.23L11.92,74c-2.81.32-3.43,3.89-3.43,3.89S5.25,90.17,6.71,99.54A4.18,4.18,0,0,0,9.3,103.8Z"/><path class="cls-38" d="M8.09,98.71a5,5,0,0,1-1.61-1.06c.06.64.14,1.27.23,1.89A4.18,4.18,0,0,0,9.3,103.8s9.49,5.27,14.91,3.29l.69-4.48C18.62,104.55,8.09,98.71,8.09,98.71Z"/><path class="cls-44" d="M10.3,78,5.69,79.25s-2.94.63-2.92,4.59H4.31s.08-2.51,2.25-2.94l3.12-.48Z"/><polygon class="cls-45" points="4.61 88.87 1.91 88.14 1.91 83.03 4.61 83.77 4.61 88.87"/><polygon points="4.61 83.77 4.89 83.61 4.89 88.45 4.61 88.87 4.61 83.77"/><polygon class="cls-46" points="1.91 83.03 2.29 82.93 4.89 83.61 4.61 83.77 1.91 83.03"/><path class="cls-47" d="M24,97.41v3.81C16.67,102.57,6.4,96.74,6.4,96.74"/><polygon class="cls-48" points="66.56 47.81 79.05 52.58 26.82 80.69 10.72 74.48 66.56 47.81"/><line class="cls-47" x1="24" y1="97.41" x2="81.24" y2="64.41"/><path class="cls-47" d="M8,94.63a2,2,0,0,0,.83,2.2A37.14,37.14,0,0,0,18.5,100a1.17,1.17,0,0,0,.83-1.64Z"/><path class="cls-45" d="M11.92,74C9,74.07,8.17,77.9,8.17,77.9A67.12,67.12,0,0,0,6.33,94S15.63,99,22,98.81c2,0,2.25-1.14,2.25-1.14a81.59,81.59,0,0,1,1.22-13.91c.64-3.7,2.95-3.9,2.95-3.9S13.12,75.93,11.92,74Z"/><path class="cls-49" d="M23.14,96.26s-.07,1.33-2.11,1c-.34-.06-8.74-1.41-14.71-5.22A53.62,53.62,0,0,1,8.17,77.92s.43-1.29,1.49-.78a51.19,51.19,0,0,0,12.92,3.91s1.88.18,1.54,2.86A94.11,94.11,0,0,0,23.14,96.26Z"/><path class="cls-50" d="M21.14,93a6.67,6.67,0,0,1-2.61.51,16.85,16.85,0,0,1-6.44-1.12,9.34,9.34,0,0,1-4.18-3,13.81,13.81,0,0,1-1.34-2.48l0-.1a39.6,39.6,0,0,0-.21,5.25c6,3.81,14.37,5.16,14.71,5.22,2,.3,2.11-1,2.11-1,.05-1.81.13-3.43.22-4.85A6.57,6.57,0,0,1,21.14,93Z"/><path class="cls-45" d="M12.26,97.21a.3.3,0,0,1-.38.18l-1.39-.52a.28.28,0,0,1-.17-.37h0a.28.28,0,0,1,.37-.17l1.4.51a.28.28,0,0,1,.17.37Z"/><path class="cls-45" d="M15.92,98.48a.29.29,0,0,1-.37.19l-1.41-.45a.29.29,0,0,1-.19-.37h0a.3.3,0,0,1,.37-.19l1.41.45a.3.3,0,0,1,.19.37Z"/><path class="cls-45" d="M6.71,100.15l2.9,1.21s.71-2-3.11-3.51c0,0-.28.08.2,2.25"/><path class="cls-51" d="M8.43,99.52a.69.69,0,1,1-.69-.69A.69.69,0,0,1,8.43,99.52Z"/><path class="cls-38" d="M7.86,99.55a.41.41,0,0,0,.42.1.59.59,0,0,0,.05-.22.51.51,0,0,0-.5-.52A.48.48,0,0,0,7.86,99.55Z"/><path class="cls-52" d="M7.71,99.71a.75.75,0,0,1-.06-.88.7.7,0,0,0-.6.69.69.69,0,0,0,1.25.4A.59.59,0,0,1,7.71,99.71Z"/><path class="cls-51" d="M9.19,100.25a.47.47,0,1,1-.93,0,.47.47,0,0,1,.93,0Z"/><path class="cls-38" d="M8.81,100.27a.28.28,0,0,0,.28.07.42.42,0,0,0,0-.15.35.35,0,0,0-.34-.35A.31.31,0,0,0,8.81,100.27Z"/><path class="cls-52" d="M8.71,100.38a.5.5,0,0,1,0-.59.47.47,0,0,0,.06.93.48.48,0,0,0,.38-.2A.4.4,0,0,1,8.71,100.38Z"/><path class="cls-53" d="M7.33,98.7a.36.36,0,0,1-.36.36.36.36,0,1,1,0-.72A.36.36,0,0,1,7.33,98.7Z"/><path class="cls-45" d="M23.5,103v2.14l-4.55-1S19.18,101.9,23.5,103Z"/><path class="cls-51" d="M21.15,103.26a.75.75,0,0,0,.18,1,.75.75,0,1,0-.18-1Z"/><path class="cls-38" d="M21.64,103.65a.44.44,0,0,1-.44-.19.72.72,0,0,1,.1-.22.56.56,0,0,1,.77-.14A.51.51,0,0,1,21.64,103.65Z"/><path class="cls-52" d="M21.67,103.88a.8.8,0,0,0,.6-.73.73.73,0,0,1,.1,1,.74.74,0,0,1-1,.18.75.75,0,0,1-.32-.62A.65.65,0,0,0,21.67,103.88Z"/><path class="cls-51" d="M20,103.42a.51.51,0,1,0,.82.59.5.5,0,0,0-.12-.7A.49.49,0,0,0,20,103.42Z"/><path class="cls-38" d="M20.35,103.68a.29.29,0,0,1-.3-.12.34.34,0,0,1,.07-.15.38.38,0,0,1,.52-.1A.35.35,0,0,1,20.35,103.68Z"/><path class="cls-52" d="M20.37,103.84a.53.53,0,0,0,.4-.49.49.49,0,0,1,.07.66.51.51,0,0,1-.92-.29A.44.44,0,0,0,20.37,103.84Z"/><path class="cls-53" d="M22.64,103.23a.41.41,0,0,0,.09.55.39.39,0,0,0,.46-.64A.41.41,0,0,0,22.64,103.23Z"/><g class="cls-41"><path class="cls-54" d="M10.75,101a28,28,0,0,0,5.5,2.08v3.19a30.9,30.9,0,0,1-5.5-2.2V101m-.45-.73v4.07a30.09,30.09,0,0,0,6.4,2.49V102.7a26.47,26.47,0,0,1-6.4-2.45Z"/></g><g class="cls-41"><path class="cls-52" d="M10.9,101.39v.39a15.38,15.38,0,0,0,5.2,1.89v-.39A21.35,21.35,0,0,1,10.9,101.39Z"/><path class="cls-52" d="M10.9,102.07v.39a17.84,17.84,0,0,0,5.2,1.89V104A21.35,21.35,0,0,1,10.9,102.07Z"/><path class="cls-52" d="M10.9,102.75v.39A15.38,15.38,0,0,0,16.1,105v-.39A21.35,21.35,0,0,1,10.9,102.75Z"/><path class="cls-52" d="M10.9,103.43v.39a20.3,20.3,0,0,0,5.2,1.89v-.39A21.35,21.35,0,0,1,10.9,103.43Z"/></g><path class="cls-45" d="M28,82.84l-4.61,1.29s-2.94.62-2.92,4.59H22s.08-2.51,2.26-2.94l3.11-.48Z"/><polygon class="cls-45" points="22.29 93.75 19.59 93.01 19.59 87.91 22.29 88.64 22.29 93.75"/><polygon points="22.29 88.64 22.57 88.48 22.57 93.33 22.29 93.75 22.29 88.64"/><polygon class="cls-46" points="19.59 87.91 19.97 87.8 22.57 88.48 22.29 88.64 19.59 87.91"/><path class="cls-43" d="M33.33,102.53s-1-5.79,3.46-8.19c0,0,4.29-2.81,5.05,2.9Z"/><path class="cls-43" d="M59.8,87s-1-5.79,3.45-8.19c0,0,4.3-2.81,5,2.9Z"/><path class="cls-43" d="M69.19,81.38s-1-5.79,3.46-8.19c0,0,4.29-2.81,5,2.9Z"/><path class="cls-45" d="M22,72.19l8.35,3.18s3.06-3.55,9.93-6l-8.64-2.78S28.47,66.91,22,72.19Z"/><path d="M30.39,75.37l9.93-5.08V69.4S33.11,71.89,30.39,75.37Z"/><path class="cls-45" d="M50,58.14l8.35,3.18s3.06-3.55,9.93-6l-8.64-2.78S56.45,52.86,50,58.14Z"/><path d="M58.37,61.32l9.93-5.08v-.88S61.09,57.84,58.37,61.32Z"/><path class="cls-48" d="M66.56,47.81a2.79,2.79,0,0,1,2.52-.51l11.07,4.86s-.21-.06-1.1.42Z"/><path class="cls-55" d="M40.92,100.86c-1.05,2.65-3.32,4.24-5.06,3.54s-2.29-3.4-1.24-6.05,3.32-4.23,5.06-3.54S42,98.21,40.92,100.86Z"/><path class="cls-43" d="M39.42,100.38c-.55,1.39-1.74,2.22-2.65,1.86s-1.2-1.78-.65-3.17,1.74-2.21,2.65-1.85S40,99,39.42,100.38Z"/><path class="cls-51" d="M39.32,100.08c-.49,1.22-1.53,2-2.34,1.64s-1.06-1.57-.57-2.8,1.53-2,2.34-1.64S39.81,98.85,39.32,100.08Z"/><path class="cls-51" d="M39.32,100.08c-.49,1.22-1.53,2-2.34,1.64s-1.06-1.57-.57-2.8,1.53-2,2.34-1.64S39.81,98.85,39.32,100.08Z"/><path class="cls-56" d="M38.8,99.81c-.33.82-1,1.33-1.5,1.13s-.65-1-.32-1.85,1-1.32,1.5-1.12S39.12,99,38.8,99.81Z"/><path class="cls-51" d="M38,97.64a.16.16,0,0,1-.17.17.16.16,0,0,1-.16-.17.16.16,0,0,1,.16-.16A.16.16,0,0,1,38,97.64Z"/><path class="cls-38" d="M37.89,97.65a.11.11,0,0,0,.11,0s0,0,0-.06a.12.12,0,0,0-.12-.12A.11.11,0,0,0,37.89,97.65Z"/><path class="cls-52" d="M37.86,97.69a.17.17,0,0,1,0-.21.17.17,0,0,0,0,.33.17.17,0,0,0,.14-.07A.13.13,0,0,1,37.86,97.69Z"/><path class="cls-51" d="M38.82,97.59a.18.18,0,0,1-.17.17.17.17,0,0,1,0-.34A.18.18,0,0,1,38.82,97.59Z"/><path class="cls-38" d="M38.68,97.6a.12.12,0,0,0,.1,0s0,0,0-.05a.13.13,0,0,0-.13-.13A.14.14,0,0,0,38.68,97.6Z"/><path class="cls-52" d="M38.64,97.63a.18.18,0,0,1,0-.21.16.16,0,0,0-.14.17.17.17,0,0,0,.16.17.17.17,0,0,0,.14-.07A.16.16,0,0,1,38.64,97.63Z"/><path class="cls-51" d="M39.35,98.23a.17.17,0,0,1-.17.17.17.17,0,0,1-.16-.17.16.16,0,0,1,.16-.16A.16.16,0,0,1,39.35,98.23Z"/><path class="cls-38" d="M39.21,98.24a.08.08,0,0,0,.1,0,.08.08,0,0,0,0-.05.14.14,0,0,0-.12-.13A.12.12,0,0,0,39.21,98.24Z"/><path class="cls-52" d="M39.18,98.28a.17.17,0,0,1,0-.21.16.16,0,0,0-.14.16.17.17,0,0,0,.16.17.17.17,0,0,0,.14-.07A.13.13,0,0,1,39.18,98.28Z"/><path class="cls-51" d="M39.44,99.21a.17.17,0,1,1-.17-.17A.18.18,0,0,1,39.44,99.21Z"/><path class="cls-38" d="M39.3,99.22a.1.1,0,0,0,.1,0,.09.09,0,0,0,0,0,.12.12,0,0,0-.12-.13A.12.12,0,0,0,39.3,99.22Z"/><path class="cls-52" d="M39.26,99.25a.18.18,0,0,1,0-.21.17.17,0,0,0-.15.17.17.17,0,0,0,.31.1A.16.16,0,0,1,39.26,99.25Z"/><path class="cls-51" d="M39.18,100a.17.17,0,0,1-.16.17.17.17,0,0,1,0-.34A.17.17,0,0,1,39.18,100Z"/><path class="cls-38" d="M39.05,100a.1.1,0,0,0,.1,0,.09.09,0,0,0,0,0,.12.12,0,0,0-.12-.13A.11.11,0,0,0,39.05,100Z"/><path class="cls-52" d="M39,100.05a.2.2,0,0,1,0-.22.18.18,0,0,0-.15.17.17.17,0,0,0,.17.17.17.17,0,0,0,.13-.07A.16.16,0,0,1,39,100.05Z"/><path class="cls-51" d="M38.77,100.76a.17.17,0,0,1-.34,0,.17.17,0,0,1,.34,0Z"/><path class="cls-38" d="M38.63,100.76a.1.1,0,0,0,.1,0,.11.11,0,0,0,0-.05.12.12,0,0,0-.12-.13A.11.11,0,0,0,38.63,100.76Z"/><path class="cls-52" d="M38.59,100.8a.18.18,0,0,1,0-.21.17.17,0,0,0-.15.17.17.17,0,0,0,.17.16.15.15,0,0,0,.13-.07A.12.12,0,0,1,38.59,100.8Z"/><path class="cls-51" d="M38,101.3a.17.17,0,0,1-.17.17.17.17,0,0,1,0-.34A.17.17,0,0,1,38,101.3Z"/><path class="cls-38" d="M37.89,101.31a.14.14,0,0,0,.11,0s0,0,0,0a.13.13,0,0,0-.12-.13A.12.12,0,0,0,37.89,101.31Z"/><path class="cls-52" d="M37.86,101.34a.17.17,0,0,1,0-.21.16.16,0,0,0-.14.17.17.17,0,0,0,.16.17.17.17,0,0,0,.14-.07A.14.14,0,0,1,37.86,101.34Z"/><path class="cls-51" d="M37.28,101.35a.16.16,0,0,1-.16.17.16.16,0,0,1-.17-.17.16.16,0,0,1,.17-.16A.16.16,0,0,1,37.28,101.35Z"/><path class="cls-38" d="M37.14,101.36a.12.12,0,0,0,.11,0s0,0,0-.06a.12.12,0,0,0-.12-.12A.11.11,0,0,0,37.14,101.36Z"/><path class="cls-52" d="M37.11,101.4a.18.18,0,0,1,0-.21.17.17,0,0,0,0,.33.17.17,0,0,0,.13-.07A.13.13,0,0,1,37.11,101.4Z"/><path class="cls-51" d="M36.74,100.81a.16.16,0,0,1-.17.17.16.16,0,0,1-.16-.17.16.16,0,0,1,.16-.16A.16.16,0,0,1,36.74,100.81Z"/><path class="cls-38" d="M36.6,100.82a.09.09,0,0,0,.11,0,.43.43,0,0,0,0,0,.12.12,0,0,0-.12-.12A.11.11,0,0,0,36.6,100.82Z"/><path class="cls-52" d="M36.57,100.86a.17.17,0,0,1,0-.21.17.17,0,0,0,0,.33.17.17,0,0,0,.14-.07A.13.13,0,0,1,36.57,100.86Z"/><path class="cls-51" d="M36.6,99.91a.18.18,0,0,1-.17.17.17.17,0,0,1,0-.34A.18.18,0,0,1,36.6,99.91Z"/><path class="cls-38" d="M36.46,99.92a.12.12,0,0,0,.1,0,.11.11,0,0,0,0,0,.12.12,0,0,0-.12-.13A.12.12,0,0,0,36.46,99.92Z"/><path class="cls-52" d="M36.42,100a.18.18,0,0,1,0-.21.16.16,0,0,0-.14.17.17.17,0,0,0,.16.17.17.17,0,0,0,.14-.07A.16.16,0,0,1,36.42,100Z"/><path class="cls-51" d="M36.84,99a.17.17,0,0,1-.17.16.16.16,0,0,1-.16-.16.16.16,0,0,1,.16-.17A.17.17,0,0,1,36.84,99Z"/><path class="cls-38" d="M36.7,99a.1.1,0,0,0,.1,0,.14.14,0,0,0,0-.06.13.13,0,0,0-.13-.12A.12.12,0,0,0,36.7,99Z"/><path class="cls-52" d="M36.67,99.05a.17.17,0,0,1,0-.21.16.16,0,0,0-.14.17.16.16,0,0,0,.16.16.17.17,0,0,0,.14-.07A.13.13,0,0,1,36.67,99.05Z"/><path class="cls-51" d="M37.3,98.2a.17.17,0,0,1-.34,0,.17.17,0,1,1,.34,0Z"/><path class="cls-38" d="M37.16,98.2a.1.1,0,0,0,.1,0,.13.13,0,0,0,0-.06.12.12,0,0,0-.12-.12A.11.11,0,0,0,37.16,98.2Z"/><path class="cls-52" d="M37.12,98.24a.18.18,0,0,1,0-.21.17.17,0,0,0-.15.17.17.17,0,0,0,.17.16.15.15,0,0,0,.14-.07A.15.15,0,0,1,37.12,98.24Z"/><path class="cls-12" d="M38.54,99.71c-.23.59-.71,1-1.07.8s-.47-.73-.23-1.32.71-.94,1.07-.8S38.77,99.13,38.54,99.71Z"/><path class="cls-55" d="M67.38,85.36c-1,2.65-3.32,4.24-5.06,3.54S60,85.5,61.08,82.85s3.32-4.23,5.06-3.54S68.44,82.71,67.38,85.36Z"/><path class="cls-43" d="M65.88,84.88c-.55,1.39-1.73,2.22-2.64,1.86S62,85,62.59,83.57s1.73-2.21,2.64-1.85S66.43,83.5,65.88,84.88Z"/><path class="cls-51" d="M65.78,84.58c-.49,1.22-1.53,2-2.34,1.64s-1.06-1.57-.57-2.8,1.53-2,2.34-1.64S66.27,83.36,65.78,84.58Z"/><path class="cls-51" d="M65.78,84.58c-.49,1.22-1.53,2-2.34,1.64s-1.06-1.57-.57-2.8,1.53-2,2.34-1.64S66.27,83.36,65.78,84.58Z"/><path class="cls-56" d="M65.26,84.32c-.33.81-1,1.32-1.5,1.12s-.64-1-.32-1.85,1-1.32,1.5-1.12S65.58,83.5,65.26,84.32Z"/><path class="cls-51" d="M64.49,82.14a.16.16,0,0,1-.16.17.16.16,0,0,1-.17-.17.16.16,0,0,1,.17-.16A.16.16,0,0,1,64.49,82.14Z"/><path class="cls-38" d="M64.35,82.15a.12.12,0,0,0,.11,0s0,0,0-.06a.12.12,0,0,0-.12-.12A.11.11,0,0,0,64.35,82.15Z"/><path class="cls-52" d="M64.32,82.19a.2.2,0,0,1,0-.21.17.17,0,0,0,0,.33.17.17,0,0,0,.13-.07A.13.13,0,0,1,64.32,82.19Z"/><path class="cls-51" d="M65.28,82.09a.17.17,0,0,1-.17.17.17.17,0,0,1,0-.34A.17.17,0,0,1,65.28,82.09Z"/><path class="cls-38" d="M65.14,82.1a.1.1,0,0,0,.1,0s0,0,0-.05a.13.13,0,0,0-.12-.13A.12.12,0,0,0,65.14,82.1Z"/><path class="cls-52" d="M65.11,82.13a.17.17,0,0,1,0-.21.16.16,0,0,0-.14.17.17.17,0,0,0,.16.17.17.17,0,0,0,.14-.07A.14.14,0,0,1,65.11,82.13Z"/><path class="cls-51" d="M65.81,82.73a.16.16,0,0,1-.16.17.16.16,0,0,1-.17-.17.16.16,0,0,1,.17-.16A.16.16,0,0,1,65.81,82.73Z"/><path class="cls-38" d="M65.67,82.74a.09.09,0,0,0,.11,0,.43.43,0,0,0,0-.05.12.12,0,0,0-.12-.12A.11.11,0,0,0,65.67,82.74Z"/><path class="cls-52" d="M65.64,82.78a.18.18,0,0,1,0-.21.17.17,0,0,0,0,.33.17.17,0,0,0,.13-.07A.13.13,0,0,1,65.64,82.78Z"/><path class="cls-51" d="M65.9,83.71a.18.18,0,0,1-.17.17.17.17,0,0,1,0-.34A.18.18,0,0,1,65.9,83.71Z"/><path class="cls-38" d="M65.76,83.72a.1.1,0,0,0,.1,0,.09.09,0,0,0,0,0,.12.12,0,0,0-.12-.13A.12.12,0,0,0,65.76,83.72Z"/><path class="cls-52" d="M65.72,83.76a.2.2,0,0,1,0-.22.16.16,0,0,0-.14.17.17.17,0,0,0,.16.17.17.17,0,0,0,.14-.07A.17.17,0,0,1,65.72,83.76Z"/><path class="cls-51" d="M65.65,84.5a.17.17,0,1,1-.17-.17A.18.18,0,0,1,65.65,84.5Z"/><path class="cls-38" d="M65.51,84.51a.1.1,0,0,0,.1,0,.09.09,0,0,0,0,0,.12.12,0,0,0-.12-.13A.12.12,0,0,0,65.51,84.51Z"/><path class="cls-52" d="M65.47,84.55a.18.18,0,0,1,0-.21.17.17,0,0,0-.15.16.18.18,0,0,0,.17.17.17.17,0,0,0,.13-.07A.16.16,0,0,1,65.47,84.55Z"/><path class="cls-51" d="M65.23,85.26a.17.17,0,0,1-.34,0,.17.17,0,0,1,.34,0Z"/><path class="cls-38" d="M65.09,85.26a.1.1,0,0,0,.1,0,.11.11,0,0,0,0-.05.12.12,0,0,0-.12-.13A.11.11,0,0,0,65.09,85.26Z"/><path class="cls-52" d="M65.05,85.3a.18.18,0,0,1,0-.21.17.17,0,0,0-.15.17.17.17,0,0,0,.17.16.15.15,0,0,0,.14-.07A.13.13,0,0,1,65.05,85.3Z"/><path class="cls-51" d="M64.49,85.8a.17.17,0,0,1-.16.17.17.17,0,0,1,0-.34A.17.17,0,0,1,64.49,85.8Z"/><path class="cls-38" d="M64.35,85.81a.15.15,0,0,0,.11,0s0,0,0,0a.13.13,0,0,0-.12-.13A.12.12,0,0,0,64.35,85.81Z"/><path class="cls-52" d="M64.32,85.84a.2.2,0,0,1,0-.21.16.16,0,0,0-.14.17.17.17,0,0,0,.17.17.17.17,0,0,0,.13-.07A.14.14,0,0,1,64.32,85.84Z"/><path class="cls-51" d="M63.74,85.85a.16.16,0,0,1-.16.17.16.16,0,0,1-.17-.17.16.16,0,0,1,.17-.16A.16.16,0,0,1,63.74,85.85Z"/><path class="cls-38" d="M63.61,85.86a.1.1,0,0,0,.1,0,.13.13,0,0,0,0-.06.12.12,0,0,0-.12-.12A.1.1,0,0,0,63.61,85.86Z"/><path class="cls-52" d="M63.57,85.9a.18.18,0,0,1,0-.21.17.17,0,0,0,0,.33.17.17,0,0,0,.13-.07A.13.13,0,0,1,63.57,85.9Z"/><path class="cls-51" d="M63.2,85.31a.16.16,0,0,1-.16.17.16.16,0,0,1-.17-.17.16.16,0,0,1,.17-.16A.16.16,0,0,1,63.2,85.31Z"/><path class="cls-38" d="M63.06,85.32a.09.09,0,0,0,.11,0,.43.43,0,0,0,0,0,.12.12,0,0,0-.12-.12A.11.11,0,0,0,63.06,85.32Z"/><path class="cls-52" d="M63,85.36a.18.18,0,0,1,0-.21.17.17,0,0,0,0,.33.17.17,0,0,0,.13-.07A.13.13,0,0,1,63,85.36Z"/><path class="cls-51" d="M63.06,84.41a.17.17,0,0,1-.17.17.17.17,0,0,1,0-.34A.17.17,0,0,1,63.06,84.41Z"/><path class="cls-38" d="M62.92,84.42a.12.12,0,0,0,.1,0s0,0,0,0a.13.13,0,0,0-.13-.13A.14.14,0,0,0,62.92,84.42Z"/><path class="cls-52" d="M62.89,84.45a.17.17,0,0,1,0-.21.16.16,0,0,0-.14.17.17.17,0,0,0,.16.17.17.17,0,0,0,.14-.07A.14.14,0,0,1,62.89,84.45Z"/><path class="cls-51" d="M63.3,83.51a.16.16,0,0,1-.17.16.16.16,0,0,1-.16-.16.16.16,0,0,1,.16-.17A.16.16,0,0,1,63.3,83.51Z"/><path class="cls-38" d="M63.16,83.51a.11.11,0,0,0,.11,0s0,0,0-.06a.13.13,0,0,0-.12-.12A.11.11,0,0,0,63.16,83.51Z"/><path class="cls-52" d="M63.13,83.55a.17.17,0,0,1,0-.21.16.16,0,0,0-.14.17.16.16,0,0,0,.16.16.15.15,0,0,0,.14-.07A.13.13,0,0,1,63.13,83.55Z"/><path class="cls-51" d="M63.76,82.7a.17.17,0,0,1-.17.16.16.16,0,0,1-.16-.16.16.16,0,0,1,.16-.17A.17.17,0,0,1,63.76,82.7Z"/><path class="cls-38" d="M63.62,82.7a.1.1,0,0,0,.1,0,.14.14,0,0,0,0-.06.13.13,0,0,0-.13-.12A.12.12,0,0,0,63.62,82.7Z"/><path class="cls-52" d="M63.59,82.74a.17.17,0,0,1,0-.21.16.16,0,0,0-.14.17.16.16,0,0,0,.16.16.15.15,0,0,0,.14-.07A.13.13,0,0,1,63.59,82.74Z"/><path class="cls-12" d="M65,84.21c-.23.59-.71,1-1.07.8s-.46-.73-.23-1.32.71-.94,1.07-.8S65.23,83.63,65,84.21Z"/><path class="cls-55" d="M76.78,79.71c-1,2.65-3.32,4.24-5.06,3.55s-2.29-3.4-1.24-6.05S73.8,73,75.54,73.66,77.83,77.06,76.78,79.71Z"/><path class="cls-43" d="M75.28,79.24c-.55,1.38-1.74,2.21-2.65,1.85s-1.2-1.78-.65-3.16,1.74-2.22,2.65-1.86S75.83,77.85,75.28,79.24Z"/><path class="cls-51" d="M75.18,78.93c-.49,1.23-1.54,2-2.34,1.64s-1.06-1.57-.57-2.79,1.53-2,2.33-1.64S75.67,77.71,75.18,78.93Z"/><path class="cls-51" d="M75.18,78.93c-.49,1.23-1.54,2-2.34,1.64s-1.06-1.57-.57-2.79,1.53-2,2.33-1.64S75.67,77.71,75.18,78.93Z"/><path class="cls-56" d="M74.66,78.67c-.33.82-1,1.32-1.5,1.12s-.65-1-.32-1.84,1-1.32,1.5-1.12S75,77.85,74.66,78.67Z"/><path class="cls-51" d="M73.89,76.5a.18.18,0,0,1-.17.17.17.17,0,0,1,0-.34A.18.18,0,0,1,73.89,76.5Z"/><path class="cls-38" d="M73.75,76.51a.1.1,0,0,0,.1,0s0,0,0,0a.13.13,0,0,0-.13-.13A.14.14,0,0,0,73.75,76.51Z"/><path class="cls-52" d="M73.71,76.54a.18.18,0,0,1,0-.21.16.16,0,0,0-.14.17.17.17,0,0,0,.16.17.17.17,0,0,0,.14-.07A.16.16,0,0,1,73.71,76.54Z"/><path class="cls-51" d="M74.68,76.44a.17.17,0,1,1-.34,0,.17.17,0,0,1,.34,0Z"/><path class="cls-38" d="M74.54,76.45a.08.08,0,0,0,.1,0,.07.07,0,0,0,0,0,.12.12,0,0,0-.12-.12A.11.11,0,0,0,74.54,76.45Z"/><path class="cls-52" d="M74.5,76.49a.18.18,0,0,1,0-.21.17.17,0,0,0-.15.16.17.17,0,0,0,.17.17.17.17,0,0,0,.14-.07A.15.15,0,0,1,74.5,76.49Z"/><path class="cls-51" d="M75.21,77.09a.17.17,0,0,1-.34,0,.17.17,0,0,1,.34,0Z"/><path class="cls-38" d="M75.07,77.09a.1.1,0,0,0,.1,0,.11.11,0,0,0,0-.05.12.12,0,0,0-.12-.13A.11.11,0,0,0,75.07,77.09Z"/><path class="cls-52" d="M75,77.13a.18.18,0,0,1,0-.21.17.17,0,0,0-.15.17.17.17,0,0,0,.17.16.15.15,0,0,0,.14-.07A.13.13,0,0,1,75,77.13Z"/><path class="cls-51" d="M75.29,78.06a.16.16,0,0,1-.16.17.17.17,0,0,1-.17-.17.17.17,0,0,1,.17-.16A.16.16,0,0,1,75.29,78.06Z"/><path class="cls-38" d="M75.16,78.07a.08.08,0,0,0,.1,0,.07.07,0,0,0,0,0,.12.12,0,0,0-.12-.12A.11.11,0,0,0,75.16,78.07Z"/><path class="cls-52" d="M75.12,78.11a.18.18,0,0,1,0-.21.16.16,0,0,0-.15.16.17.17,0,0,0,.17.17.17.17,0,0,0,.13-.07A.13.13,0,0,1,75.12,78.11Z"/><path class="cls-51" d="M75,78.86a.16.16,0,0,1-.17.16.16.16,0,0,1-.16-.16.16.16,0,0,1,.16-.17A.16.16,0,0,1,75,78.86Z"/><path class="cls-38" d="M74.9,78.86a.12.12,0,0,0,.11,0s0,0,0-.06a.12.12,0,0,0-.12-.12A.11.11,0,0,0,74.9,78.86Z"/><path class="cls-52" d="M74.87,78.9a.18.18,0,0,1,0-.21.16.16,0,0,0-.14.17.16.16,0,0,0,.16.16A.17.17,0,0,0,75,79,.13.13,0,0,1,74.87,78.9Z"/><path class="cls-51" d="M74.62,79.61a.17.17,0,0,1-.16.17.17.17,0,0,1-.17-.17.16.16,0,0,1,.17-.16A.16.16,0,0,1,74.62,79.61Z"/><path class="cls-38" d="M74.49,79.62a.08.08,0,0,0,.1,0,.07.07,0,0,0,0,0,.13.13,0,0,0-.12-.13A.11.11,0,0,0,74.49,79.62Z"/><path class="cls-52" d="M74.45,79.66a.18.18,0,0,1,0-.21.16.16,0,0,0-.15.16.17.17,0,0,0,.17.17.17.17,0,0,0,.13-.07A.13.13,0,0,1,74.45,79.66Z"/><path class="cls-51" d="M73.89,80.15a.17.17,0,0,1-.17.17.16.16,0,0,1-.16-.17.16.16,0,0,1,.16-.16A.17.17,0,0,1,73.89,80.15Z"/><path class="cls-38" d="M73.75,80.16a.08.08,0,0,0,.1,0,.08.08,0,0,0,0-.05.12.12,0,0,0-.13-.12A.12.12,0,0,0,73.75,80.16Z"/><path class="cls-52" d="M73.71,80.2a.18.18,0,0,1,0-.21.17.17,0,0,0,0,.33.17.17,0,0,0,.14-.07A.15.15,0,0,1,73.71,80.2Z"/><path class="cls-51" d="M73.14,80.21a.17.17,0,0,1-.17.17A.17.17,0,0,1,73,80,.17.17,0,0,1,73.14,80.21Z"/><path class="cls-38" d="M73,80.22a.1.1,0,0,0,.1,0s0,0,0,0a.13.13,0,0,0-.13-.13A.14.14,0,0,0,73,80.22Z"/><path class="cls-52" d="M73,80.25A.17.17,0,0,1,73,80a.16.16,0,0,0-.14.17.17.17,0,0,0,.16.17.17.17,0,0,0,.14-.07A.14.14,0,0,1,73,80.25Z"/><path class="cls-51" d="M72.6,79.67a.17.17,0,0,1-.17.16.16.16,0,0,1-.16-.16.17.17,0,0,1,.16-.17A.18.18,0,0,1,72.6,79.67Z"/><path class="cls-38" d="M72.46,79.67a.1.1,0,0,0,.1,0l0,0a.13.13,0,0,0-.13-.13A.12.12,0,0,0,72.46,79.67Z"/><path class="cls-52" d="M72.42,79.71a.18.18,0,0,1,0-.21.16.16,0,0,0-.14.17.16.16,0,0,0,.16.16.15.15,0,0,0,.14-.07A.13.13,0,0,1,72.42,79.71Z"/><circle class="cls-51" cx="72.29" cy="78.76" r="0.17"/><path class="cls-38" d="M72.32,78.77a.08.08,0,0,0,.1,0,.07.07,0,0,0,0-.05.13.13,0,0,0-.12-.13A.12.12,0,0,0,72.32,78.77Z"/><path class="cls-52" d="M72.28,78.81a.18.18,0,0,1,0-.21.17.17,0,0,0-.15.16.17.17,0,0,0,.17.17.17.17,0,0,0,.14-.07A.15.15,0,0,1,72.28,78.81Z"/><path class="cls-51" d="M72.7,77.86a.17.17,0,1,1-.17-.17A.18.18,0,0,1,72.7,77.86Z"/><path class="cls-38" d="M72.56,77.87a.1.1,0,0,0,.1,0,.09.09,0,0,0,0,0,.12.12,0,0,0-.12-.13A.12.12,0,0,0,72.56,77.87Z"/><path class="cls-52" d="M72.52,77.91a.18.18,0,0,1,0-.21.17.17,0,0,0-.15.16.17.17,0,0,0,.31.1A.17.17,0,0,1,72.52,77.91Z"/><path class="cls-51" d="M73.16,77.05a.17.17,0,1,1-.17-.17A.18.18,0,0,1,73.16,77.05Z"/><path class="cls-38" d="M73,77.06a.1.1,0,0,0,.1,0,.07.07,0,0,0,0,0A.12.12,0,0,0,73,76.9.12.12,0,0,0,73,77.06Z"/><path class="cls-52" d="M73,77.1a.18.18,0,0,1,0-.21.17.17,0,0,0-.15.16.18.18,0,0,0,.17.17.17.17,0,0,0,.13-.07A.16.16,0,0,1,73,77.1Z"/><path class="cls-12" d="M74.4,78.57c-.24.58-.72.94-1.08.8s-.46-.73-.22-1.32.71-1,1.07-.8S74.63,78,74.4,78.57Z"/><path class="cls-45" d="M29.87,81.17,78.3,55.06s1.92-.59,1.85,2.09v7.1L26.67,95l.78-9S27.36,82.09,29.87,81.17Z"/><path class="cls-49" d="M30.41,81.8,77.5,56.58s1.56-.49,1.51,1.69V64L27.82,93l.62-7.3S28.38,82.54,30.41,81.8Z"/><polygon class="cls-45" points="38.4 87.59 37.6 87.97 37.6 77.71 38.4 77.16 38.4 87.59"/><polygon class="cls-45" points="63.51 73.32 62.7 73.82 62.7 63.81 63.51 63.52 63.51 73.32"/><polygon class="cls-45" points="71.88 68.62 71.07 69.12 71.07 59.11 71.88 58.83 71.88 68.62"/><path class="cls-50" d="M77.5,56.58l-.1.05c.48,6.38-3.51,7.78-3.51,7.78L34.81,87c-4.29,1.26-5.08-2-5-4.91-1.43,1.07-1.38,3.56-1.38,3.56L27.82,93,79,64V58.27C79.06,56.09,77.5,56.58,77.5,56.58Z"/><polygon class="cls-45" points="46.91 72.17 55.88 67.15 55.88 89.07 46.91 94.34 46.91 72.17"/><polygon class="cls-57" points="47.38 72.64 55.42 68.17 55.42 88.74 47.38 93.32 47.38 72.64"/><polygon class="cls-49" points="51.13 71.49 48.18 73.18 48.18 92 51.13 90.31 51.13 71.49"/><polygon class="cls-49" points="51.85 71.08 51.85 89.89 54.77 88.22 54.77 69.41 51.85 71.08"/><path class="cls-50" d="M48.88,72.78l-.7.4V92l3-1.69V89.1C48.37,89.82,48.7,77,48.88,72.78Z"/><path class="cls-50" d="M52.77,70.55l-.92.52V89.89l2.92-1.67v-.55C52.05,87.67,52.63,73.45,52.77,70.55Z"/><path class="cls-58" d="M123.58,93.73c-5.42-7.84-21.49-12.16-21.49-12.16L90,85.13,77.85,81.57S61.37,86.09,57.6,92.11C50.08,104.1,45.33,133,45.33,133h84.52S128.07,100.2,123.58,93.73Z"/><path class="cls-59" d="M76,53.56s-2.76-2.89-4.7.16c-1.31,2.06.63,7.51,2.72,8.64s3.59-1.6,3.59-1.6"/><path class="cls-60" d="M104.05,53.56s2.76-2.89,4.7.16c1.31,2.06-.62,7.51-2.72,8.64s-3.59-1.6-3.59-1.6"/><path class="cls-61" d="M71.84,45.61a10,10,0,0,0-.61,4.64c.37,2.17,1.78,3.58,2.24,5s1.34,1.25,1.17.4-.48-11.86-.48-11.86"/><path class="cls-62" d="M108.17,45.61a10.05,10.05,0,0,1,.62,4.64c-.38,2.17-1.78,3.58-2.25,5s-1.34,1.25-1.17.4.49-11.86.49-11.86"/><path class="cls-63" d="M98.69,78.79l-.4-.71S97,76.82,90,76.82h0c-7,0-8.28,1.26-8.28,1.26l-.39.71L84.1,84,90,86l5.9-2Z"/><path class="cls-64" d="M96.59,70.72l-6.56.4h0l-6.56-.4S84,79,79.39,81.34A11,11,0,0,0,90,88.11h0a11,11,0,0,0,10.62-6.77C96.09,79,96.59,70.72,96.59,70.72Z"/><path class="cls-65" d="M106.49,43.89,90,42.15,73.53,43.89S72.56,75.74,90,75.74,106.49,43.89,106.49,43.89Z"/><path class="cls-66" d="M112.16,36.47a33.65,33.65,0,0,0-7.45-4.5c-4.67-2.06-6.6-6.9-14.6-7H89.9c-8,.09-9.93,4.93-14.6,7a33.65,33.65,0,0,0-7.45,4.5c-1.94,1.53-3.53,4.35-.08,6a13.4,13.4,0,0,1,4.31,3.34L90,43.33l17.92,2.48a13.4,13.4,0,0,1,4.31-3.34C115.69,40.82,114.11,38,112.16,36.47Z"/><path class="cls-38" d="M91.27,39.45q-1.26-.06-2.52,0l-.09-2.32c.9,0,1.8,0,2.7,0Z"/><path class="cls-38" d="M93.49,42c-.77-.1-1.55-.17-2.32-.2,0-.77.06-1.54.1-2.31.84,0,1.67.1,2.51.21C93.68,40.42,93.58,41.19,93.49,42Z"/><path class="cls-38" d="M96.2,40.06c-.83-.17-1.66-.31-2.49-.41.09-.77.18-1.53.28-2.3.89.11,1.79.26,2.68.44C96.51,38.55,96.35,39.3,96.2,40.06Z"/><path class="cls-38" d="M88.84,41.76c-.77,0-1.55.09-2.32.19-.09-.77-.18-1.53-.28-2.3.84-.1,1.67-.17,2.51-.2Z"/><path class="cls-38" d="M86.24,39.65c-.83.1-1.66.24-2.49.41-.15-.76-.31-1.51-.47-2.27.89-.18,1.78-.33,2.68-.44C86.05,38.12,86.15,38.88,86.24,39.65Z"/><path class="cls-67" d="M90,41.71s-12.3.18-17.93,4.1c0,0,.57,7.79,17.93,7.79s17.92-7.79,17.92-7.79C102.31,41.89,90,41.71,90,41.71Z"/><path class="cls-66" d="M92.36,91.89,90,89.5l-2.38,2.39s-2.68,21.92-4,31.59C83.65,125.92,86,133,86,133h8s2.3-7.06,2.37-9.5C95,113.81,92.36,91.89,92.36,91.89Z"/><path class="cls-66" d="M90,85.13l-3.35,4.68.93,2.08a5.34,5.34,0,0,1,4.84,0l.92-2.08Z"/><path class="cls-68" d="M81.72,78.08a2.9,2.9,0,0,0,.78,2.18C84.07,82,85.93,83.43,90,85.13l-3.78,6.25S80,85.77,77.89,81.57a20.06,20.06,0,0,1,2.19-2.16C80.79,78.76,81.72,78.08,81.72,78.08Z"/><path class="cls-68" d="M98.29,78.08a2.85,2.85,0,0,1-.78,2.18C95.94,82,94.08,83.43,90,85.13l3.77,6.25s6.24-5.61,8.35-9.81a20.06,20.06,0,0,0-2.19-2.16C99.22,78.76,98.29,78.08,98.29,78.08Z"/><path class="cls-63" d="M67.3,108.29c1.68-1.92,7.78,6.42,6,10.19-1.32,2.83-4.75.54-4.75.54a8.51,8.51,0,0,1-.38-2.13c.13-.3-2.84-2.39-3.06-3.54s1-3.22,1.7-4.4C66.93,108.79,67.23,108.4,67.3,108.29Z"/><path class="cls-69" d="M84.63,106.56a3.73,3.73,0,0,1-.45,1.14,21,21,0,0,1-3.72,2.78,2.66,2.66,0,0,1-2.25.07A9.43,9.43,0,0,0,74.75,112c-1.52,1.88-5,9.36-5,9.36l-4.06-10.41s3.92-5.36,5.24-8.48,3.1-3.59,4.34-5.17a5.48,5.48,0,0,0,.7-3.56s-.14-3.63-.11-4,1.64-.76,2.63,1.54A29.69,29.69,0,0,1,80,96.7c.06.24.09.41.12.49a4.83,4.83,0,0,1,2,1.31,3.61,3.61,0,0,1,.28,2.2,9.81,9.81,0,0,1,1,1.43,2.64,2.64,0,0,1,0,1.46,3.34,3.34,0,0,1,.63,1c0,.34,0,.84,0,.84A3.6,3.6,0,0,1,84.63,106.56Z"/><polygon class="cls-70" points="73.33 118.48 72.08 132.98 68.83 132.98 73.33 118.48"/><path class="cls-71" d="M49.58,133s13.25-18.63,17.72-24.69c0,0-1.19,1.61-.18,5.6,1.19,4.76,4.59,6,6.21,4.59L69.12,133Z"/><path class="cls-72" d="M80.15,97.19a13.54,13.54,0,0,0-2.65-.54,4.84,4.84,0,0,1,2.53,0C80.09,96.94,80.12,97.11,80.15,97.19Z"/><path class="cls-73" d="M98.49,107.28h13.39v8.62a4.8,4.8,0,0,1-1.84,3.77h0a7.93,7.93,0,0,1-9.74,0h0a4.79,4.79,0,0,1-1.84-3.79Z"/><circle class="cls-38" cx="56.24" cy="40.03" r="1.75"/><circle class="cls-38" cx="124.78" cy="81.43" r="1.75"/><path class="cls-38" d="M114.26,76.28a.83.83,0,1,1-.82-.82A.83.83,0,0,1,114.26,76.28Z"/><path class="cls-38" d="M59.65,83.9a.83.83,0,1,1-.83-.82A.83.83,0,0,1,59.65,83.9Z"/></g></g></svg>